SplineFontDB: 3.2
FontName: RallyDisplay-Bold
FullName: Rally Display Bold
FamilyName: Rally Display
Weight: Bold
Copyright: Copyright (c) 2023-2024, Zamero Type Foundry
UComments: "2023-12-31: Created with FontForge (http://fontforge.org)+AAoACgAK-Magical cartoon rabbit. :)"
Version: 001.000
ItalicAngle: 0
UnderlinePosition: -100
UnderlineWidth: 50
Ascent: 800
Descent: 200
InvalidEm: 0
LayerCount: 2
Layer: 0 0 "Back" 1
Layer: 1 0 "Fore" 0
XUID: [1021 474 1118879153 10182]
StyleMap: 0x0020
FSType: 0
OS2Version: 0
OS2_WeightWidthSlopeOnly: 0
OS2_UseTypoMetrics: 1
CreationTime: 1704051534
ModificationTime: 1732987612
PfmFamily: 81
TTFWeight: 700
TTFWidth: 5
LineGap: 90
VLineGap: 90
OS2TypoAscent: 0
OS2TypoAOffset: 1
OS2TypoDescent: 0
OS2TypoDOffset: 1
OS2TypoLinegap: 90
OS2WinAscent: 0
OS2WinAOffset: 1
OS2WinDescent: 0
OS2WinDOffset: 1
HheadAscent: 0
HheadAOffset: 1
HheadDescent: 0
HheadDOffset: 1
OS2Vendor: 'ZAM '
Lookup: 1 0 0 "'case' Case-Sensitive Forms lookup 31" { "'case' Case-Sensitive Forms lookup 31-1" ("case") } ['case' ('DFLT' <'dflt' > 'grek' <'dflt' > 'latn' <'AZE ' 'CAT ' 'CRT ' 'KAZ ' 'MOL ' 'NLD ' 'ROM ' 'TAT ' 'TRK ' 'dflt' > ) ]
Lookup: 1 0 0 "'ss17' Style Set 17 lookup 29" { "'ss17' Style Set 17 lookup 29-1" ("ss17") } ['ss17' ('DFLT' <'dflt' > 'grek' <'dflt' > 'latn' <'AZE ' 'CAT ' 'CRT ' 'KAZ ' 'MOL ' 'NLD ' 'ROM ' 'TAT ' 'TRK ' 'dflt' > ) ]
Lookup: 1 0 0 "'ss18' Style Set 18 lookup 30" { "'ss18' Style Set 18 lookup 30-1" ("ss18") } ['ss18' ('DFLT' <'dflt' > 'grek' <'dflt' > 'latn' <'AZE ' 'CAT ' 'CRT ' 'KAZ ' 'MOL ' 'NLD ' 'ROM ' 'TAT ' 'TRK ' 'dflt' > ) ]
Lookup: 1 0 0 "'subs' Subscript lookup 0" { "'subs' Subscript lookup 0 subtable" ("inferior") } ['subs' ('DFLT' <'dflt' > ) ]
Lookup: 1 0 0 "'onum' Oldstyle Figures lookup 27" { "'onum' Oldstyle Figures lookup 27-1" ("osf") } ['onum' ('DFLT' <'dflt' > 'grek' <'dflt' > 'latn' <'AZE ' 'CAT ' 'CRT ' 'KAZ ' 'MOL ' 'NLD ' 'ROM ' 'TAT ' 'TRK ' 'dflt' > ) ]

StartChar: dotlessi
Encoding: 239 305 1
Width: 325
Flags: W
HStem: 0 21G<108.83 285.159> 361.084 135.927<13.6201 113.151>
VStem: 108.83 176.329<0 361.084>
LayerCount: 2
Back
SplineSet
294.729492188 496.93359375 m 5
 300.159179688 0 l 5
 103.830078125 0 l 5
 110 496.93359375 l 5
 294.729492188 496.93359375 l 5
EndSplineSet
Fore
SplineSet
279.729492188 497.010742188 m 1
 285.159179688 0 l 1
 108.830078125 0 l 1
 113.151367188 361.083984375 l 1
 10 359.080078125 l 1
 13.6201171875 497.010742188 l 1
 279.729492188 497.010742188 l 1
EndSplineSet
EndChar

StartChar: period
Encoding: 14 46 2
Width: 262
Flags: W
HStem: -10 202<65.7871 199.213>
VStem: 31.5 202<24.2871 157.713>
LayerCount: 2
Fore
SplineSet
31.5 91 m 0
 31.5 152.722620738 70.7773792614 192 132.5 192 c 0
 194.222620739 192 233.5 152.722620738 233.5 91 c 0
 233.5 29.2773792613 194.222620739 -10 132.5 -10 c 0
 70.7773792614 -10 31.5 29.2773792613 31.5 91 c 0
EndSplineSet
EndChar

StartChar: o
Encoding: 79 111 3
Width: 565
Flags: W
HStem: -10.0664 149.175<222.313 345.399> 357.759 149.175<218.973 345.399>
VStem: 22.5 161.875<177.292 321.129> 380.375 162.125<178.278 320.168>
LayerCount: 2
Fore
SplineSet
184.375 249.858398438 m 0
 184.375 182.177716385 222.34989551 139.108398438 282.025390625 139.108398438 c 0
 342.12818499 139.108398438 380.375 182.177716385 380.375 249.858398438 c 0
 380.375 315.797907199 342.12818499 357.758789062 282.025390625 357.758789062 c 0
 222.34989551 357.758789062 184.375 315.797907199 184.375 249.858398438 c 0
22.5 249.93359375 m 0
 22.5 406.989257812 123.416557105 506.93359375 282 506.93359375 c 0
 441.19477312 506.93359375 542.5 406.989257812 542.5 249.93359375 c 0
 542.5 91.0439453125 441.19477312 -10.06640625 282 -10.06640625 c 0
 123.416557105 -10.06640625 22.5 91.0439453125 22.5 249.93359375 c 0
EndSplineSet
EndChar

StartChar: slash
Encoding: 15 47 4
Width: 497
Flags: W
LayerCount: 2
Back
SplineSet
1 -123.994140625 m 1
 198.637695312 379 l 1
 317 815.001953125 l 1
 506 763.001953125 l 1
 328.983398438 331 l 1
 190 -175.994140625 l 1
 1 -123.994140625 l 1
EndSplineSet
Fore
SplineSet
11 -126.494140625 m 1
 327 812.501953125 l 1
 486 765.501953125 l 1
 170 -173.494140625 l 1
 11 -126.494140625 l 1
EndSplineSet
Substitution2: "'frac' Diagonal Fractions in Latin lookup 25 subtable" fraction
EndChar

StartChar: d
Encoding: 68 100 5
Width: 679
Flags: W
HStem: -10.0664 145<225.442 347.24> 0 135.927<571.849 665.88> 361.934 145<226.406 353.506> 735.002 20G<401.875 569.256>
VStem: 22.5 164.25<175.307 319.955> 392.25 179.599<178.489 317.212> 397.271 85.2295<123.97 418.267> 402 167.17<278.934 755.002>
LayerCount: 2
Back
SplineSet
387.270507812 755.001953125 m 5
 381.840820312 0 l 5
 578.169921875 0 l 5
 573.848632812 604.075195312 l 5
 672 602.071289062 l 5
 668.379882812 755.001953125 l 5
 387.270507812 755.001953125 l 5
EndSplineSet
Fore
SplineSet
392.25 246.93359375 m 0xbc
 392.25 317.211621094 352.486493693 361.93359375 290 361.93359375 c 0
 226.902141224 361.93359375 186.75 317.211621094 186.75 246.93359375 c 0
 186.75 178.488522874 226.902141224 134.93359375 290 134.93359375 c 0
 352.486493693 134.93359375 392.25 178.488522874 392.25 246.93359375 c 0xbc
482.5 278.93359375 m 0xba
 482.5 123.970091943 402.934049766 -10.06640625 253 -10.06640625 c 0
 112.138230709 -10.06640625 22.5 89.8779296875 22.5 246.93359375 c 0
 22.5 405.823242188 112.138230709 506.93359375 253 506.93359375 c 0
 393.250438808 506.93359375 482.5 418.267481782 482.5 278.93359375 c 0xba
397.270507812 0 m 1x7a
 402 755.001953125 l 1
 569.169921875 755.001953125 l 1x79
 571.848632812 135.926757812 l 1x7c
 669.5 137.930664062 l 1
 665.879882812 0 l 1
 397.270507812 0 l 1x7a
EndSplineSet
EndChar

StartChar: p
Encoding: 80 112 6
Width: 677
Flags: W
HStem: -10.0664 145<323.494 450.594> 361.084 135.927<13.6201 108.151> 361.934 145<328.74 451.558>
VStem: 194.5 80.2295<81.5164 376.375> 490.25 164.25<176.912 321.56>
LayerCount: 2
Fore
SplineSet
284.75 249.93359375 m 0xb8
 284.75 179.655486278 324.513393825 134.93359375 387 134.93359375 c 0
 450.097935748 134.93359375 490.25 179.655486278 490.25 249.93359375 c 0
 490.25 318.378695618 450.097935748 361.93359375 387 361.93359375 c 0
 324.513393825 361.93359375 284.75 318.378695618 284.75 249.93359375 c 0xb8
194.5 225.43359375 m 0
 194.5 376.375488281 274.065917969 506.93359375 424 506.93359375 c 0
 564.861816406 506.93359375 654.5 406.989257812 654.5 249.93359375 c 0
 654.5 91.0439453125 564.861816406 -10.06640625 424 -10.06640625 c 0
 283.749511719 -10.06640625 194.5 81.5163574219 194.5 225.43359375 c 0
274.729492188 497.010742188 m 1xd8
 280.159179688 -174 l 1
 103.830078125 -174 l 1
 108.151367188 361.083984375 l 1
 10 359.080078125 l 1
 13.6201171875 497.010742188 l 1
 274.729492188 497.010742188 l 1xd8
EndSplineSet
EndChar

StartChar: t
Encoding: 84 116 7
Width: 438
Flags: W
HStem: 359.75 137.25<12.25 244.365> 480 20G<185.75 413.29>
VStem: 107.58 162.549<181.993 478.999>
LayerCount: 2
Fore
SplineSet
12.25 497 m 1xa0
 185.75 493 l 1
 413.75 500 l 1x60
 410.25 347.75 l 1
 182.75 363.5 l 1
 7.75 359.75 l 1
 12.25 497 l 1xa0
270.12890625 274.5 m 0
 270.12890625 187.833121259 287.05354704 155.370752949 385.409179688 140.680664062 c 1
 354.2890625 -16 l 1
 152.028803117 33.078125 107.580078125 72 107.580078125 262 c 0
 107.580078125 362.870605469 121.901367188 651.546875 121.901367188 651.546875 c 1
 277.229492188 645.5 l 1
 277.229492188 645.5 270.12890625 399.188623716 270.12890625 274.5 c 0
EndSplineSet
EndChar

StartChar: l
Encoding: 76 108 8
Width: 402
Flags: W
HStem: 0 136.397<289.129 388.539> 619.075 135.927<18.6201 118.151>
VStem: 113.83 175.299<136.397 619.075>
LayerCount: 2
Back
SplineSet
105.334960938 140.244140625 m 5
 109.862304688 751.69921875 l 5
 349.01953125 797.84375 l 5
 404.7265625 645.374023438 l 5
 295.80859375 623.6875 l 5
 300.63671875 14.7734375 l 5
 48.3994140625 -44.3125 l 5
 -7.3076171875 108.157226562 l 5
 105.334960938 140.244140625 l 5
EndSplineSet
Fore
SplineSet
289.12890625 136.397460938 m 1
 392.159179688 137.930664062 l 1
 388.5390625 0 l 1
 113.830078125 0 l 1
 118.151367188 619.075195312 l 1
 15 617.071289062 l 1
 18.6201171875 755.001953125 l 1
 284.729492188 755.001953125 l 1
 289.12890625 136.397460938 l 1
EndSplineSet
EndChar

StartChar: e
Encoding: 69 101 9
Width: 541
Flags: W
HStem: -23.9004 133.051<292.186 424.319> 194.25 98.75<151.75 361> 377.434 129.5<219.395 334.183>
VStem: 22.5 498.619<197.27 377.779>
LayerCount: 2
Back
SplineSet
145 251.93359375 m 0
 145 118.399011671 234.924400059 91.0845098901 427.2890625 79.900390625 c 1
 411.819335938 -23.900390625 l 1
 195.319904327 -22.2919921875 30 49 30 259 c 0
 30 399.989257812 114.333684792 506.93359375 271 506.93359375 c 0
 466.952995619 506.93359375 517.619140625 377.117081999 517.619140625 261.659179688 c 0
 517.619140625 223.858398438 512 196 512 196 c 1
 130 193 l 1
 115 279 l 1
 404 283 l 1
 404 283 404.043226139 284.065301324 404.043226139 285.999999724 c 0
 404.043226139 306 397.916066056 408.93359375 277 408.93359375 c 0
 172.754005142 408.93359375 145 332.861387567 145 251.93359375 c 0
EndSplineSet
Fore
SplineSet
185 251.93359375 m 0
 185 142.092344421 264.597691768 122.939981251 442.5390625 109.150390625 c 1
 424.319335938 -23.900390625 l 1
 193.979492188 -22.2919921875 22.5 49 22.5 259 c 0
 22.5 399.989257812 109.458177057 506.93359375 271 506.93359375 c 0
 469.73394556 506.93359375 521.119140625 377.778670123 521.119140625 262.909179688 c 0
 521.119140625 225.108398438 515.5 197.25 515.5 197.25 c 1
 151.75 194.25 l 1
 136.75 293 l 1
 361 297 l 1
 361 297 360.910796935 300.577362642 360.047163614 305.999999742 c 0
 357.36931418 332.216962227 339.370717152 377.43359375 278 377.43359375 c 0
 204.553958168 377.43359375 185 316.624282439 185 251.93359375 c 0
EndSplineSet
Substitution2: "'ss17' Style Set 17 lookup 29-1" e.ss17
Substitution2: "'ss15' Style Set 15 lookup 23-1" e.ss15
Substitution2: "'ss04' Style Set 4 lookup 12-1" e.ss04
EndChar

StartChar: s
Encoding: 83 115 10
Width: 388
Flags: W
HStem: 495.9 20G<293.053 296.539>
VStem: 180.438 182.852<132.648 196.124>
LayerCount: 2
Fore
SplineSet
293.052734375 515.900390625 m 1
 314.482421875 392.950195312 l 1
 314.482421875 392.950195312 210.931640625 387.346120969 210.931640625 348 c 0
 210.931640625 333.085138148 220.19928948 322.68073762 266.374023438 301.440185547 c 0
 335.334913552 269.357219236 363.2890625 230.635442466 363.2890625 168.25 c 0
 363.2890625 -19.9769601507 65.5390625 -23.900390625 65.5390625 -23.900390625 c 1
 46.3193359375 103.150390625 l 1
 46.3193359375 103.150390625 180.4375 108.973320715 180.4375 161.5 c 0
 180.4375 183.697407204 165.325907046 195.448374739 127.036132812 213.450195312 c 0
 51.8551977685 250.56876663 25 282.574868594 25 339.25 c 0
 25 511.407888977 293.052734375 515.900390625 293.052734375 515.900390625 c 1
EndSplineSet
EndChar

StartChar: b
Encoding: 66 98 11
Width: 677
Flags: W
HStem: -10.0664 145<329.759 451.558> 0 21G<103.83 280.159> 361.934 145<323.494 450.594> 619.075 135.927<13.6201 108.151>
VStem: 108.151 166.578<278.934 619.075> 194.5 85.6592<123.97 418.268> 490.25 164.25<175.307 319.955>
LayerCount: 2
Fore
SplineSet
284.75 246.93359375 m 0xb2
 284.75 178.488491882 324.513393825 134.93359375 387 134.93359375 c 0
 450.097935748 134.93359375 490.25 178.488491882 490.25 246.93359375 c 0
 490.25 317.211701222 450.097935748 361.93359375 387 361.93359375 c 0
 324.513393825 361.93359375 284.75 317.211701222 284.75 246.93359375 c 0xb2
194.5 278.93359375 m 0xb6
 194.5 418.267578125 283.749511719 506.93359375 424 506.93359375 c 0
 564.861816406 506.93359375 654.5 405.823242188 654.5 246.93359375 c 0
 654.5 89.8779296875 564.861816406 -10.06640625 424 -10.06640625 c 0
 274.065917969 -10.06640625 194.5 123.969970703 194.5 278.93359375 c 0xb6
274.729492188 755.001953125 m 1x7a
 280.159179688 0 l 1x76
 103.830078125 0 l 1
 108.151367188 619.075195312 l 1
 10 617.071289062 l 1
 13.6201171875 755.001953125 l 1
 274.729492188 755.001953125 l 1x7a
EndSplineSet
EndChar

StartChar: grave
Encoding: 64 96 12
Width: 230
Flags: W
HStem: 519.22 221.284
VStem: 3.5 223.518
LayerCount: 2
Fore
SplineSet
88.6767578125 740.50390625 m 1
 227.017578125 579.965820312 l 1
 171.580078125 519.219726562 l 1
 3.5 645.68359375 l 1
 88.6767578125 740.50390625 l 1
EndSplineSet
EndChar

StartChar: q
Encoding: 81 113 13
Width: 682
Flags: W
HStem: -173.994 135.927<571.849 665.88> -10.0664 145<225.442 347.24> 361.934 145<226.406 353.506> 476.934 20G<401.859 569.27>
VStem: 22.5 164.25<175.307 319.955> 402 167.17<278.934 496.934> 402 80.5<123.97 418.267>
LayerCount: 2
Fore
SplineSet
392.25 246.93359375 m 0xe8
 392.25 317.211621094 352.486493693 361.93359375 290 361.93359375 c 0
 226.902141224 361.93359375 186.75 317.211621094 186.75 246.93359375 c 0
 186.75 178.488522874 226.902141224 134.93359375 290 134.93359375 c 0
 352.486493693 134.93359375 392.25 178.488522874 392.25 246.93359375 c 0xe8
482.5 278.93359375 m 0xea
 482.5 123.970091943 402.934049766 -10.06640625 253 -10.06640625 c 0
 112.138230709 -10.06640625 22.5 89.8779296875 22.5 246.93359375 c 0
 22.5 405.823242188 112.138230709 506.93359375 253 506.93359375 c 0
 393.250438808 506.93359375 482.5 418.267481782 482.5 278.93359375 c 0xea
397.270507812 -173.994140625 m 1
 402 496.93359375 l 1
 569.169921875 496.93359375 l 1xdc
 571.848632812 -38.0673828125 l 1
 669.5 -36.0634765625 l 1
 665.879882812 -173.994140625 l 1
 397.270507812 -173.994140625 l 1
EndSplineSet
EndChar

StartChar: a
Encoding: 65 97 14
Width: 679
Flags: W
HStem: -10.0664 145<225.442 347.24> 0 135.927<571.849 665.88> 361.934 145<226.406 353.506> 477.002 20G<401.81 569.318>
VStem: 22.5 164.25<175.307 319.955> 392.25 179.599<178.489 317.212> 402 167.17<278.934 497.002> 402 80.5<123.97 418.267>
LayerCount: 2
Back
SplineSet
434 246.93359375 m 0xac
 434 342.267265625 377.222768499 402.93359375 288 402.93359375 c 0
 200.610229493 402.93359375 145 342.267265625 145 246.93359375 c 0
 145 153.432738 200.610229493 93.93359375 288 93.93359375 c 0
 377.222768499 93.93359375 434 153.432738 434 246.93359375 c 0xac
505 263.93359375 m 0xa9
 505 117.013180272 422.833855314 -10.06640625 268 -10.06640625 c 0
 122.554875959 -10.06640625 30 89.8779296875 30 246.93359375 c 0
 30 405.823242188 122.554875959 506.93359375 268 506.93359375 c 0
 412.833786481 506.93359375 505 412.434184942 505 263.93359375 c 0xa9
442.270507812 0 m 1x5c
 447 497.001953125 l 1
 554.169921875 497.001953125 l 1x5a
 556.848632812 90.9267578125 l 1
 662 92.9306640625 l 1
 658.379882812 0 l 1
 442.270507812 0 l 1x5c
EndSplineSet
Fore
SplineSet
392.25 246.93359375 m 0xac
 392.25 317.211621094 352.486493693 361.93359375 290 361.93359375 c 0
 226.902141224 361.93359375 186.75 317.211621094 186.75 246.93359375 c 0
 186.75 178.488522874 226.902141224 134.93359375 290 134.93359375 c 0
 352.486493693 134.93359375 392.25 178.488522874 392.25 246.93359375 c 0xac
482.5 278.93359375 m 0xa9
 482.5 123.970091943 402.934049766 -10.06640625 253 -10.06640625 c 0
 112.138230709 -10.06640625 22.5 89.8779296875 22.5 246.93359375 c 0
 22.5 405.823242188 112.138230709 506.93359375 253 506.93359375 c 0
 393.250438808 506.93359375 482.5 418.267481782 482.5 278.93359375 c 0xa9
397.270507812 0 m 1x5c
 402 497.001953125 l 1
 569.169921875 497.001953125 l 1x5a
 571.848632812 135.926757812 l 1
 669.5 137.930664062 l 1
 665.879882812 0 l 1
 397.270507812 0 l 1x5c
EndSplineSet
Substitution2: "'ss03' Style Set 3 lookup 11-1" a.ss03
EndChar

StartChar: h
Encoding: 72 104 15
Width: 650
Flags: W
HStem: 0 21G<111.33 287.659> 362.934 144<315.385 424.365> 619.075 135.927<13.6201 115.651>
VStem: 111.33 176.329<0 619.075> 448.5 172<-1.22201 338.473>
LayerCount: 2
Fore
SplineSet
185.5 253.93359375 m 1
 207.266367387 411.989257812 275.916354433 506.93359375 418 506.93359375 c 0
 551.423095703 506.93359375 620.5 429.158149369 620.5 278.93359375 c 0
 620.5 134.37697824 602.659179688 -15 602.659179688 -15 c 1
 428.330078125 0 l 1
 428.330078125 0 448.5 138.278031735 448.5 251.93359375 c 0
 448.5 322.389966388 427.905761719 362.93359375 369.5 362.93359375 c 0
 303.988235061 362.93359375 274.346785262 321.876464844 258.5 216.93359375 c 1
 185.5 253.93359375 l 1
282.229492188 755.001953125 m 1
 287.659179688 0 l 1
 111.330078125 0 l 1
 115.651367188 619.075195312 l 1
 10 617.071289062 l 1
 13.6201171875 755.001953125 l 1
 282.229492188 755.001953125 l 1
EndSplineSet
EndChar

StartChar: n
Encoding: 78 110 16
Width: 648
Flags: W
HStem: 0 21G<108.83 285.159> 361.075 135.927<13.6201 113.151> 362.934 144<312.885 421.865>
VStem: 108.83 176.329<0 253.934> 446 172<-1.22201 338.473>
LayerCount: 2
Fore
SplineSet
183 253.93359375 m 1xb8
 204.766367387 411.989257812 273.416354433 506.93359375 415.5 506.93359375 c 0
 548.923095703 506.93359375 618 429.158149369 618 278.93359375 c 0
 618 134.37697824 600.159179688 -15 600.159179688 -15 c 1
 425.830078125 0 l 1
 425.830078125 0 446 138.278031735 446 251.93359375 c 0
 446 322.389966388 425.405761719 362.93359375 367 362.93359375 c 0
 301.488235061 362.93359375 271.846785262 321.876464844 256 216.93359375 c 1
 183 253.93359375 l 1xb8
279.729492188 497.001953125 m 1xd8
 285.159179688 0 l 1
 108.830078125 0 l 1
 113.151367188 361.075195312 l 1
 10 359.071289062 l 1
 13.6201171875 497.001953125 l 1
 279.729492188 497.001953125 l 1xd8
EndSplineSet
EndChar

StartChar: I
Encoding: 41 73 17
Width: 468
Flags: W
HStem: 0 149<18.958 133.084 327.21 450.287> 573.08 157.931<23.748 136.279 324.135 440.857>
VStem: 133.084 194.126<149 574>
LayerCount: 2
Back
SplineSet
339.857421875 731.010742188 m 5
 345.287109375 0 l 5
 128.958007812 0 l 5
 133.279296875 560.083984375 l 5
 15.1279296875 558.080078125 l 5
 18.748046875 731.010742188 l 5
 339.857421875 731.010742188 l 5
EndSplineSet
Fore
SplineSet
440.857421875 731.010742188 m 1
 447.127929688 571 l 1
 324.134765625 574 l 1
 327.209960938 149 l 1
 453.26953125 153 l 1
 450.287109375 0 l 1
 18.9580078125 0 l 1
 15 151 l 1
 133.083984375 149 l 1
 136.279296875 575.083984375 l 1
 20.1279296875 573.080078125 l 1
 23.748046875 731.010742188 l 1
 440.857421875 731.010742188 l 1
EndSplineSet
EndChar

StartChar: c
Encoding: 67 99 18
Width: 471
Flags: W
HStem: -10.0664 145.75<236.701 409.129> 361.684 145.25<236.094 386.524>
VStem: 22.5 171.5<178.203 319.414>
LayerCount: 2
Back
SplineSet
20 249.93359375 m 0
 20 406.989257812 127.722105271 506.93359375 297 506.93359375 c 0
 415.535915516 506.93359375 465.916992188 450.782226562 465.916992188 450.782226562 c 1
 409.647460938 308.369140625 l 1
 409.647460938 308.369140625 373.776884975 346.93359375 318 346.93359375 c 4
 252.610710758 346.93359375 211 309.211914062 211 249.93359375 c 0
 211 180.822265625 247.426625003 154.52486356 323.040039062 139.244140625 c 0
 407.435563152 122.917258333 455.553710938 87 455.553710938 1.279296875 c 0
 455.553710938 -81.1748046875 404 -147 404 -147 c 1
 280 -97 l 1
 280 -97 295.76171875 -74 295.76171875 -54 c 0
 295.76171875 -29.5654296875 282.579369985 -17.3599949932 223.834960938 -5.6943359375 c 0
 112.853515625 16.3447265625 20 91.0439453125 20 249.93359375 c 0
EndSplineSet
Fore
SplineSet
22.5 249.93359375 m 0
 22.5 406.989257812 128.763773521 506.93359375 295.75 506.93359375 c 0
 411.654388176 506.93359375 460.916992188 453.282226562 460.916992188 453.282226562 c 1
 409.647460938 323.619140625 l 1
 409.647460938 323.619140625 371.330651359 361.68359375 311.75 361.68359375 c 0
 239.791226091 361.68359375 194 318.22588545 194 249.93359375 c 0
 194 180.113901368 235.276269531 135.68359375 316 135.68359375 c 0
 393.761648495 135.68359375 433.1484375 173.364257812 433.1484375 173.364257812 c 1
 470.146484375 31.56640625 l 1
 470.146484375 31.56640625 425.503474642 -10.06640625 287 -10.06640625 c 0
 125.360999438 -10.06640625 22.5 91.0439453125 22.5 249.93359375 c 0
EndSplineSet
EndChar

StartChar: equal
Encoding: 29 61 19
Width: 450
Flags: W
HStem: 174.5 126.25<175.394 414.5> 185.25 126.75<28.25 270.606> 353.5 136.25<137.192 421.5> 363.25 122.25<28.75 309.808>
LayerCount: 2
Fore
SplineSet
28.25 312 m 1x40
 417.75 300.75 l 1
 414.5 174.5 l 1x80
 25 185.25 l 1
 28.25 312 l 1x40
28.75 485.5 m 1x10
 424.75 489.75 l 1
 421.5 353.5 l 1x20
 25.5 363.25 l 1
 28.75 485.5 l 1x10
EndSplineSet
EndChar

StartChar: k
Encoding: 75 107 20
Width: 615
Flags: W
HStem: 0 21G<111.33 287.659> 494 20G<439.585 481.035> 619.075 135.927<13.6201 115.651>
VStem: 111.33 176.329<0 619.075>
LayerCount: 2
Fore
SplineSet
458.5 514 m 25
 578.5 407.5 l 25
 413.5 255 l 25
 600.5 97 l 25
 471 -17 l 25
 214.5 256 l 25
 458.5 514 l 25
282.229492188 755.001953125 m 1
 287.659179688 0 l 1
 111.330078125 0 l 1
 115.651367188 619.075195312 l 1
 10 617.071289062 l 1
 13.6201171875 755.001953125 l 1
 282.229492188 755.001953125 l 1
EndSplineSet
Substitution2: "'ss06' Style Set 6 lookup 14-1" k.ss06
EndChar

StartChar: m
Encoding: 77 109 21
Width: 953
Flags: W
HStem: 0 21G<108.83 285.159> 361.075 135.927<13.6201 113.151> 362.934 144<320.821 480.761 639.043 798.187>
VStem: 108.83 176.329<0 253.934> 433.5 172<-0.407705 386.826> 751 172<-1.73913 345.841>
LayerCount: 2
Fore
SplineSet
500.5 253.93359375 m 1xbc
 521.134521485 411.989257812 605.806152344 506.93359375 740.5 506.93359375 c 0
 860.745361328 506.93359375 923 439.391601562 923 308.93359375 c 0
 923 149.623046875 905.159179688 -15 905.159179688 -15 c 1
 730.830078125 0 l 1
 730.830078125 0 751 154.744140625 751 281.93359375 c 0
 751 333.347167969 733.012207031 362.93359375 682 362.93359375 c 0
 630.64453125 362.93359375 587.881835937 321.876464844 573.5 216.93359375 c 1
 500.5 253.93359375 l 1xbc
183 253.93359375 m 1
 203.419677734 411.989257812 287.209228516 506.93359375 420.5 506.93359375 c 0
 542.392578125 506.93359375 605.5 439.391601562 605.5 308.93359375 c 0
 605.5 154.541015625 592.659179688 -5 592.659179688 -5 c 1
 423.330078125 0 l 1
 423.330078125 0 433.5 156.116210938 433.5 284.43359375 c 0
 433.5 334.260253906 415.512207031 362.93359375 364.5 362.93359375 c 0
 313.14453125 362.93359375 270.381835937 321.876464844 256 216.93359375 c 1
 183 253.93359375 l 1
279.729492188 497.001953125 m 1xdc
 285.159179688 0 l 1
 108.830078125 0 l 1
 113.151367188 361.075195312 l 1
 10 359.071289062 l 1
 13.6201171875 497.001953125 l 1
 279.729492188 497.001953125 l 1xdc
EndSplineSet
EndChar

StartChar: hyphen
Encoding: 13 45 23
Width: 380
Flags: W
HStem: 182.5 157<124.957 361.25> 192.75 143.5<18.75 251.543>
LayerCount: 2
Fore
SplineSet
18.75 336.25 m 1x40
 364.75 339.5 l 1
 361.25 182.5 l 1x80
 15.25 192.75 l 1
 18.75 336.25 l 1x40
EndSplineSet
EndChar

StartChar: three
Encoding: 19 51 24
Width: 581
Flags: W
HStem: -10.0664 157.5<98.5861 325.18> 553.508 177.5<35 293.098>
VStem: 356.167 198.75<176.039 277.912>
LayerCount: 2
Fore
SplineSet
375.5 421 m 1
 379.930815255 421 395.364656114 419.305965405 415.15994762 412.999867341 c 0
 473.281604903 395.968404156 554.916992188 345.062774866 554.916992188 217.2421875 c 0
 554.916992188 68.3200124782 442.917098842 -10.06640625 266.916992188 -10.06640625 c 0
 88.7333751542 -10.06640625 13 34.0849609375 13 34.0849609375 c 1
 52.5 187.5 l 1
 52.5 187.5 129.568326262 147.43359375 236.916992188 147.43359375 c 0
 320.946181353 147.43359375 356.166992188 178.07843406 356.166992188 229.9921875 c 0
 356.166992188 274.711418269 319.96640368 305.4921875 248.416992188 305.4921875 c 0
 187.604115601 305.4921875 155.2578125 293.43359375 155.2578125 293.43359375 c 1
 129 394.5 l 1
 293.09765625 558.5078125 l 1
 25.75 553.5078125 l 1
 35 731.0078125 l 1
 524.016601562 731.0078125 l 1
 534.016601562 593.5078125 l 1
 375.5 421 l 1
EndSplineSet
Substitution2: "'onum' Oldstyle Figures lookup 27-1" three.osf
Substitution2: "'ss01' Style Set 1 lookup 9-1" three.ss01
Substitution2: "'frac' Diagonal Fractions in Latin lookup 26 subtable" three.numr
Substitution2: "'dnom' Denominators lookup 0 subtable" three.dnom
Substitution2: "'numr' Numerators lookup 0 subtable" three.numr
Substitution2: "'sinf' Scientific Inferiors lookup 0 subtable" three.inferior
Substitution2: "'sups' Superscript lookup 0 subtable" three.superior
EndChar

StartChar: eight
Encoding: 24 56 25
Width: 608
Flags: W
HStem: -10.0078 154.489<229.488 368.755> 588.656 150.336<245.431 369.788>
VStem: 25 178.311<168.96 279.418> 51.6787 176.871<483.496 570.549> 389.973 165.185<464.959 568.12> 391.943 191.985<167.722 261.405>
LayerCount: 2
Fore
SplineSet
299.500976562 144.481445312 m 0xe4
 356.825950812 144.481445312 391.943359375 170.828498018 391.943359375 213.836914062 c 0xe4
 391.943359375 256.075953618 360.83732002 279.67299121 267.001953125 311.603515625 c 0
 123.192186252 361.334671648 51.6787109375 428.084325341 51.6787109375 536 c 0
 51.6787109375 660.085723141 151.529188488 738.9921875 308.55078125 738.9921875 c 0
 459.674308962 738.9921875 555.157226562 669.31262037 555.157226562 543.611328125 c 0
 555.157226562 405.416451568 396.553710938 354.5 396.553710938 354.5 c 1
 295.579101562 408.884765625 l 1
 295.579101562 408.884765625 389.97265625 455.395463761 389.97265625 517.682617188 c 0
 389.97265625 561.818197712 358.986175527 588.65625 308.02734375 588.65625 c 0
 259.011454861 588.65625 228.549804688 564.068613947 228.549804688 524.504882812 c 0xd8
 228.549804688 489.002030834 253.125000849 471.737581603 333.245117188 449.46484375 c 0
 516.600700744 399.331562913 583.928710938 335.810437032 583.928710938 213.879882812 c 0
 583.928710938 74.3188818983 479.103061176 -10.0078125 305.616210938 -10.0078125 c 0
 137.085784143 -10.0078125 25 72.9892081907 25 197.782226562 c 0
 25 340.687958643 175.959960938 387.484375 175.959960938 387.484375 c 1
 282.620117188 325.784179688 l 1
 282.620117188 325.784179688 203.310546875 291.929032634 203.310546875 218.944335938 c 0
 203.310546875 173.852961969 241.252383192 144.481445312 299.500976562 144.481445312 c 0xe4
EndSplineSet
Substitution2: "'onum' Oldstyle Figures lookup 27-1" eight.osf
Substitution2: "'frac' Diagonal Fractions in Latin lookup 26 subtable" eight.numr
Substitution2: "'dnom' Denominators lookup 0 subtable" eight.dnom
Substitution2: "'numr' Numerators lookup 0 subtable" eight.numr
Substitution2: "'sinf' Scientific Inferiors lookup 0 subtable" eight.inferior
Substitution2: "'sups' Superscript lookup 0 subtable" eight.superior
EndChar

StartChar: g
Encoding: 71 103 26
Width: 607
Flags: W
HStem: -196.994 132.431<163.891 270.873> 27.4336 135.75<221.649 352.816> 370.184 136.75<221.649 351.588> 477.934 20G<396.351 560.771>
VStem: 22.5 164.25<199.849 332.837> 387.25 180.25<41.5263 413.697> 401.672 68.3281<42.7744 457.835>
LayerCount: 2
Back
SplineSet
382.270507812 -173.994140625 m 5
 387 496.93359375 l 5
 574.169921875 496.93359375 l 5xf8
 576.848632812 -23.0673828125 l 5
 672 -21.0634765625 l 5
 668.379882812 -173.994140625 l 5
 382.270507812 -173.994140625 l 5
EndSplineSet
Fore
SplineSet
387.25 265.93359375 m 0xec
 387.25 329.642153321 348.75037042 370.18359375 288.25 370.18359375 c 0
 226.221596458 370.18359375 186.75 329.836596681 186.75 266.43359375 c 0
 186.75 203.335794036 226.221596458 163.18359375 288.25 163.18359375 c 0
 348.75037042 163.18359375 387.25 203.141352388 387.25 265.93359375 c 0xec
470 285.68359375 m 0xea
 470 147.208423017 413.024224773 27.43359375 247.25 27.43359375 c 0
 109.902136017 27.43359375 22.5 120.086270937 22.5 265.68359375 c 0
 22.5 413.114854079 109.902136017 506.93359375 247.25 506.93359375 c 0
 383.375425901 506.93359375 470 420.89246536 470 285.68359375 c 0xea
567.5 83 m 0xdc
 567.5 -58 523.335865553 -180.994140625 163.890625 -196.994140625 c 1
 135.270507812 -64.5634765624 l 1
 346.066925177 -46.4006731249 401.671875 -11.3838286186 401.671875 96.9326171875 c 0xda
 401.671875 281 396.350585938 494.93359375 396.350585938 494.93359375 c 1
 560.770507812 497.93359375 l 1
 560.770507812 497.93359375 567.5 247 567.5 83 c 0xdc
EndSplineSet
Substitution2: "'ss05' Style Set 5 lookup 13-1" g.ss05
EndChar

StartChar: u
Encoding: 85 117 27
Width: 648
Flags: W
HStem: -9.93164 144<162.953 317.661> 0 135.927<537.849 634.38> 477.002 20G<48.5908 222.17 367.81 535.318>
VStem: 30 172<159.952 499.297> 368 167.17<213.068 497.002>
LayerCount: 2
Fore
SplineSet
363.270507812 0 m 1x78
 368 497.001953125 l 1
 535.169921875 497.001953125 l 1
 537.848632812 135.926757812 l 1
 638 137.930664062 l 1
 634.379882812 0 l 1
 363.270507812 0 l 1x78
450 213.068359375 m 1
 431.798319328 122 377.885569853 -9.931640625 222 -9.931640625 c 0
 99.9296875 -9.931640625 30 67.8438216743 30 222.551269531 c 0
 30 362.256116346 48.5908203125 511.251953125 48.5908203125 511.251953125 c 1
 222.169921875 497.751953125 l 1
 222.169921875 497.751953125 202 359.062367631 202 245.068359375 c 0
 202 174.611895894 222.59416044 134.068359375 281 134.068359375 c 0xb8
 339.561813186 134.068359375 369.615384615 171.890837717 377 250.068359375 c 1
 450 213.068359375 l 1
EndSplineSet
EndChar

StartChar: exclam
Encoding: 1 33 28
Width: 256
Flags: W
HStem: -10 202<61.2871 194.713> 244.635 486.365<58.7681 196.235>
VStem: 27 202<24.2871 157.713>
LayerCount: 2
Fore
SplineSet
25.75 731 m 1
 230.25 731 l 1
 196.25 236 l 1
 196.25 236 176.284246575 244.634765625 130 244.634765625 c 0
 83.4134615385 244.634765625 58.75 234 58.75 234 c 1
 25.75 731 l 1
27 91 m 0
 27 152.722620738 66.2773792614 192 128 192 c 0
 189.722620739 192 229 152.722620738 229 91 c 0
 229 29.2773792613 189.722620739 -10 128 -10 c 0
 66.2773792614 -10 27 29.2773792613 27 91 c 0
EndSplineSet
Substitution2: "'ss16' Style Set 16 lookup 26-1" exclam.ss16
EndChar

StartChar: r
Encoding: 82 114 29
Width: 493
Flags: W
HStem: 0 21G<108.83 285.159> 361.075 135.927<13.6201 113.151> 496.934 20G<393.14 430.783>
VStem: 108.83 176.329<0 274.607>
LayerCount: 2
Fore
SplineSet
422 516.93359375 m 1xb0
 490.068359375 361.926757812 l 1
 261.462890625 274.607421875 l 1
 215.669921875 373.947265625 l 1
 422 516.93359375 l 1xb0
279.729492188 497.001953125 m 1xd0
 285.159179688 0 l 1
 108.830078125 0 l 1
 113.151367188 361.075195312 l 1
 10 359.071289062 l 1
 13.6201171875 497.001953125 l 1
 279.729492188 497.001953125 l 1xd0
EndSplineSet
Substitution2: "'ss07' Style Set 7 lookup 15-1" r.ss07
EndChar

StartChar: f
Encoding: 70 102 30
Width: 433
Flags: W
HStem: 0 21G<103.335 278.637> 359.75 137.25<16.5 227.558> 480 20G<190 408.036>
VStem: 84.8691 173.533<495.01 616.185> 105.994 168.644<0 477.785>
LayerCount: 2
Fore
SplineSet
16.5 497 m 1xc0
 190 493 l 1
 408.5 500 l 1xa0
 405 349 l 1
 187 364.75 l 1
 12 359.75 l 1
 16.5 497 l 1xc0
105.984375 412.096679688 m 2
 105.990869516 413.106853374 105.994093078 414.107760843 105.994093078 415.099594475 c 0x88
 105.994093078 495.588727376 84.869140625 516.320443879 84.869140625 580 c 0
 84.869140625 711.412976765 183.497466618 767.86158329 357.01953125 797.84375 c 1
 380.9765625 660.374023438 l 1
 291.792149191 643.19367139 258.40234375 613.785995951 258.40234375 558.5 c 0x90
 258.40234375 516.574403487 273.859615307 477.78500479 274.637695312 399.96484375 c 2x88
 278.63671875 0 l 1
 103.334960938 0 l 1
 105.984375 412.096679688 l 2
EndSplineSet
EndChar

StartChar: one
Encoding: 17 49 32
Width: 364
Flags: W
HStem: 0 21G<134.83 328.659> 576.584 154.427<18.6201 139.151>
VStem: 134.83 193.829<0 576.584>
LayerCount: 2
Fore
SplineSet
323.229492188 731.010742188 m 1
 328.659179688 0 l 1
 134.830078125 0 l 1
 139.151367188 576.583984375 l 1
 15 574.580078125 l 1
 18.6201171875 731.010742188 l 1
 323.229492188 731.010742188 l 1
EndSplineSet
Substitution2: "'onum' Oldstyle Figures lookup 27-1" one.osf
Substitution2: "'frac' Diagonal Fractions in Latin lookup 26 subtable" one.numr
Substitution2: "'dnom' Denominators lookup 0 subtable" one.dnom
Substitution2: "'numr' Numerators lookup 0 subtable" one.numr
Substitution2: "'sinf' Scientific Inferiors lookup 0 subtable" one.inferior
Substitution2: "'sups' Superscript lookup 0 subtable" one.superior
EndChar

StartChar: zero
Encoding: 16 48 33
Width: 675
Flags: W
HStem: -10.0664 175.851<273.938 400.259> 563.083 175.851<273.938 400.259>
VStem: 22.5 184.237<243.229 482.856> 468.263 184.237<249.727 480.89>
LayerCount: 2
Fore
SplineSet
206.737304688 361.704101562 m 0
 206.737304688 241.975036641 257.276948263 165.784179688 336.697265625 165.784179688 c 0
 417.098703072 165.784179688 468.262695312 241.975036641 468.262695312 361.704101562 c 0
 468.262695312 484.769700086 417.098703072 563.083007812 336.697265625 563.083007812 c 0
 257.276948263 563.083007812 206.737304688 484.769700086 206.737304688 361.704101562 c 0
22.5 361.93359375 m 0
 22.5 592.322641811 144.805422771 738.93359375 337 738.93359375 c 0
 529.805953625 738.93359375 652.5 592.322641811 652.5 361.93359375 c 0
 652.5 134.599173678 529.805953625 -10.06640625 337 -10.06640625 c 0
 144.805422771 -10.06640625 22.5 134.599173678 22.5 361.93359375 c 0
EndSplineSet
Substitution2: "'onum' Oldstyle Figures lookup 27-1" zero.osf
Substitution2: "'frac' Diagonal Fractions in Latin lookup 26 subtable" zero.numr
Substitution2: "'dnom' Denominators lookup 0 subtable" zero.dnom
Substitution2: "'numr' Numerators lookup 0 subtable" zero.numr
Substitution2: "'sinf' Scientific Inferiors lookup 0 subtable" zero.inferior
Substitution2: "'sups' Superscript lookup 0 subtable" zero.superior
EndChar

StartChar: uni0237
Encoding: 424 567 35
Width: 325
Flags: W
HStem: 361.084 135.927<13.6201 113.151>
VStem: 108.83 176.329<20 361.084>
LayerCount: 2
Fore
SplineSet
279.729492188 497.010742188 m 1
 285.159179688 0 l 1
 164.5 -199 l 1
 3.5 -118 l 1
 108.830078125 20 l 1
 113.151367188 361.083984375 l 1
 10 359.080078125 l 1
 13.6201171875 497.010742188 l 1
 279.729492188 497.010742188 l 1
EndSplineSet
EndChar

StartChar: y
Encoding: 89 121 36
Width: 593
Flags: W
HStem: 491 20G<10 249.108 421.773 521.961>
LayerCount: 2
Fore
SplineSet
337.905273438 171.6328125 m 1
 324.5 42.5 l 1
 219.674804688 42.5 l 1
 120.151367188 366.25 l 1
 17.0458984375 358 l 1
 10 497 l 1
 243.546875 511 l 1
 337.905273438 171.6328125 l 1
285.333984375 79.5161132812 m 2
 428.404296875 511 l 1
 587.450195312 477 l 1
 429.107421875 50 l 2
 365.55455455 -121.384979981 289 -225 289 -225 c 1
 139 -148.994140625 l 1
 139 -148.994140625 258.168569306 -1.7879734567 285.333984375 79.5161132812 c 2
EndSplineSet
Substitution2: "'ss08' Style Set 8 lookup 16-1" y.ss08
EndChar

StartChar: x
Encoding: 88 120 37
Width: 571
Flags: W
HStem: 494 20G<126.192 234.791 399.4 444.878>
LayerCount: 2
Fore
SplineSet
413.442138672 514 m 1
 561.192138672 420 l 1
 420.192138672 255.5 l 1
 576.192138672 85.5 l 1
 429.692138672 -17 l 1
 231.942138672 255.5 l 1
 413.442138672 514 l 1
134.834716797 356.638671875 m 1
 29.8728027343 331.72265625 l 1
 3.42358398438 468.0859375 l 1
 220.942138672 514 l 1
 399.942138672 255.5 l 1
 202.192138672 -17 l 1
 55.6921386719 85.5 l 1
 211.692138672 255.5 l 1
 134.834716797 356.638671875 l 1
EndSplineSet
EndChar

StartChar: S
Encoding: 51 83 38
Width: 487
Flags: W
HStem: 718.393 20G<372.94 376.367>
VStem: 25 214.769<475.575 544.797> 245.621 216.715<199.693 281.304>
LayerCount: 2
Fore
SplineSet
372.940429688 738.392578125 m 1
 399.291015625 584.592773438 l 1
 399.291015625 584.592773438 239.768554687 571.736459565 239.768554688 511.93359375 c 0
 239.768554688 486.307009533 256.141327879 468.21968188 341.784179688 427.900390625 c 0
 430.93468115 385.906575804 462.3359375 331.106288741 462.3359375 246.044921875 c 0
 462.3359375 -14.1177997191 77.4423828125 -19.8779296875 77.4423828125 -19.8779296875 c 1
 54.220703125 149.182617188 l 1
 54.220703125 149.182617188 245.62109375 158.374416595 245.62109375 241 c 0
 245.62109375 266.54269067 232.825956067 283.85819431 176.401367188 310.155273438 c 0
 50.2949218749 372.106476138 25 420.827977706 25 505.854980469 c 0
 25 732.150297239 372.940429688 738.392578125 372.940429688 738.392578125 c 1
EndSplineSet
EndChar

StartChar: v
Encoding: 86 118 39
Width: 593
Flags: W
HStem: 0 21G<235.511 417.064> 491 20G<10 249.534 422.343 521.961>
LayerCount: 2
Fore
SplineSet
409.607421875 0 m 1
 242.174804688 0 l 1
 120.151367188 366.25 l 1
 17.0458984375 358 l 1
 10 497 l 1
 243.546875 511 l 1
 335.405273438 204.1328125 l 1
 428.404296875 511 l 1
 587.450195312 477 l 1
 409.607421875 0 l 1
EndSplineSet
EndChar

StartChar: w
Encoding: 87 119 40
Width: 862
Flags: W
HStem: 0 21G<227.948 412.76 534.631 710.5> 491 20G<10 249.408 423.646 524.931 701.177 796.549>
LayerCount: 2
Fore
SplineSet
405.107421875 0 m 1
 234.174804688 0 l 1
 120.151367188 366.25 l 1
 17.0458984375 358 l 1
 10 497 l 1
 243.546875 511 l 1
 332.155273438 208.6328125 l 1
 429.904296875 521 l 1
 591.450195312 487 l 1
 405.107421875 0 l 1
703.857421875 0 m 1
 542.174804688 0 l 1
 409.401367188 352 l 1
 530 453 l 1
 615.905273438 207.1328125 l 1
 707.404296875 501 l 1
 858.950195312 467 l 1
 703.857421875 0 l 1
EndSplineSet
EndChar

StartChar: six
Encoding: 22 54 41
Width: 619
Flags: W
HStem: -10 156.108<252.451 379.353> 348.259 136.968<251.137 380.453> 584.033 164.959<388.249 496.71>
VStem: 25 192.875<182.858 417.59> 414.375 179.691<180.585 314.484>
LayerCount: 2
Back
SplineSet
498.310546875 748.9921875 m 1
 512 637.533203125 l 1
 175.065365254 610.146952891 170.458007812 416.932617188 170.458007812 416.932617188 c 1
 170.458007812 416.932617188 215.209080523 483.7265625 336.600585938 483.7265625 c 0
 472.674581172 483.7265625 572.31640625 388.819152798 572.31640625 245.249023438 c 0
 572.31640625 100.798835154 490.925518401 -10 316.310546875 -10 c 0
 170.896357089 -10 45 80.6409024463 45 300.348632812 c 4
 45 516.020480109 153.586977651 728.185507446 498.310546875 748.9921875 c 1
176.375 242.858398438 m 0
 176.375 154.857510653 229.905346038 98.8583984375 314.025390625 98.8583984375 c 0
 398.725511696 98.8583984375 452.625 154.857510653 452.625 242.858398438 c 0
 452.625 329.728081597 398.725511696 385.008789062 314.025390625 385.008789062 c 0
 229.905346038 385.008789062 176.375 329.728081597 176.375 242.858398438 c 0
EndSplineSet
Fore
SplineSet
495.810546875 748.9921875 m 1
 517 584.033203125 l 1
 241.30443401 562.76114163 231.208007812 452.182617188 231.208007812 452.182617188 c 1
 231.208007812 452.182617188 267.81113937 485.2265625 367.100585938 485.2265625 c 0
 505.397511928 485.2265625 594.06640625 392.706985465 594.06640625 252.749023438 c 0
 594.06640625 106.554445117 516.738868748 -10 316.310546875 -10 c 0
 141.858205364 -10 25 84.8932717406 25 306.348632812 c 0
 25 519.13616121 137.778965068 728.463768616 495.810546875 748.9921875 c 1
217.875 248.108398438 m 0
 217.875 185.774436257 256.044338642 146.108398438 316.025390625 146.108398438 c 0
 376.12818499 146.108398438 414.375 185.774436257 414.375 248.108398438 c 0
 414.375 309.311414931 376.12818499 348.258789062 316.025390625 348.258789062 c 0
 256.044338642 348.258789062 217.875 309.311414931 217.875 248.108398438 c 0
EndSplineSet
Substitution2: "'onum' Oldstyle Figures lookup 27-1" six.osf
Substitution2: "'frac' Diagonal Fractions in Latin lookup 26 subtable" six.numr
Substitution2: "'dnom' Denominators lookup 0 subtable" six.dnom
Substitution2: "'numr' Numerators lookup 0 subtable" six.numr
Substitution2: "'sinf' Scientific Inferiors lookup 0 subtable" six.inferior
Substitution2: "'sups' Superscript lookup 0 subtable" six.superior
EndChar

StartChar: z
Encoding: 90 122 42
Width: 461
Flags: W
HStem: 0 148.25<239.919 427.017> 352 145<34 211.598>
LayerCount: 2
Fore
SplineSet
25 352 m 1
 34 497 l 1
 396.516601562 497 l 1
 426.016601562 382.25 l 1
 239.918945312 148.25 l 1
 436.016601562 153.5 l 1
 427.016601562 0 l 1
 43.5 0 l 1
 17 112.25 l 1
 211.59765625 357.25 l 1
 25 352 l 1
EndSplineSet
EndChar

StartChar: O
Encoding: 47 79 43
Width: 785
Flags: W
HStem: -10.0664 184.601<306.335 471.49> 554.333 184.601<306.335 471.49>
VStem: 25 195.487<262.5 463.241> 564.513 195.487<269.203 456.417>
LayerCount: 2
Back
SplineSet
295.487304688 361.704101562 m 0
 295.487304688 247.780273438 320.957605563 175.284179688 376.697265625 175.284179688 c 0
 439.529183996 175.284179688 469.512695312 247.780273438 469.512695312 361.704101562 c 0
 469.512695312 478.963867188 439.529183996 553.583007812 376.697265625 553.583007812 c 0
 320.957605563 553.583007812 295.487304688 478.963867188 295.487304688 361.704101562 c 0
90 361.93359375 m 0
 90 592.322265625 195.499874605 738.93359375 377 738.93359375 c 0
 565.222610829 738.93359375 675 592.322265625 675 361.93359375 c 0
 675 134.599609375 565.222610829 -10.06640625 377 -10.06640625 c 0
 195.499874605 -10.06640625 90 134.599609375 90 361.93359375 c 0
EndSplineSet
Fore
SplineSet
220.487304688 361.704101562 m 0
 220.487304688 246.630897691 288.735088808 174.534179688 386.697265625 174.534179688 c 0
 491.789750278 174.534179688 564.512695312 246.630897691 564.512695312 361.704101562 c 0
 564.512695312 480.111762594 491.789750278 554.333007812 386.697265625 554.333007812 c 0
 288.735088808 554.333007812 220.487304688 480.111762594 220.487304688 361.704101562 c 0
25 361.93359375 m 0
 25 592.322641811 165.77762494 738.93359375 387 738.93359375 c 0
 614.944915062 738.93359375 760 592.322641811 760 361.93359375 c 0
 760 134.599173678 614.944915062 -10.06640625 387 -10.06640625 c 0
 165.77762494 -10.06640625 25 134.599173678 25 361.93359375 c 0
EndSplineSet
EndChar

StartChar: L
Encoding: 44 76 44
Width: 620
Flags: W
HStem: 0 156.293<324.065 604.039> 575.084 155.927<16.1201 133.151>
VStem: 128.43 195.635<156.293 575.084>
LayerCount: 2
Fore
SplineSet
324.064709572 156.292791593 m 1
 607.659179688 157.930664062 l 1
 604.0390625 0 l 1
 128.4296875 0 l 1
 133.151367188 575.083984375 l 1
 12.5 573.080078125 l 1
 16.1201171875 731.010742188 l 1
 319.729492188 731.009941406 l 1
 324.064709572 156.292791593 l 1
EndSplineSet
EndChar

StartChar: K
Encoding: 43 75 45
Width: 757
Flags: W
HStem: 0 21G<128.83 325.159> 575.084 155.927<13.6201 133.151>
VStem: 128.83 196.329<0 575.084>
LayerCount: 2
Fore
SplineSet
319.729492188 731.010742188 m 1
 325.159179688 0 l 1
 128.830078125 0 l 1
 133.151367188 575.083984375 l 1
 10 573.080078125 l 1
 13.6201171875 731.010742188 l 1
 319.729492188 731.010742188 l 1
550.5 745.0078125 m 1
 714.5 631.0078125 l 1
 479.75 362.75 l 1
 739.5 98 l 1
 570.5 -27 l 1
 255.25 362.75 l 1
 550.5 745.0078125 l 1
EndSplineSet
EndChar

StartChar: J
Encoding: 42 74 46
Width: 370
Flags: W
HStem: 575.084 155.927<18.6201 138.151>
VStem: 133.83 196.329<67.5 575.084>
LayerCount: 2
Fore
SplineSet
324.729492188 731.010742188 m 1
 330.159179688 30 l 1
 180.5 -194.5 l 1
 5 -102.5 l 1
 133.830078125 67.5 l 1
 138.151367188 575.083984375 l 1
 15 573.080078125 l 1
 18.6201171875 731.010742188 l 1
 324.729492188 731.010742188 l 1
EndSplineSet
Substitution2: "'ss12' Style Set 12 lookup 20-1" J.ss12
EndChar

StartChar: H
Encoding: 40 72 47
Width: 780
Flags: W
HStem: 0 21G<128.83 325.159 543.83 740.159> 255 157<374.273 604> 266 142<247 472.727> 575.084 155.927<18.6201 133.151 433.62 548.151>
VStem: 128.83 196.329<0 266 408 575.084> 243 82.1592<266 408> 543.83 196.329<0 255 412 575.084>
LayerCount: 2
Back
SplineSet
252 393 m 1xb6
 608 397 l 1
 604 285 l 1xd6
 248 296 l 1
 252 393 l 1xb6
704.729492188 731.010742188 m 1
 710.159179688 0 l 1
 573.830078125 0 l 1
 578.151367188 620.083984375 l 1
 440 618.080078125 l 5
 443.620117188 731.010742188 l 5
 704.729492188 731.010742188 l 1
294.729492188 731.010742188 m 1
 300.159179688 0 l 1
 163.830078125 0 l 1x9a
 168.151367188 620.083984375 l 1
 30 618.080078125 l 5
 33.6201171875 731.010742188 l 5
 294.729492188 731.010742188 l 1
EndSplineSet
Fore
SplineSet
247 408 m 1xb6
 608 412 l 1
 604 255 l 1xd6
 243 266 l 1
 247 408 l 1xb6
734.729492188 731.010742188 m 1
 740.159179688 0 l 1
 543.830078125 0 l 1
 548.151367188 575.083984375 l 1
 430 573.080078125 l 1
 433.620117188 731.010742188 l 1
 734.729492188 731.010742188 l 1
319.729492188 731.010742188 m 1
 325.159179688 0 l 1
 128.830078125 0 l 1x9a
 133.151367188 575.083984375 l 1
 15 573.080078125 l 1
 18.6201171875 731.010742188 l 1
 319.729492188 731.010742188 l 1
EndSplineSet
EndChar

StartChar: backslash
Encoding: 60 92 48
Width: 497
Flags: W
LayerCount: 2
Back
SplineSet
506 -123.994140625 m 1
 317 -175.994140625 l 1
 178.016601562 331 l 1
 1 763.001953125 l 1
 190 815.001953125 l 1
 308.362304688 379 l 1
 506 -123.994140625 l 1
EndSplineSet
Fore
SplineSet
486 -126.494140625 m 1
 327 -173.494140625 l 1
 11 765.501953125 l 1
 170 812.501953125 l 1
 486 -126.494140625 l 1
EndSplineSet
EndChar

StartChar: F
Encoding: 38 70 49
Width: 620
Flags: W
HStem: 0 21G<128.83 325.159> 242.5 157<305.878 549> 252.75 143.5<197 436.122> 573.08 157.931<18.6201 133.151 321.104 593.729>
VStem: 193 132.159<252.75 396.25>
LayerCount: 2
Fore
SplineSet
197 396.25 m 1xb8
 553 399.5 l 1
 549 242.5 l 1xd8
 193 252.75 l 1
 197 396.25 l 1xb8
593.729492188 731.010742188 m 1
 599.61328125 569 l 1
 321.103515625 573 l 1
 325.159179688 0 l 1
 128.830078125 0 l 1
 133.151367188 575.083984375 l 1
 15 573.080078125 l 1
 18.6201171875 731.010742188 l 1
 593.729492188 731.010742188 l 1
EndSplineSet
EndChar

StartChar: E
Encoding: 37 69 50
Width: 620
Flags: W
HStem: 0 156.481<324.017 601.539> 285.5 157<305.878 549> 295.75 143.5<197 436.122> 573.08 157.931<18.6201 133.151 321.104 593.729>
VStem: 193 131.017<295.75 439.25>
LayerCount: 2
Fore
SplineSet
197 439.25 m 1xb8
 553 442.5 l 1
 549 285.5 l 1xd8
 193 295.75 l 1
 197 439.25 l 1xb8
593.729492188 731.010742188 m 1
 599.61328125 569 l 1
 321.103515625 573 l 1
 324.017335716 156.480771122 l 1
 334.064709572 156.292791593 l 1
 605.159179688 157.930664062 l 1
 601.5390625 0 l 1
 128.4296875 0 l 1
 133.151367188 575.083984375 l 1
 15 573.080078125 l 1
 18.6201171875 731.010742188 l 1
 593.729492188 731.010742188 l 1
EndSplineSet
Substitution2: "'ss15' Style Set 15 lookup 23-1" E.ss15
EndChar

StartChar: N
Encoding: 46 78 51
Width: 790
Flags: W
HStem: -10 21G<561.298 750.539> 0 21G<132.71 319.039> 711.011 20G<571.807 745.258>
VStem: 132.71 186.329<0 389.293> 568.151 182.388<332.389 731.011>
LayerCount: 2
Fore
SplineSet
745.109375 731.010742188 m 1x78
 750.5390625 0 l 1x78
 574.209960938 -10 l 1xb8
 316.42578125 389.29296875 l 1
 319.0390625 0 l 1
 132.709960938 0 l 1
 137.03125 579.083984375 l 1
 19.3798828125 573.080078125 l 1
 15 731.010742188 l 1
 333.609375 741.010742188 l 1
 568.151367188 332.388671875 l 1
 572 731.010742188 l 1
 745.109375 731.010742188 l 1x78
EndSplineSet
EndChar

StartChar: bar
Encoding: 92 124 52
Width: 246
Flags: W
VStem: 40 166.329<-170 788.992>
LayerCount: 2
Back
SplineSet
220.899414062 788.9921875 m 1
 193.418945312 334 l 1
 226.329101562 -170 l 1
 30 -170 l 1
 63.3330078125 338 l 1
 36.169921875 788.9921875 l 1
 220.899414062 788.9921875 l 1
EndSplineSet
Fore
SplineSet
200.899414062 788.9921875 m 1
 206.329101562 -170 l 1
 40 -170 l 1
 46.169921875 788.9921875 l 1
 200.899414062 788.9921875 l 1
EndSplineSet
EndChar

StartChar: U
Encoding: 53 85 53
Width: 767
Flags: W
HStem: -10 167<358.657 499.342> 575.084 155.927<18.6201 140.151 419.12 534.651>
VStem: 128.517 188.643<199.89 572.874> 543.33 186.812<202.967 571.626>
LayerCount: 2
Fore
SplineSet
730.141601562 270.946289062 m 0
 730.141601562 85.0810974474 617.442917249 -10 428.830078125 -10 c 0
 233.108934684 -10 128.516601562 84.5172625506 128.516601562 290.099609375 c 0
 128.516601562 401.347012295 140.151367188 575.083984375 140.151367188 575.083984375 c 1
 15 573.080078125 l 1
 18.6201171875 731.010742188 l 1
 325.729492188 731.010742188 l 1
 325.729492188 731.010742188 317.159179688 403.488572129 317.159179688 289 c 0
 317.159179688 210.378342848 346.451042806 157 430 157 c 0
 509.018369504 157 543.330078125 204.99154898 543.330078125 289 c 0
 543.330078125 399.587908704 534.651367188 575.083984375 534.651367188 575.083984375 c 1
 415.5 573.080078125 l 1
 419.120117188 731.010742188 l 1
 717.229492188 731.010742188 l 1
 717.229492188 731.010742188 730.141601562 450.456085293 730.141601562 270.946289062 c 0
EndSplineSet
EndChar

StartChar: A
Encoding: 33 65 54
Width: 670
Flags: W
HStem: 130.5 157.75<260.878 504> 140.75 146<152 391.122> 546.569 174.431<50.8193 190.008> 711 20G<46.4395 440.242>
LayerCount: 2
Fore
SplineSet
152 286.75 m 1x40
 508 288.25 l 1
 504 130.5 l 1x80
 148 140.75 l 1
 152 286.75 l 1x40
190.0078125 551.612304688 m 1
 50.8193359375 546.569335938 l 1
 46.439453125 721 l 1x20
 433.548828125 731 l 1x10
 673.450195312 14.1611328125 l 1
 483.926757812 -15 l 1
 336.818359375 501.8671875 l 1
 183.069335938 -15 l 1
 -4.7265625 18.25 l 1
 190.0078125 551.612304688 l 1
EndSplineSet
Substitution2: "'fina' Terminal Forms lookup 25-1" A.fina
Substitution2: "'init' Initial Forms lookup 24-1" A.init
Substitution2: "'ss14' Style Set 14 lookup 22-1" A.ss14
EndChar

StartChar: B
Encoding: 34 66 55
Width: 739
Flags: W
HStem: -10.0664 157.25<319.584 497.891> 307.242 124.941<318.599 467.344> 574.742 164.25<322.817 466.043> 574.742 27.0078<186.228 315.67>
VStem: 128 189.714<152.246 298.684 438.627 601.75> 490.417 187<455.902 552.335> 526.917 190.5<177.078 277.487>
LayerCount: 2
Fore
SplineSet
277.446289062 438.626953125 m 1xda
 277.446289062 438.626953125 308.985041509 432.18359375 387.916992188 432.18359375 c 0
 460.012329101 432.18359375 490.416992188 462.198167704 490.416992188 501.93359375 c 0
 490.416992188 549.441694781 455.369800609 574.7421875 380.916992188 574.7421875 c 0
 186.22753011 574.7421875 44.26953125 490.177734375 44.26953125 490.177734375 c 1
 3 664.840820312 l 1
 3 664.840820312 117.506751184 738.9921875 386.916992188 738.9921875 c 0
 564.444877547 738.9921875 677.416992188 654.581054688 677.416992188 521.93359375 c 0xec
 677.416992188 411.875997786 581.275390625 382.96875 581.275390625 382.96875 c 1
 581.275390625 382.96875 717.416992188 352.820311363 717.416992188 196.9921875 c 0
 717.416992188 70.4560546875 604.444877547 -10.06640625 426.916992188 -10.06640625 c 0
 217.155091647 -10.06640625 128 24.0849609375 128 24.0849609375 c 1
 133.940429688 601.75 l 1
 315.669921875 601.75 l 1
 317.713867188 152.24609375 l 1
 317.713867188 152.24609375 337.450056905 147.18359375 402.416992188 147.18359375 c 0
 486.046112916 147.18359375 526.916992188 175.889317181 526.916992188 226.4921875 c 0
 526.916992188 270.9046875 495.378573472 307.2421875 403.5 307.2421875 c 0
 311.764020008 307.2421875 277.5078125 298.68359375 277.5078125 298.68359375 c 1
 277.446289062 438.626953125 l 1xda
EndSplineSet
EndChar

StartChar: C
Encoding: 35 67 56
Width: 651
Flags: W
HStem: -10.0664 183<325.745 547.415> 500.678 21G<587.147 594.396> 558.492 180.5<333.756 527.263>
VStem: 25 210.5<262.289 457.374>
LayerCount: 2
Fore
SplineSet
25 361.93359375 m 0
 25 592.358449127 169.666509607 738.9921875 397 738.9921875 c 0
 571.675165443 738.9921875 645.916992188 662.840820312 645.916992188 662.840820312 c 1
 587.147460938 500.677734375 l 1
 587.147460938 500.677734375 525.640356679 558.4921875 430 558.4921875 c 0
 311.138161145 558.4921875 235.5 482.053833756 235.5 361.93359375 c 0
 235.5 246.433183592 298.936889648 172.93359375 423 172.93359375 c 0
 549.881910886 172.93359375 614.1484375 231.864257812 614.1484375 231.864257812 c 1
 661.146484375 54.81640625 l 1
 661.146484375 54.81640625 594.321700857 -10.06640625 387 -10.06640625 c 0
 165.77762494 -10.06640625 25 134.599173678 25 361.93359375 c 0
EndSplineSet
EndChar

StartChar: D
Encoding: 36 68 57
Width: 783
Flags: W
HStem: -10.0664 177.75<319.027 478.312> 558.742 180.25<323.635 477.992> 558.742 50.5078<173.88 315.67>
VStem: 133.94 181.729<171.347 609.25> 568.417 193<260.914 464.305>
LayerCount: 2
Fore
SplineSet
761.416992188 361.93359375 m 0xd8
 761.416992188 134.599609375 619.667324546 -10.06640625 396.916992188 -10.06640625 c 0
 193.376881846 -10.06640625 127.770507812 37.31640625 127.770507812 37.31640625 c 1
 133.940429688 609.25 l 1
 315.669921875 609.25 l 1xb8
 319.002929688 171.346679688 l 1
 319.002929688 171.346679688 346.540808408 167.68359375 382.416992188 167.68359375 c 0
 505.487712618 167.68359375 568.416992188 243.224296875 568.416992188 361.93359375 c 0
 568.416992188 482.206471617 505.059167849 558.7421875 375.416992188 558.7421875 c 0
 173.880105726 558.7421875 44.26953125 490.177734375 44.26953125 490.177734375 c 1
 3 664.840820312 l 1
 3 664.840820312 117.506751184 738.9921875 386.916992188 738.9921875 c 0
 615.77865692 738.9921875 761.416992188 592.358398438 761.416992188 361.93359375 c 0xd8
EndSplineSet
EndChar

StartChar: P
Encoding: 48 80 58
Width: 721
Flags: W
HStem: 0 21G<127.771 319.003> 184.934 160<318.75 471.724> 561.742 177.25<324.371 465.852> 561.742 47.5078<197.777 315.67>
VStem: 127.771 191.232<0 229.434 375.877 609.25> 511.417 188<382.85 520.526>
LayerCount: 2
Fore
SplineSet
319.002929688 0 m 1xdc
 127.770507812 0 l 1
 133.940429688 609.25 l 1
 315.669921875 609.25 l 1
 319.002929688 0 l 1xdc
279.196289062 375.876953125 m 1
 279.196289062 375.876953125 310.615473126 344.93359375 391.916992188 344.93359375 c 0
 470.240883881 344.93359375 511.416992188 385.657761595 511.416992188 451.43359375 c 0
 511.416992188 525.294861121 467.318450679 561.7421875 369.916992188 561.7421875 c 0
 197.777321218 561.7421875 44.51953125 490.177734375 44.51953125 490.177734375 c 1
 3.25 664.840820312 l 1
 3.25 664.840820312 117.6821864 738.9921875 386.916992188 738.9921875 c 0xec
 579.707674541 738.9921875 699.416992188 632.491137762 699.416992188 446.43359375 c 0
 699.416992188 287.837504069 595.26122159 184.93359375 426.916992188 184.93359375 c 0
 316.649600308 184.93359375 250.2578125 229.43359375 250.2578125 229.43359375 c 1
 279.196289062 375.876953125 l 1
EndSplineSet
EndChar

StartChar: M
Encoding: 45 77 59
Width: 877
VWidth: 1111
Flags: W
LayerCount: 2
Back
SplineSet
198.817382812 545.212890625 m 1
 93 539.080078125 l 1
 88.6201171875 731.010742188 l 1
 430.729492188 741.010742188 l 1
 483 547 l 1
 552 740 l 1
 766 731 l 1
 825 5 l 1
 613 -9 l 1
 584 361 l 5
 486 160 l 5
 390 352 l 5
 356 -6 l 1
 155 9 l 1
 198.817382812 545.212890625 l 1
EndSplineSet
Fore
SplineSet
138.817457035 565.212936633 m 1
 18 559.080078125 l 1
 13.6201171875 731.010742188 l 1
 360.729492188 741.010742188 l 1
 477 469.5 l 1
 617.5 740 l 1
 811.5 731 l 1
 870.5 5 l 1
 671 -9 l 1
 642 428.5 l 1
 470 127.5 l 1
 310 419.5 l 1
 273.5 -6 l 1
 92.5 9 l 1
 138.817457035 565.212936633 l 1
EndSplineSet
Substitution2: "'fina' Terminal Forms lookup 25-1" M.fina
Substitution2: "'init' Initial Forms lookup 24-1" M.init
EndChar

StartChar: G
Encoding: 39 71 60
Width: 794
Flags: W
HStem: -10.0664 186<321.875 496.151> 241.319 157.931<694.565 775.097> 499.428 21G<604.647 611.534> 557.242 181.75<332.513 535.675>
VStem: 25 210.5<261.827 462.591> 511.058 187.829<137.316 243.323>
LayerCount: 2
Fore
SplineSet
516.487304688 399.25 m 1
 775.096679688 399.25 l 1
 778.716796875 241.319335938 l 1
 694.565429688 243.323242188 l 1
 698.88671875 -87.7607421875 l 1
 511.057617188 -87.7607421875 l 1
 516.487304688 399.25 l 1
25 361.93359375 m 0
 25 592.358449127 169.666509607 738.9921875 397 738.9921875 c 0
 582.201274804 738.9921875 660.916992188 662.840820312 660.916992188 662.840820312 c 1
 604.647460938 499.427734375 l 1
 604.647460938 499.427734375 534.333915662 557.2421875 425 557.2421875 c 0
 309.193735408 557.2421875 235.5 482.456587763 235.5 364.93359375 c 0
 235.5 249.433183592 297.245239258 175.93359375 418 175.93359375 c 0
 528.287227646 175.93359375 584.1484375 245.364257812 584.1484375 245.364257812 c 1
 646.146484375 137.31640625 l 1
 646.146484375 137.31640625 578.712311467 -10.06640625 369.5 -10.06640625 c 0
 158.972076772 -10.06640625 25 134.599173678 25 361.93359375 c 0
EndSplineSet
Substitution2: "'ss11' Style Set 11 lookup 19-1" G.ss11
EndChar

StartChar: T
Encoding: 52 84 61
Width: 590
Flags: W
HStem: 0 21G<191.83 388.159> 573 30<196.151 384.104> 573.08 157.931<16.1201 196.151 384.104 566.229>
VStem: 191.83 196.329<0 603>
LayerCount: 2
Fore
SplineSet
384.103515625 603 m 1xd0
 388.159179688 0 l 1
 191.830078125 0 l 1
 196.151367188 605.083984375 l 1
 384.103515625 603 l 1xd0
292.103515625 573 m 1
 12.5 573.080078125 l 1
 16.1201171875 731.010742188 l 1
 566.229492188 731.010742188 l 1xb0
 572.11328125 569 l 1
 292.103515625 573 l 1
EndSplineSet
EndChar

StartChar: V
Encoding: 54 86 62
Width: 774
Flags: W
HStem: 0 21G<315.519 516.124>
LayerCount: 2
Fore
SplineSet
508.607421875 0 m 1
 321.674804688 0 l 1
 145.151367188 573.5 l 1
 22.0458984375 565.5 l 1
 15 732 l 1
 288.546875 746 l 1
 428.905273438 249.1328125 l 1
 580.654296875 746 l 1
 776.200195312 712 l 1
 508.607421875 0 l 1
EndSplineSet
Substitution2: "'fina' Terminal Forms lookup 25-1" V.fina
Substitution2: "'init' Initial Forms lookup 24-1" V.init
EndChar

StartChar: W
Encoding: 55 87 63
Width: 1134
Flags: W
HStem: 0 21G<301.766 509.191 699.757 908.055> 716 20G<935.495 1055.93>
LayerCount: 2
Fore
SplineSet
501.857421875 0 m 1
 307.424804688 0 l 1
 145.151367188 573.5 l 1
 22.0458984375 565.5 l 1
 15 732 l 1
 288.546875 746 l 1
 422.155273438 234.1328125 l 1
 568.904296875 759 l 1
 767.700195312 725 l 1
 501.857421875 0 l 1
901.357421875 0 m 1
 706.924804688 0 l 1
 551.75 433 l 1
 678.895507812 623 l 1
 805.155273438 234.1328125 l 1
 940.904296875 736 l 1
 1136.45019531 702 l 1
 901.357421875 0 l 1
EndSplineSet
Substitution2: "'fina' Terminal Forms lookup 25-1" W.fina
Substitution2: "'init' Initial Forms lookup 24-1" W.init
EndChar

StartChar: Q
Encoding: 49 81 64
Width: 785
Flags: W
HStem: -10.0664 184.601<306.335 471.49> 554.333 184.601<306.335 471.49>
VStem: 25 195.487<262.5 463.241> 564.513 195.487<269.203 456.417>
LayerCount: 2
Fore
SplineSet
106.75 165.25 m 1
 815.75 9.75 l 1
 770 -169 l 1
 69 31.5 l 1
 106.75 165.25 l 1
EndSplineSet
Refer: 43 79 N 1 0 0 1 0 0 2
Substitution2: "'ss10' Style Set 10 lookup 18-1" Q.ss10
EndChar

StartChar: underscore
Encoding: 63 95 65
Width: 580
Flags: W
HStem: -136.5 140.5<158.934 561.25> -127 127<18.75 417.566>
LayerCount: 2
Fore
SplineSet
18.75 0 m 1x40
 564.75 4 l 1
 561.25 -136.5 l 1x80
 15.25 -127 l 1
 18.75 0 l 1x40
EndSplineSet
EndChar

StartChar: R
Encoding: 50 82 66
Width: 729
Flags: W
HStem: 0 21G<125.271 316.503> 565.492 173.5<321.061 459.217> 565.492 51.2578<224.304 313.17>
VStem: 125.271 191.232<0 262.184 385.877 616.75> 501.667 192.25<404.029 525.235>
LayerCount: 2
Back
SplineSet
289.002929688 0 m 5xb8
 157.770507812 0 l 5
 163.940429688 669.25 l 1
 285.669921875 669.25 l 1
 289.002929688 0 l 5xb8
274.196289062 355.876953125 m 1
 274.196289062 355.876953125 298.311785784 334.93359375 373.916992188 334.93359375 c 0
 487.119605202 334.93359375 551.916992188 395.921142577 551.916992188 475.93359375 c 0
 551.916992188 563.722489841 489.063645233 617.9921875 353 617.9921875 c 0
 219.214256452 617.9921875 49.26953125 556.427734375 49.26953125 556.427734375 c 1
 18 674.840820312 l 1
 18 674.840820312 122.067681352 738.9921875 366.916992188 738.9921875 c 0xd8
 557.583984375 738.9921875 678.916992188 638.247073955 678.916992188 479.93359375 c 0
 678.916992188 277.943443494 474.740234375 245.040039062 474.740234375 245.040039062 c 1
 701.770507812 69 l 1
 625.770507812 -37 l 1
 235.2578125 285.43359375 l 1
 274.196289062 355.876953125 l 1
EndSplineSet
Fore
SplineSet
316.502929688 0 m 1xb8
 125.270507812 0 l 1
 131.440429688 616.75 l 1
 313.169921875 616.75 l 1
 316.502929688 0 l 1xb8
279.196289062 385.876953125 m 1
 279.196289062 385.876953125 304.460480146 364.93359375 383.666992188 364.93359375 c 0
 458.71142104 364.93359375 501.666992188 407.754638671 501.666992188 463.93359375 c 0
 501.666992188 526.694434882 459.431194511 565.4921875 368 565.4921875 c 0
 224.303564113 565.4921875 41.76953125 492.677734375 41.76953125 492.677734375 c 1
 3 667.340820312 l 1
 3 667.340820312 116.015455494 738.9921875 381.916992188 738.9921875 c 0xd8
 572.583984375 738.9921875 693.916992188 638.247073955 693.916992188 479.93359375 c 0
 693.916992188 357.601749876 617.680173088 298.796084005 568.350629845 273.704915711 c 0
 543.630400175 261.28004237 524.740234375 257.040039062 524.740234375 257.040039062 c 1
 716.770507812 118.5 l 1
 603.270507812 -37 l 1
 232.7578125 262.18359375 l 1
 279.196289062 385.876953125 l 1
EndSplineSet
EndChar

StartChar: five
Encoding: 21 53 67
Width: 581
Flags: W
HStem: -10.0664 157.5<108.426 323.531> 330.742 146.508<210.309 327.87> 567.25 163.758<226.5 514.017>
VStem: 360.917 194<182.076 296.944>
LayerCount: 2
Back
SplineSet
529.016601562 549.0078125 m 5
 239 550 l 29
 224 471 l 21
 224 471 248.642857143 479 316 479 c 4
 492.46964774 479 559.916992188 386.635747331 559.916992188 246.9921875 c 4
 559.916992188 68.1744133844 445.97265625 -10.06640625 266.916992188 -10.06640625 c 4
 85.2246769868 -10.06640625 8 44.0849609375 8 44.0849609375 c 5
 50 207 l 5
 50 207 126.85984585 163.93359375 233.916992188 163.93359375 c 4
 305.791015625 163.93359375 340.916992188 195.456256431 340.916992188 244.9921875 c 4
 340.916992188 289.603298611 303.700683594 317.9921875 230.916992188 317.9921875 c 4
 164.966339317 317.9921875 125.2578125 288.43359375 125.2578125 288.43359375 c 5
 19 392 l 5
 80 731.0078125 l 5
 365 731.0078125 l 5
 362 798.0078125 l 5
 515.016601562 800.0078125 l 5
 529.016601562 549.0078125 l 5
EndSplineSet
Fore
SplineSet
514.016601562 566.2578125 m 1
 226.5 567.25 l 1
 207.75 454 l 1
 207.75 454 238.017857144 477.25 320.75 477.25 c 0
 487.665694467 477.25 554.916992188 384.587166051 554.916992188 244.4921875 c 0
 554.916992188 67.4134894012 442.917098842 -10.06640625 266.916992188 -10.06640625 c 0
 88.7333751542 -10.06640625 13 44.0849609375 13 44.0849609375 c 1
 53 191.5 l 1
 53 191.5 130.800132287 147.43359375 239.166992188 147.43359375 c 0
 320.948883341 147.43359375 360.916992188 184.400679497 360.916992188 242.4921875 c 0
 360.916992188 296.422743056 320.82487793 330.7421875 242.416992188 330.7421875 c 0
 170.848693244 330.7421875 127.7578125 293.43359375 127.7578125 293.43359375 c 1
 24 379.5 l 1
 85 731.0078125 l 1
 514.016601562 731.0078125 l 1
 514.016601562 566.2578125 l 1
EndSplineSet
Substitution2: "'onum' Oldstyle Figures lookup 27-1" five.osf
Substitution2: "'ss02' Style Set 2 lookup 10-1" five.ss02
Substitution2: "'frac' Diagonal Fractions in Latin lookup 26 subtable" five.numr
Substitution2: "'dnom' Denominators lookup 0 subtable" five.dnom
Substitution2: "'numr' Numerators lookup 0 subtable" five.numr
Substitution2: "'sinf' Scientific Inferiors lookup 0 subtable" five.inferior
Substitution2: "'sups' Superscript lookup 0 subtable" five.superior
EndChar

StartChar: Z
Encoding: 58 90 68
Width: 601
Flags: W
HStem: 0 174.75<274.919 566.517> 551.008 180<34.5 320.348>
LayerCount: 2
Fore
SplineSet
25.5 551.0078125 m 1
 34.5 731.0078125 l 1
 556.516601562 731.0078125 l 1
 584.016601562 592.0078125 l 1
 274.918945312 174.75 l 1
 575.516601562 181 l 1
 566.516601562 0 l 1
 44.5 0 l 1
 17 139 l 1
 320.34765625 557.2578125 l 1
 25.5 551.0078125 l 1
EndSplineSet
EndChar

StartChar: Y
Encoding: 57 89 69
Width: 744
Flags: W
HStem: 0 21G<306.58 508.909>
VStem: 306.58 202.329<0 262.655>
LayerCount: 2
Fore
SplineSet
310.373046875 262.655273438 m 1
 148.651367188 570 l 1
 32.0458984375 552 l 1
 15 722 l 1
 285.046875 746 l 1
 416.905273438 454.1328125 l 1
 554.654296875 746 l 1
 746.200195312 683.5 l 1
 505.484375 269.150390625 l 1
 508.909179688 0 l 1
 306.580078125 0 l 1
 310.373046875 262.655273438 l 1
EndSplineSet
Substitution2: "'ss13' Style Set 13 lookup 21-1" Y.ss13
EndChar

StartChar: X
Encoding: 56 88 70
Width: 776
Flags: W
HStem: 509.434 21G<40.6169 123.454>
LayerCount: 2
Fore
SplineSet
277 745.0078125 m 1
 521 364 l 1
 247 -27 l 1
 73 95.5 l 1
 301.5 364 l 1
 174.25 542.5078125 l 1
 45.75 509.43359375 l 1
 3 676 l 1
 277 745.0078125 l 1
584.5 745.0078125 m 1
 753.5 631.0078125 l 1
 547.5 364 l 1
 776 95.5 l 1
 602 -27 l 1
 328 364 l 1
 584.5 745.0078125 l 1
EndSplineSet
EndChar

StartChar: comma
Encoding: 12 44 71
Width: 270
Flags: W
HStem: -131.25 330.5
VStem: -19.75 276.5
LayerCount: 2
Fore
SplineSet
92.75 199.25 m 25
 256.75 107.5 l 25
 84.75 -131.25 l 25
 -19.75 -73.25 l 25
 92.75 199.25 l 25
EndSplineSet
EndChar

StartChar: nine
Encoding: 25 57 73
Width: 619
Flags: W
HStem: -20 164.959<122.357 230.817> 243.766 136.968<238.656 367.972> 582.884 156.108<239.853 366.756>
VStem: 25 179.691<414.508 548.407> 401.191 192.875<311.402 550.106>
LayerCount: 2
Fore
SplineSet
123.255859375 -20 m 1
 102.06640625 144.958984375 l 1
 377.762034341 166.230355202 387.858398438 276.809570312 387.858398438 276.809570312 c 1
 387.858398438 276.809570312 351.255189695 243.765625 251.965820312 243.765625 c 0
 113.689389709 243.765625 25 336.285202035 25 476.243164062 c 0
 25 622.437742383 102.397058415 738.9921875 303.005859375 738.9921875 c 0
 477.308173216 738.9921875 594.06640625 644.098632812 594.06640625 422.643554688 c 0
 594.06640625 209.85546875 481.286810458 0.528320312494 123.255859375 -20 c 1
401.19140625 480.883789062 m 0
 401.19140625 543.217751243 363.119289175 582.883789062 303.291015625 582.883789062 c 0
 243.035442833 582.883789062 204.69140625 543.217751243 204.69140625 480.883789062 c 0
 204.69140625 419.680772569 243.035442833 380.733398438 303.291015625 380.733398438 c 0
 363.119289175 380.733398438 401.19140625 419.680772569 401.19140625 480.883789062 c 0
EndSplineSet
Substitution2: "'onum' Oldstyle Figures lookup 27-1" nine.osf
Substitution2: "'frac' Diagonal Fractions in Latin lookup 26 subtable" nine.numr
Substitution2: "'dnom' Denominators lookup 0 subtable" nine.dnom
Substitution2: "'numr' Numerators lookup 0 subtable" nine.numr
Substitution2: "'sinf' Scientific Inferiors lookup 0 subtable" nine.inferior
Substitution2: "'sups' Superscript lookup 0 subtable" nine.superior
EndChar

StartChar: at
Encoding: 32 64 74
Width: 925
Flags: W
HStem: -159.727 98.377<336.734 667.601> 48.4209 131.136<384.252 496.646> 48.4209 110.058<698.159 778.376> 364.36 129.146<380.726 497.383> 611.933 95.7939<335.813 606.556>
VStem: 22.5 105.5<140.94 402.701> 210.029 145.095<206.391 337.796> 523.856 159.411<215.969 328.905> 546.985 79.3086<127.216 383.729> 804.404 98.3828<186.398 422.375>
LayerCount: 2
Back
SplineSet
365.124023438 363.1875 m 4
 365.124023438 312.997070312 392.912109375 281.056640625 436.578125 281.056640625 c 4
 480.749023438 281.056640625 508.856445312 312.997070312 508.856445312 363.1875 c 4
 508.856445312 411.876953125 480.749023438 442.860351562 436.578125 442.860351562 c 4
 392.912109375 442.860351562 365.124023438 411.876953125 365.124023438 363.1875 c 4
207.529296875 362.254882812 m 4
 207.529296875 497.463867188 289.260742188 583.505859375 417.694335938 583.505859375 c 4
 542.1171875 583.505859375 621.293945312 489.212890625 621.293945312 341.037109375 c 4
 621.293945312 217.215820312 542.1171875 138.420898438 417.694335938 138.420898438 c 4
 289.260742188 138.420898438 207.529296875 225.466796875 207.529296875 362.254882812 c 4
482.713867188 -69.7265625 m 4
 196.205078125 -69.7265625 20 94.120869497 20 358.08984375 c 4
 20 614.04161915 179.602962903 797.7265625 458.420898438 797.7265625 c 4
 719.309753403 797.7265625 905.287109375 654.481445312 905.287109375 383.712890625 c 4
 905.287109375 234.838867187 845.620117188 138.420898438 718.064453125 138.420898438 c 4
 609.642578125 138.420898438 536.985351562 205.224609375 536.985351562 370.025390625 c 4xbec0
 536.985351562 473.729492188 566.369140625 581.030273438 566.369140625 581.030273438 c 5
 721.677734375 569.944335938 l 5
 721.677734375 569.944335938 689.767578125 428.384765625 689.767578125 333.604492188 c 4
 689.767578125 282.138671875 704.185546875 254.978515625 740.811523438 254.978515625 c 4xbf40
 782.825195312 254.978515625 804.404296875 305.185546875 804.404296875 383.712890625 c 4
 804.404296875 614.064453125 662.40625 699.432617188 459.420898438 699.432617188 c 4
 248.553710938 699.432617188 128 560.595703125 128 361.93359375 c 4
 128 157.513671875 252.708984375 31.150390625 483.713867188 31.150390625 c 4
 665.813476562 31.150390625 793 94 793 94 c 5
 818.250976562 5.7744140625 l 5
 818.250976562 5.7744140625 708.095703125 -69.7265625 482.713867188 -69.7265625 c 4
EndSplineSet
Fore
SplineSet
355.124023438 273.1875 m 0xdf40
 355.124023438 215.969383693 387.773286923 179.556640625 439.078125 179.556640625 c 0
 490.888053068 179.556640625 523.856445312 215.969383693 523.856445312 273.1875 c 0
 523.856445312 328.904801381 490.888053068 364.360351562 439.078125 364.360351562 c 0
 387.773286923 364.360351562 355.124023438 328.904801381 355.124023438 273.1875 c 0xdf40
210.029296875 272.254882812 m 0
 210.029296875 407.463867188 292.246856848 493.505859375 421.444335938 493.505859375 c 0
 546.631081719 493.505859375 626.293945312 399.212890625 626.293945312 251.037109375 c 0xdec0
 626.293945312 127.215820312 546.631081719 48.4208984375 421.444335938 48.4208984375 c 0
 292.246856848 48.4208984375 210.029296875 135.466796875 210.029296875 272.254882812 c 0
482.713867188 -159.7265625 m 0
 197.753058472 -159.7265625 22.5 4.12109375 22.5 268.08984375 c 0
 22.5 524.041992188 181.19244023 707.7265625 458.420898438 707.7265625 c 0
 717.850024561 707.7265625 902.787109375 564.481445312 902.787109375 293.712890625 c 0
 902.787109375 144.838867188 843.916855593 48.4208984375 718.064453125 48.4208984375 c 0
 615.630120258 48.4208984375 546.985351562 115.224609375 546.985351562 280.025390625 c 0xbec0
 546.985351562 383.729492188 574.369140625 491.030273438 574.369140625 491.030273438 c 1
 710.177734375 481.944335938 l 1
 710.177734375 481.944335938 683.267578125 337.88312595 683.267578125 242.104492188 c 0
 683.267578125 188.053293458 701.685546875 158.478515625 738.311523438 158.478515625 c 0xbf40
 781.976863795 158.478515625 804.404296875 209.270554157 804.404296875 288.712890625 c 0
 804.404296875 524.536511325 662.40625 611.932617188 459.420898438 611.932617188 c 0
 248.553710938 611.932617188 128 472.067278563 128 271.93359375 c 0
 128 65.9687028443 252.708984375 -61.349609375 483.713867188 -61.349609375 c 0
 665.813476562 -61.349609375 793 1.5 793 1.5 c 1
 818.250976562 -84.2255859375 l 1
 818.250976562 -84.2255859375 708.095703125 -159.7265625 482.713867188 -159.7265625 c 0
EndSplineSet
Substitution2: "'case' Case-Sensitive Forms lookup 31-1" at.case
EndChar

StartChar: percent
Encoding: 5 37 75
Width: 889
Flags: W
HStem: -10 120.308<626.722 721.591> 247.975 120.404<626.247 722.07> 360.613 120.308<166.722 261.591> 618.588 120.404<166.247 262.07>
VStem: 22.0205 129.304<497.511 602.929> 277.284 129.336<497.511 602.929> 482.021 129.304<126.897 232.316> 737.284 129.336<126.897 232.316>
LayerCount: 2
Fore
SplineSet
611.32421875 180.006835938 m 0xdf
 611.32421875 137.412968434 635.703747108 110.307617188 674.015625 110.307617188 c 0
 712.679793079 110.307617188 737.284179688 137.412968434 737.284179688 180.006835938 c 0
 737.284179688 221.542897561 712.679793079 247.974609375 674.015625 247.974609375 c 0
 635.703747108 247.974609375 611.32421875 221.542897561 611.32421875 180.006835938 c 0xdf
482.020507812 180.149414062 m 0
 482.020507812 295.178846196 556.678895262 368.37890625 674 368.37890625 c 0
 791.712496361 368.37890625 866.620117188 295.178846196 866.620117188 180.149414062 c 0
 866.620117188 63.946795968 791.712496361 -10 674 -10 c 0
 556.678895262 -10 482.020507812 63.946795968 482.020507812 180.149414062 c 0
151.32421875 550.620117188 m 0
 151.32421875 508.026249684 175.703747107 480.920898438 214.015625 480.920898438 c 0xbf
 252.679793079 480.920898438 277.284179688 508.026249684 277.284179688 550.620117188 c 0
 277.284179688 592.156178811 252.679793079 618.587890625 214.015625 618.587890625 c 0
 175.703747107 618.587890625 151.32421875 592.156178811 151.32421875 550.620117188 c 0
22.0205078125 550.762695312 m 0
 22.0205078125 665.792127446 96.6788952622 738.9921875 214 738.9921875 c 0
 331.712496362 738.9921875 406.620117188 665.792127446 406.620117188 550.762695312 c 0
 406.620117188 434.560077218 331.712496362 360.61328125 214 360.61328125 c 0
 96.6788952622 360.61328125 22.0205078125 434.560077218 22.0205078125 550.762695312 c 0
EndSplineSet
Refer: 168 8260 N 1 0 0 1 304 0 2
EndChar

StartChar: ampersand
Encoding: 6 38 76
Width: 715
Flags: W
HStem: -9.99805 154.998<242.305 413.825> 270.25 146.25<564 674.919> 295 142.5<265.043 351.25> 596.5 148.5<284.892 368.325>
VStem: 25 193<167.046 265.15> 43 186<469.439 557.003> 564 24.5<270.25 416.5>
LayerCount: 2
Fore
SplineSet
690 419.5 m 1xd2
 687.5 262.5 l 1
 557.5 270.25 l 1
 564 416.5 l 1
 690 419.5 l 1xd2
367.5 745 m 1
 385 596.5 l 1
 304.883561644 590.289097144 229 571.447260014 229 514.43359375 c 0xb6
 229 470.509383648 266.160928904 444.03769133 357 437.5 c 1
 351.25 295 l 1
 265.833333334 289.507042254 218 275.225352112 218 217 c 0
 218 173.327868852 249.5 145 323 145 c 0
 389.362359551 145 416.75 163 416.75 163 c 1
 423 556.5 l 1
 588.5 548.25 l 1
 595.5 43.75 l 1
 595.5 43.75 496.378969155 -9.998046875 320 -9.998046875 c 0
 148 -9.998046875 25 48.9660983365 25 201 c 0xba
 25 338.305502686 169.25 373.5 169.25 373.5 c 1
 169.25 373.5 43 412.73514623 43 535.25 c 0xb6
 43 641.133413462 128.342507646 728.865384616 367.5 745 c 1
EndSplineSet
Substitution2: "'ss18' Style Set 18 lookup 30-1" ampersand.ss18
Substitution2: "'ss09' Style Set 9 lookup 17-1" ampersand.ss09
EndChar

StartChar: two
Encoding: 18 50 77
Width: 595
Flags: W
HStem: 0 168.5<324.652 561.5> 507 21G<78.1433 86.4639> 568.5 170.5<144.735 308.967>
VStem: 349.364 200.6<386.061 528.641>
LayerCount: 2
Fore
SplineSet
324.65234375 168.5 m 1
 570 174.5 l 1
 561.5 0 l 1
 34.9833984375 0 l 1
 24.9833984375 132.5 l 1
 24.9833984375 132.5 349.364257812 285.906954208 349.364257812 456.5 c 0
 349.364257812 531.878676471 306.382592832 568.5 233.955078125 568.5 c 0
 141.628936795 568.5 86.4638671875 507 86.4638671875 507 c 1
 21.5634765625 663 l 1
 21.5634765625 663 116.029415448 739 274.53125 739 c 0
 452.545019167 739 549.963867188 646.292324216 549.963867188 498.93359375 c 0
 549.963867188 277.447770119 324.65234375 168.5 324.65234375 168.5 c 1
EndSplineSet
Substitution2: "'onum' Oldstyle Figures lookup 27-1" two.osf
Substitution2: "'frac' Diagonal Fractions in Latin lookup 26 subtable" two.numr
Substitution2: "'dnom' Denominators lookup 0 subtable" two.dnom
Substitution2: "'numr' Numerators lookup 0 subtable" two.numr
Substitution2: "'sinf' Scientific Inferiors lookup 0 subtable" two.inferior
Substitution2: "'sups' Superscript lookup 0 subtable" two.superior
EndChar

StartChar: three.ss01
Encoding: 736 -1 78
Width: 579
Flags: W
HStem: -10.0664 156.5<102.023 324.853> 304.742 136.441<145.272 313.842> 580.992 158<112.813 314.082>
VStem: 337.917 198<464.053 556.097> 360.917 194<178.46 277.374>
LayerCount: 2
Fore
SplineSet
52.5 187.75 m 1xe8
 52.5 187.75 128.315083143 146.43359375 233.916992188 146.43359375 c 0
 319.225412529 146.43359375 360.916992188 178.442365633 360.916992188 228.7421875 c 0xe8
 360.916992188 275.186631944 322.683969351 304.7421875 236.916992188 304.7421875 c 0
 164.724609375 304.7421875 145.2578125 298.18359375 145.2578125 298.18359375 c 1
 145.196289062 445.126953125 l 1
 145.196289062 445.126953125 163.407226562 441.18359375 222.916992188 441.18359375 c 0
 304.615696957 441.18359375 337.916992188 468.269888742 337.916992188 508.93359375 c 0
 337.916992188 553.679363372 303.807617188 580.9921875 226.916992188 580.9921875 c 0
 129.118107049 580.9921875 64.76953125 536.427734375 64.76953125 536.427734375 c 1
 26 694.840820312 l 1
 26 694.840820312 95.7675014731 738.9921875 259.916992188 738.9921875 c 0
 430.984927575 738.9921875 535.916992188 663.358398438 535.916992188 542.93359375 c 0xf0
 535.916992188 417.046178663 418.525390625 382.96875 418.525390625 382.96875 c 1
 418.525390625 382.96875 554.916992188 352.820311363 554.916992188 196.9921875 c 0
 554.916992188 70.4560546875 442.917098842 -10.06640625 266.916992188 -10.06640625 c 0
 88.7333751542 -10.06640625 13 34.0849609375 13 34.0849609375 c 1
 52.5 187.75 l 1xe8
EndSplineSet
Substitution2: "'dnom' Denominators lookup 0 subtable" three.ss01.dnom
Substitution2: "'numr' Numerators lookup 0 subtable" three.ss01.numr
Substitution2: "'subs' Subscript lookup 0 subtable" three.ss01.subscript
Substitution2: "'sinf' Scientific Inferiors lookup 0 subtable" three.ss01.inferior
Substitution2: "'sups' Superscript lookup 0 subtable" three.ss01.superior
EndChar

StartChar: four
Encoding: 20 52 79
Width: 701
Flags: W
HStem: 0 21G<378 564.329> 169.62 153.96<235.72 668.26>
LayerCount: 2
Fore
SplineSet
558.899414062 590.18359375 m 1
 564.329101562 0 l 1
 378 0 l 1
 384.169921875 590.18359375 l 1
 558.899414062 590.18359375 l 1
316.059570312 752.280273438 m 1
 468.759765625 657.650390625 l 1
 235.719726562 323.580078125 l 1
 673.139648438 327.209960938 l 1
 668.259765625 163.4296875 l 1
 51.759765625 169.620117188 l 1
 18.5595703125 278.860351562 l 1
 316.059570312 752.280273438 l 1
EndSplineSet
Substitution2: "'onum' Oldstyle Figures lookup 27-1" four.osf
Substitution2: "'frac' Diagonal Fractions in Latin lookup 26 subtable" four.numr
Substitution2: "'dnom' Denominators lookup 0 subtable" four.dnom
Substitution2: "'numr' Numerators lookup 0 subtable" four.numr
Substitution2: "'sinf' Scientific Inferiors lookup 0 subtable" four.inferior
Substitution2: "'sups' Superscript lookup 0 subtable" four.superior
EndChar

StartChar: seven
Encoding: 23 55 80
Width: 568
Flags: W
HStem: 561.463 169.545<192.25 361.348>
LayerCount: 2
Fore
SplineSet
12 434.0078125 m 1
 40.75 731.0078125 l 1
 524.516601562 731.0078125 l 1
 572.016601562 618.0078125 l 1
 333.5 -16 l 1
 142.25 42 l 1
 361.34765625 562.7578125 l 1
 192.25 561.462890625 l 1
 176 418.5 l 1
 12 434.0078125 l 1
EndSplineSet
Substitution2: "'onum' Oldstyle Figures lookup 27-1" seven.osf
Substitution2: "'frac' Diagonal Fractions in Latin lookup 26 subtable" seven.numr
Substitution2: "'dnom' Denominators lookup 0 subtable" seven.dnom
Substitution2: "'numr' Numerators lookup 0 subtable" seven.numr
Substitution2: "'sinf' Scientific Inferiors lookup 0 subtable" seven.inferior
Substitution2: "'sups' Superscript lookup 0 subtable" seven.superior
EndChar

StartChar: dollar
Encoding: 4 36 81
Width: 408
Flags: W
HStem: 0 21G<153 280> 719 20G<118 245>
LayerCount: 2
Fore
SplineSet
280 0 m 1
 153 0 l 1
 167.5 202.5 l 1
 263.5 202.5 l 1
 280 0 l 1
118 739 m 1
 245 739 l 1
 230.5 536.5 l 1
 134.5 536.5 l 1
 118 739 l 1
302.302734375 645.848632812 m 1
 323.732421875 516.330078125 l 1
 323.732421875 516.330078125 214.431640625 504.741814191 214.431640625 468.842773438 c 0
 214.431640625 451.145128873 237.873556097 443.777557425 292.732421875 418.709960938 c 0
 357.844078249 388.792803744 383.2890625 352.038433057 383.2890625 293.293945312 c 0
 383.2890625 106.774894293 78.0390625 87.0791015625 78.0390625 87.0791015625 c 1
 59.0693359375 226.671875 l 1
 59.0693359375 226.671875 199.9375 232.534532264 199.9375 285.423828125 c 0
 199.9375 307.417492104 176.389153895 318.404035996 127.036132812 336.897460938 c 0
 50.0880106195 366.092138617 25 403.795241204 25 458.64453125 c 0
 25 629.792544558 302.302734375 645.848632812 302.302734375 645.848632812 c 1
EndSplineSet
EndChar

StartChar: quotesingle
Encoding: 7 39 82
Width: 256
Flags: W
HStem: 465 300<72 178>
VStem: 26.5 203
LayerCount: 2
Fore
SplineSet
26.5 765 m 25
 229.5 765 l 25
 178 465 l 25
 72 465 l 25
 26.5 765 l 25
EndSplineSet
EndChar

StartChar: quotedbl
Encoding: 2 34 83
Width: 462
VWidth: 1111
Flags: W
HStem: 453.5 314
LayerCount: 2
Fore
SplineSet
16.5 755.5 m 1
 193.5 767.5 l 1
 181 461.5 l 1
 76 453.5 l 1
 16.5 755.5 l 1
258.5 766.5 m 1
 439.5 751.5 l 1
 371 454.5 l 1
 259 459.5 l 1
 258.5 766.5 l 1
EndSplineSet
EndChar

StartChar: plus
Encoding: 11 43 84
Width: 450
Flags: W
HStem: 160.5 144.75<145 299> 300.5 139<21 261.25>
VStem: 161.75 130.5<295.545 552.274>
LayerCount: 2
Fore
SplineSet
300 569.5 m 1xa0
 292.25 391.5 l 1
 299 158.5 l 1
 145 160.5 l 1
 161.75 392.5 l 1
 154 572.5 l 1
 300 569.5 l 1xa0
21 439.5 m 1x60
 223 435.75 l 1
 432 442.5 l 1
 430.25 288.5 l 1
 222.25 305.25 l 1xa0
 18.25 300.5 l 1
 21 439.5 l 1x60
EndSplineSet
EndChar

StartChar: minus
Encoding: 719 8722 85
Width: 450
Flags: W
HStem: 293.75 154.5<150.811 421.25> 304 141<28.75 295.689>
LayerCount: 2
Fore
SplineSet
28.75 445 m 1x40
 424.75 448.25 l 1
 421.25 293.75 l 1x80
 25.25 304 l 1
 28.75 445 l 1x40
EndSplineSet
EndChar

StartChar: question
Encoding: 31 63 86
Width: 437
Flags: W
HStem: -10 202<79.2871 212.713> 244.885 188.839<76.7681 207.443> 601.75 143.634<51.6261 139.103>
VStem: 45 202<24.2871 157.713> 229.25 182.75<455.356 549.419>
LayerCount: 2
Fore
SplineSet
25 601.75 m 1xe8
 52.990234375 745.383789062 l 1
 299.190661326 712.414266652 412 638.8046875 412 497.010742188 c 0
 412 392.475746052 335.070045352 345.055545259 272.078857422 326.414550781 c 0
 248.878501653 319.338826571 225.077148438 316.5 225.077148438 316.5 c 1
 214.25 236.25 l 1
 214.25 236.25 194.284246575 244.884765625 148 244.884765625 c 0
 101.413461539 244.884765625 76.75 234.25 76.75 234.25 c 1
 65.1552734375 437.25 l 1
 65.1552734375 437.25 86.664994607 433.723632812 129.5 433.723632812 c 0
 187.596153846 433.723632812 229.25 453.185224027 229.25 505 c 0
 229.25 560.372323172 175.517313823 583.556760092 25 601.75 c 1xe8
45 91 m 0xf0
 45 152.722620738 84.2773792612 192 146 192 c 0
 207.722620739 192 247 152.722620738 247 91 c 0
 247 29.2773792613 207.722620739 -10 146 -10 c 0
 84.2773792612 -10 45 29.2773792613 45 91 c 0xf0
EndSplineSet
EndChar

StartChar: parenleft
Encoding: 8 40 87
Width: 361
Flags: W
VStem: 25 186.137<115.084 479.667>
LayerCount: 2
Fore
SplineSet
211.13671875 300.836914062 m 0
 211.13671875 17.7448034407 345 -133.994140625 345 -133.994140625 c 1
 205 -198.994140625 l 1
 205 -198.994140625 25 -37 25 301.005859375 c 0
 25 613 205 791.001953125 205 791.001953125 c 1
 345 726.001953125 l 1
 345 726.001953125 211.13671875 580.286364408 211.13671875 300.836914062 c 0
EndSplineSet
EndChar

StartChar: parenright
Encoding: 9 41 88
Width: 361
Flags: W
VStem: 149.863 186.137<112.34 476.924>
LayerCount: 2
Fore
SplineSet
149.86328125 291.170898438 m 0
 149.86328125 574.26300906 16 726.001953125 16 726.001953125 c 1
 156 791.001953125 l 1
 156 791.001953125 336 629.0078125 336 291.001953125 c 0
 336 -20.9921875 156 -198.994140625 156 -198.994140625 c 1
 16 -133.994140625 l 1
 16 -133.994140625 149.86328125 11.7214480924 149.86328125 291.170898438 c 0
EndSplineSet
EndChar

StartChar: bracketleft
Encoding: 59 91 89
Width: 394
Flags: W
HStem: -190 137<216.247 376.824> 643.5 147.511<213.172 367.395>
VStem: 35 181.247<-53 646>
LayerCount: 2
Fore
SplineSet
367.39453125 791.010742188 m 1
 373.665039062 643.5 l 1
 213.171875 646 l 1
 216.247070312 -53 l 1
 379.806640625 -49.5 l 1
 376.82421875 -190 l 1
 35 -190 l 1
 37.69140625 791.010742188 l 1
 367.39453125 791.010742188 l 1
EndSplineSet
EndChar

StartChar: bracketright
Encoding: 61 93 90
Width: 394
Flags: W
HStem: -190 140.5<17.9824 178.56> 643.5 147.511<27.4121 181.635>
VStem: 178.56 181.247<-53.5 646.5>
LayerCount: 2
Fore
SplineSet
27.412109375 791.010742188 m 1
 357.115234375 791.010742188 l 1
 359.806640625 -190 l 1
 17.982421875 -190 l 1
 15 -49.5 l 1
 178.559570312 -53.5 l 1
 181.634765625 646.5 l 1
 21.1416015625 643.5 l 1
 27.412109375 791.010742188 l 1
EndSplineSet
EndChar

StartChar: less
Encoding: 28 60 91
Width: 450
Flags: W
LayerCount: 2
Fore
SplineSet
269.37109375 341.5 m 1
 430.349609375 258.5 l 1
 372.849609375 122 l 1
 19.650390625 332 l 1
 372.849609375 561 l 1
 430.349609375 424.5 l 1
 269.37109375 341.5 l 1
EndSplineSet
EndChar

StartChar: greater
Encoding: 30 62 92
Width: 450
Flags: W
LayerCount: 2
Fore
SplineSet
180.62890625 342.5 m 1
 19.650390625 424.5 l 1
 77.150390625 561 l 1
 430.349609375 351 l 1
 77.150390625 122 l 1
 19.650390625 258.5 l 1
 180.62890625 342.5 l 1
EndSplineSet
EndChar

StartChar: asciicircum
Encoding: 62 94 93
Width: 392
Flags: W
HStem: 416 332
LayerCount: 2
Fore
SplineSet
194 748 m 25
 394.5 502 l 25
 279 416 l 25
 195 555 l 25
 111.5 422 l 25
 -2.5 488.5 l 25
 194 748 l 25
EndSplineSet
EndChar

StartChar: asterisk
Encoding: 10 42 94
Width: 401
Flags: W
LayerCount: 2
Fore
SplineSet
137.357421875 765 m 1
 262.357421875 765 l 1
 253.916992188 640.537109375 l 1
 355.330078125 684.889648438 l 1
 392.6640625 571.3046875 l 1
 281.24609375 537.580078125 l 1
 362.837890625 440.5 l 1
 260.510742188 369.829101562 l 1
 201.842773438 476.431640625 l 1
 142.2734375 369.829101562 l 1
 40.9462890625 440.5 l 1
 122.538085938 537.580078125 l 1
 8.5 579.754882812 l 1
 51.8681640625 684.889648438 l 1
 149.868164062 640.537109375 l 1
 137.357421875 765 l 1
EndSplineSet
EndChar

StartChar: sterling
Encoding: 97 163 95
Width: 576
Flags: W
HStem: 0 156.293<241.564 551.539> 252.5 157<161.955 423.5> 263.5 142<16.5 274.045>
LayerCount: 2
Fore
SplineSet
16.5 405.5 m 1xa0
 427.5 409.5 l 1
 423.5 252.5 l 1xc0
 12.5 263.5 l 1
 16.5 405.5 l 1xa0
241.564453125 156.29296875 m 1
 555.159179688 157.930664062 l 1
 551.5390625 0 l 1
 30.9296875 0 l 1
 52.313777198 452.125433501 145.105838696 628.005046291 436.930664062 747.6640625 c 1
 518.798828125 607.104492188 l 1
 343.310270476 536.584204687 258.86609588 403.580729878 241.564453125 156.29296875 c 1
EndSplineSet
EndChar

StartChar: braceleft
Encoding: 91 123 96
Width: 474
Flags: W
HStem: -199.681 139.62<282.12 440.374> 235.602 130.4<15.0319 142.341> 661.427 139.62<282.071 440.372>
VStem: 78.3398 187.727<-44.4559 59.1079 521.689 644.474> 147.296 170.451<117.708 229.235 370.518 467.843>
LayerCount: 2
Fore
SplineSet
296.986328125 801.046875 m 0xf0
 398.170046874 801.046875 457.4609375 773.2265625 457.4609375 773.2265625 c 1
 438.530273438 643.516601562 l 1
 438.530273438 643.516601562 402.206407102 661.426757812 350.157226562 661.426757812 c 0
 294.71204079 661.426757812 266.06640625 643.066893257 266.06640625 597 c 0xf0
 266.06640625 519.719335405 320.350585938 507.630456685 320.350585938 389.743164062 c 0
 320.350585938 320.680364452 254.905273438 296.681640625 254.905273438 296.681640625 c 1
 254.905273438 296.681640625 317.747070312 266.810162193 317.747070312 204.143554688 c 0xe8
 317.747070312 121.496735397 266.06640625 93.4305031844 266.06640625 6 c 0
 266.06640625 -41.7593773291 295.047308113 -60.060546875 350.157226562 -60.060546875 c 0
 410.014195696 -60.060546875 438.530273438 -42.150390625 438.530273438 -42.150390625 c 1
 457.4609375 -171.860351562 l 1
 457.4609375 -171.860351562 398.170046874 -199.680664062 296.986328125 -199.680664062 c 0
 156.692606812 -199.680664062 78.33984375 -145.895507812 78.33984375 -39 c 0xf0
 78.33984375 65.108827932 147.295898438 113.322820441 147.295898438 191.265625 c 0
 147.295898438 222.56468564 127.831400839 235.6015625 96.2431640624 235.6015625 c 0
 55.1121513615 235.6015625 15 233.721679688 15 233.721679688 c 1
 15 370 l 1
 15 370 58.7598188977 366.001953125 101.482421875 366.001953125 c 0
 128.389059349 366.001953125 147.295898438 375.195129598 147.295898438 400.62109375 c 0xe8
 147.295898438 468.443137352 78.33984375 498.005352422 78.33984375 622 c 0
 78.33984375 733.947265625 156.692606812 801.046875 296.986328125 801.046875 c 0xf0
EndSplineSet
EndChar

StartChar: braceright
Encoding: 93 125 97
Width: 474
Flags: W
HStem: -199.681 139.62<33.6284 192.457> 235.364 130.9<330.717 458.967> 661.427 139.62<33.6256 191.88>
VStem: 153.649 173.055<135.557 231.271 371.774 479.224> 207.934 187.727<-45.8708 80.6059 542.747 646.108>
LayerCount: 2
Fore
SplineSet
177.013671875 -199.680664062 m 0xe8
 75.8299531262 -199.680664062 16.5390625 -171.860351562 16.5390625 -171.860351562 c 1
 35.4697265625 -42.150390625 l 1
 35.4697265625 -42.150390625 71.7935928979 -60.060546875 123.842773438 -60.060546875 c 0
 179.28795921 -60.060546875 207.93359375 -42.4131139703 207.93359375 1.8662109375 c 0xe8
 207.93359375 80.0790602811 153.649414062 99.8137590254 153.649414062 211.623046875 c 0xf0
 153.649414062 280.685846486 219.094726562 304.684570312 219.094726562 304.684570312 c 1
 219.094726562 304.684570312 156.252929688 334.556048745 156.252929688 397.22265625 c 0
 156.252929688 480.912239958 207.93359375 509.332587047 207.93359375 597.866210938 c 0
 207.93359375 643.81817902 178.952691887 661.426757812 123.842773438 661.426757812 c 0
 63.9858043031 661.426757812 35.4697265625 643.516601562 35.4697265625 643.516601562 c 1
 16.5390625 773.2265625 l 1
 16.5390625 773.2265625 75.8299531262 801.046875 177.013671875 801.046875 c 0
 317.307393188 801.046875 395.66015625 747.26171875 395.66015625 640.366210938 c 0xe8
 395.66015625 535.353133159 326.704101562 486.720372173 326.704101562 408.100585938 c 0
 326.704101562 378.56640625 345.215442692 366.264648438 375.256835938 366.264648438 c 0
 417.653524747 366.264648438 459 368.14453125 459 368.14453125 c 1
 459 231.366210938 l 1
 459 231.366210938 413.975189387 235.364257812 370.017578125 235.364257812 c 0
 344.579211534 235.364257812 326.704101562 226.834960938 326.704101562 203.245117188 c 0xf0
 326.704101562 134.657169048 395.66015625 104.761112154 395.66015625 -20.6337890625 c 0
 395.66015625 -132.581054688 317.307393188 -199.680664062 177.013671875 -199.680664062 c 0xe8
EndSplineSet
EndChar

StartChar: cent
Encoding: 96 162 98
Width: 391
Flags: W
HStem: 0 21G<183 310> 158.934 55.0664<197.5 293.5> 524 52.9336<195.5 291.5> 719 20G<179 306>
VStem: 25 154<312.099 425.448>
LayerCount: 2
Fore
SplineSet
310 0 m 1
 183 0 l 1
 197.5 214 l 1
 293.5 214 l 1
 310 0 l 1
179 739 m 1
 306 739 l 1
 291.5 524 l 1
 195.5 524 l 1
 179 739 l 1
25 369.93359375 m 0
 25 496.433681147 107.444354936 576.93359375 237 576.93359375 c 0
 341.501103034 576.93359375 385.916992188 534.782226562 385.916992188 534.782226562 c 1
 343.647460938 424.619140625 l 1
 343.647460938 424.619140625 311.103762692 447.43359375 260.5 447.43359375 c 0
 210.694139502 447.43359375 179 417.29513833 179 369.93359375 c 0
 179 319.516748047 208.459443701 287.43359375 272.5 287.43359375 c 0
 336.20726131 287.43359375 371.6484375 312.864257812 371.6484375 312.864257812 c 1
 401.146484375 191.31640625 l 1
 401.146484375 191.31640625 343.572391561 158.93359375 247 158.93359375 c 0
 111.333239604 158.93359375 25 240.988532903 25 369.93359375 c 0
EndSplineSet
EndChar

StartChar: asciitilde
Encoding: 94 126 99
Width: 524
Flags: W
HStem: 221.96 270.04
LayerCount: 2
Fore
SplineSet
342.071289062 379.418945312 m 1
 442.98046875 470.030273438 l 1
 523.66015625 371.5 l 1
 344.280273438 221.959960938 l 1
 185.08984375 333.291015625 l 1
 83.1806640625 240.1796875 l 1
 1 337.459960938 l 1
 180.880859375 492 l 1
 342.071289062 379.418945312 l 1
EndSplineSet
EndChar

StartChar: numbersign
Encoding: 3 35 100
Width: 704
Flags: W
HStem: -9.25 21G<88 219.639 348 479.639> 182 124<248.364 648> 193 109<24 419.636> 434 124<288 680> 445 109<68 456>
LayerCount: 2
Fore
SplineSet
24 302 m 1xa0
 652 306 l 1
 648 182 l 1xc0
 20 193 l 1
 24 302 l 1xa0
68 554 m 1x88
 684 558 l 1
 680 434 l 1x90
 64 445 l 1
 68 554 l 1x88
348 9.25 m 1
 491 740.2578125 l 1
 609 721.7578125 l 1
 476 -9.25 l 1
 348 9.25 l 1
88 9.25 m 1
 231 740.2578125 l 1
 349 721.7578125 l 1
 216 -9.25 l 1
 88 9.25 l 1
EndSplineSet
EndChar

StartChar: five.ss02
Encoding: 737 -1 101
Width: 581
Flags: W
HStem: -10.0664 157.5<108.426 323.531> 330.742 146.508<210.309 327.87> 567.25 163.758<226.5 376.5>
VStem: 360.917 194<182.076 296.944> 383.5 130.517<731.008 798.008>
LayerCount: 2
Fore
SplineSet
514.016601562 566.2578125 m 1xe8
 226.5 567.25 l 1
 207.75 454 l 1
 207.75 454 238.017857144 477.25 320.75 477.25 c 0
 487.665694467 477.25 554.916992188 384.587166051 554.916992188 244.4921875 c 0
 554.916992188 67.4134894012 442.917098842 -10.06640625 266.916992188 -10.06640625 c 0
 88.7333751542 -10.06640625 13 44.0849609375 13 44.0849609375 c 1
 53 191.5 l 1
 53 191.5 130.800132287 147.43359375 239.166992188 147.43359375 c 0
 320.948883341 147.43359375 360.916992188 184.400679497 360.916992188 242.4921875 c 0xf0
 360.916992188 296.422743056 320.82487793 330.7421875 242.416992188 330.7421875 c 0
 170.848693244 330.7421875 127.7578125 293.43359375 127.7578125 293.43359375 c 1
 24 379.5 l 1
 85 731.0078125 l 1
 376.5 731.0078125 l 1
 383.5 798.0078125 l 1
 514.016601562 800.0078125 l 1
 514.016601562 566.2578125 l 1xe8
EndSplineSet
Substitution2: "'dnom' Denominators lookup 0 subtable" five.ss02.dnom
Substitution2: "'numr' Numerators lookup 0 subtable" five.ss02.numr
Substitution2: "'numr' Numerators lookup 0 subtable" five.ss02.numr
Substitution2: "'subs' Subscript lookup 0 subtable" five.ss02.subscript
Substitution2: "'sinf' Scientific Inferiors lookup 0 subtable" five.ss02.inferior
Substitution2: "'sups' Superscript lookup 0 subtable" five.ss02.superior
EndChar

StartChar: yen
Encoding: 99 165 102
Width: 744
Flags: W
HStem: 0 21G<306.58 508.909> 109.712 106.5<518.428 657.5> 117.712 97.5<167.25 449.993> 248.212 106.5<438.75 661> 255.5 91.2119<170.75 624.776> 256.212 97.5<170.75 406.75>
VStem: 306.58 202.329<0 262.655>
LayerCount: 2
Fore
SplineSet
167.25 215.211914062 m 1xa2
 403.25 214.211914062 l 1
 659.25 216.211914062 l 1
 657.5 109.711914062 l 1xc2
 393.5 123 l 1
 165.5 117.711914062 l 1
 167.25 215.211914062 l 1xa2
170.75 353.711914062 m 1x86
 406.75 346.711914062 l 1x8a
 662.75 354.711914062 l 1
 661 248.211914062 l 1x92
 397 255.5 l 1x8a
 169 256.211914062 l 1
 170.75 353.711914062 l 1x86
EndSplineSet
Refer: 69 89 N 1 0 0 1 0 0 2
EndChar

StartChar: brokenbar
Encoding: 100 166 103
Width: 246
Flags: W
VStem: 42.3164 161.975<-170 239.44 355.92 788.992>
LayerCount: 2
Back
SplineSet
193.022460938 355.919921875 m 5
 63.7568359375 355.919921875 l 5
 36.169921875 788.9921875 l 5
 220.899414062 788.9921875 l 5
 193.022460938 355.919921875 l 5
194.291015625 239.440429688 m 5
 226.329101562 -170 l 5
 30 -170 l 5
 62.31640625 239.440429688 l 5
 194.291015625 239.440429688 l 5
EndSplineSet
Fore
SplineSet
203.022460938 355.919921875 m 1
 43.7568359375 355.919921875 l 1
 46.169921875 788.9921875 l 1
 200.899414062 788.9921875 l 1
 203.022460938 355.919921875 l 1
204.291015625 239.440429688 m 1
 206.329101562 -170 l 1
 40 -170 l 1
 42.31640625 239.440429688 l 1
 204.291015625 239.440429688 l 1
EndSplineSet
EndChar

StartChar: section
Encoding: 101 167 104
Width: 609
Flags: W
VStem: 107.753 199.099<539.111 608.986> 302.504 199.099<62.0142 131.899>
LayerCount: 2
Fore
SplineSet
69.890625 438.674804688 m 1x40
 119.677734375 356.730945671 202.721599745 326.922091744 326.131835938 286.393554688 c 0
 450.204938051 245.648646307 501.602539062 184.687364967 501.602539062 102.5 c 0
 501.602539062 -108.239257812 175.088867188 -114.163085938 175.088867188 -114.163085938 c 1
 156.552734375 29.4765625 l 1
 156.552734375 29.4765625 302.50390625 29.7935705363 302.50390625 94.279296875 c 0
 302.50390625 117.397822832 285.973894331 139.875286989 198.58984375 175.873046875 c 0
 100.351220547 219.008610348 25 273.090406543 25 342.936523438 c 0
 25 396.160251786 69.890625 438.674804688 69.890625 438.674804688 c 1x40
539.46484375 232.325195312 m 1
 489.677734375 314.269054329 406.479258045 343.6948614 283.223632812 384.606445312 c 0
 158.985330549 425.842883462 107.752929688 486.312635033 107.752929688 568.5 c 0
 107.752929688 779.239257812 434.266601562 785.163085938 434.266601562 785.163085938 c 1
 452.802734375 641.5234375 l 1
 452.802734375 641.5234375 306.8515625 641.206429463 306.8515625 576.720703125 c 0x80
 306.8515625 553.602177168 323.381574419 531.124713011 410.765625 495.126953125 c 0
 509.004248202 451.991389651 584.35546875 397.909593457 584.35546875 328.063476562 c 0
 584.35546875 274.839748214 539.46484375 232.325195312 539.46484375 232.325195312 c 1
EndSplineSet
EndChar

StartChar: currency
Encoding: 98 164 105
Width: 465
Flags: W
HStem: 153.532 128.966<200.137 266.642> 431.688 128.967<200.137 266.642>
VStem: 27.7803 133.489<302.217 412.609> 303.991 133.488<302.217 412.609>
LayerCount: 2
Fore
SplineSet
268.739257812 213.436523438 m 1
 374.889648438 246.325195312 l 1
 461.759765625 114.765625 l 1
 325.580078125 66.1455078125 l 1
 268.739257812 213.436523438 l 1
199.020507812 213.436523438 m 1
 142.1796875 66.1455078125 l 1
 3.5 114.765625 l 1
 90.3701171876 246.325195312 l 1
 199.020507812 213.436523438 l 1
268.739257812 497.74609375 m 1
 325.580078125 645.036132812 l 1
 461.759765625 596.416015625 l 1
 374.889648438 464.856445312 l 1
 268.739257812 497.74609375 l 1
199.020507812 497.74609375 m 1
 90.3701171876 464.856445312 l 1
 3.5 596.416015625 l 1
 142.1796875 645.036132812 l 1
 199.020507812 497.74609375 l 1
161.26953125 355.671875 m 0
 161.26953125 308.533632004 192.011052363 282.498046875 232.629882812 282.498046875 c 0
 273.252029808 282.498046875 303.991210938 308.533632004 303.991210938 355.671875 c 0
 303.991210938 403.73479691 273.252029808 431.688476562 232.629882812 431.688476562 c 0
 192.011052363 431.688476562 161.26953125 403.73479691 161.26953125 355.671875 c 0
27.7802734375 355.590820312 m 0
 27.7802734375 485.24609375 116.160656981 560.655273438 232.629882812 560.655273438 c 0
 349.099108643 560.655273438 437.479492188 485.24609375 437.479492188 355.590820312 c 0
 437.479492188 225.424804688 349.099108643 153.532226562 232.629882812 153.532226562 c 0
 116.160656981 153.532226562 27.7802734375 225.424804688 27.7802734375 355.590820312 c 0
EndSplineSet
EndChar

StartChar: dieresis
Encoding: 102 168 106
Width: 450
Flags: W
HStem: 574.008 165<63.7048 181.295 268.705 386.295>
VStem: 40 165<597.713 715.303> 245 165<597.713 715.303>
LayerCount: 2
Fore
SplineSet
245 656.5078125 m 0
 245 706.924804688 277.083007812 739.0078125 327.5 739.0078125 c 0
 377.916992188 739.0078125 410 706.924804688 410 656.5078125 c 0
 410 606.090820312 377.916992188 574.0078125 327.5 574.0078125 c 0
 277.083007812 574.0078125 245 606.090820312 245 656.5078125 c 0
40 656.5078125 m 0
 40 706.924804688 72.0830078125 739.0078125 122.5 739.0078125 c 0
 172.916992188 739.0078125 205 706.924804688 205 656.5078125 c 0
 205 606.090820312 172.916992188 574.0078125 122.5 574.0078125 c 0
 72.0830078125 574.0078125 40 606.090820312 40 656.5078125 c 0
EndSplineSet
EndChar

StartChar: guillemotleft
Encoding: 105 171 107
Width: 632
Flags: W
HStem: 491 20G<245.796 290.977>
LayerCount: 2
Fore
SplineSet
500.720703125 268.75 m 1
 626.69921875 151.5 l 1
 537.19921875 51.75 l 1
 311 260 l 1
 539.19921875 476.5 l 1
 626.69921875 392.5 l 1
 500.720703125 268.75 l 1
203.220703125 261.5 m 1
 371.69921875 103.5 l 1
 266.69921875 2 l 1
 -4 252 l 1
 266.69921875 511 l 1
 371.69921875 424.5 l 1
 203.220703125 261.5 l 1
EndSplineSet
EndChar

StartChar: guillemotright
Encoding: 121 187 108
Width: 632
Flags: W
HStem: 491 20G<344.31 386.656>
LayerCount: 2
Fore
SplineSet
130.978515625 244.25 m 1
 5 361.5 l 1
 94.5 461.25 l 1
 320.69921875 253 l 1
 92.5 36.5 l 1
 5 120.5 l 1
 130.978515625 244.25 l 1
428.478515625 251.5 m 1
 260 409.5 l 1
 365 511 l 1
 635.69921875 261 l 1
 365 2 l 1
 260 88.5 l 1
 428.478515625 251.5 l 1
EndSplineSet
EndChar

StartChar: logicalnot
Encoding: 106 172 109
Width: 497
Flags: W
HStem: 264.25 140.5<22.5 325.75>
VStem: 321.75 153.75<136.324 257.716>
LayerCount: 2
Fore
SplineSet
22.5 404.75 m 1
 472.75 408 l 1
 475.5 132.75 l 1
 321.75 136.32421875 l 1
 325.75 257.715820312 l 1
 19 264.25 l 1
 22.5 404.75 l 1
EndSplineSet
EndChar

StartChar: macron
Encoding: 109 175 111
Width: 330
Flags: W
HStem: 616.508 114.5<122.205 313.75> 627.508 99.5<16.25 204.295>
VStem: 12.75 304.5
LayerCount: 2
Fore
SplineSet
16.25 727.0078125 m 1x60
 317.25 731.0078125 l 1
 313.75 616.5078125 l 1xa0
 12.75 627.5078125 l 1
 16.25 727.0078125 l 1x60
EndSplineSet
EndChar

StartChar: mu
Encoding: 115 181 112
Width: 648
Flags: W
HStem: -9.93164 128.75<231.667 335.636> 0 135.927<537.849 634.38> 491.252 5.75G<47.8408 222.17 367.81 535.318>
VStem: 30 172<-106.806 499.11> 368 167.17<213.068 497.002>
LayerCount: 2
Fore
SplineSet
202 235.068359375 m 0x38
 202 4.92836574607 231 -167 231 -167 c 1
 57 -187 l 1
 57 -187 30 -6.66644428042 30 208.068359375 c 0
 30 357.174118583 47.8408203125 511.251953125 47.8408203125 511.251953125 c 1
 222.169921875 497.751953125 l 1
 222.169921875 497.751953125 202 353.57370161 202 235.068359375 c 0x38
266 -9.931640625 m 0xb8
 164.040705655 -9.931640625 119.693277311 114.604728665 107 200.568359375 c 1
 190 282.568359375 l 1
 187.923076923 171.977094292 225.48828125 118.818359375 281 118.818359375 c 0
 335.841775412 118.818359375 367.769230769 150.521262726 375 282.568359375 c 1
 422.5 213.068359375 l 1
 398.877358491 90 379.226766627 -9.931640625 266 -9.931640625 c 0xb8
363.270507812 0 m 1x78
 368 497.001953125 l 1
 535.169921875 497.001953125 l 1
 537.848632812 135.926757812 l 1
 638 137.930664062 l 1
 634.379882812 0 l 1
 363.270507812 0 l 1x78
EndSplineSet
EndChar

StartChar: acute
Encoding: 114 180 113
Width: 230
Flags: W
HStem: 519.22 221.284
VStem: 3.5 223.518
LayerCount: 2
Fore
SplineSet
141.840820312 740.50390625 m 1
 227.017578125 645.68359375 l 1
 58.9375 519.219726562 l 1
 3.5 579.965820312 l 1
 141.840820312 740.50390625 l 1
EndSplineSet
EndChar

StartChar: plusminus
Encoding: 111 177 114
Width: 450
Flags: W
HStem: 91.5 141<223 430> 103.5 126<21 258.333> 193 32.5<145 299> 340.5 139<21 261.25>
VStem: 162 130<333.882 587.25>
LayerCount: 2
Fore
SplineSet
21 479.5 m 1x18
 223 475.75 l 1
 432 482.5 l 1
 430.25 328.5 l 1
 222.25 345.25 l 1
 18.25 340.5 l 1
 21 479.5 l 1x18
300 609.5 m 1
 292 431.5 l 1
 299 191 l 1
 145 193 l 1x38
 162 432.5 l 1
 154 612.5 l 1
 300 609.5 l 1
21 229.5 m 1x58
 223 225.5 l 1x38
 432 232.5 l 1
 430 91.5 l 1x98
 18 103.5 l 1
 21 229.5 l 1x58
EndSplineSet
EndChar

StartChar: copyright
Encoding: 103 169 116
Width: 795
Flags: W
HStem: -10.0664 93.377<285.409 515.633> 139.745 112.95<358.167 523.131> 477.506 111.675<363.507 509.121> 648.14 90.7939<285.409 515.633>
VStem: 22.5 100.5<241.706 484.616> 189.354 130.275<290.91 434.774> 679.117 93.3828<244.876 481.359>
LayerCount: 2
Fore
SplineSet
189.354492188 362.9453125 m 0
 189.354492188 501.200345084 276.446140256 589.180664062 413.3046875 589.180664062 c 0
 518.109375589 589.180664062 562.654296875 543.489257812 562.654296875 543.489257812 c 1
 527.017578125 442.704650879 l 1
 527.017578125 442.704650879 490.55379051 477.505859375 433.854492188 477.505859375 c 0
 364.049950355 477.505859375 319.629577637 432.955176344 319.629577637 362.9453125 c 0
 319.629577637 295.57014784 356.854249492 252.69543457 429.654296875 252.69543457 c 0
 505.285862201 252.69543457 543.59375 287.979064941 543.59375 287.979064941 c 1
 571.791992188 178.299804688 l 1
 571.791992188 178.299804688 531.697264902 139.745117188 407.3046875 139.745117188 c 0
 274.112809456 139.745117188 189.354492188 226.544541099 189.354492188 362.9453125 c 0
22.5 361.93359375 m 0
 22.5 592.322641811 168.138730772 738.93359375 397 738.93359375 c 0
 626.472695994 738.93359375 772.5 592.322641811 772.5 361.93359375 c 0
 772.5 134.599173678 626.472695994 -10.06640625 397 -10.06640625 c 0
 168.138730772 -10.06640625 22.5 134.599173678 22.5 361.93359375 c 0
123 361.93359375 m 0
 123 191.663587734 229.943489584 83.310546875 398 83.310546875 c 0
 569.794290068 83.310546875 679.1171875 191.663587734 679.1171875 361.93359375 c 0
 679.1171875 536.838678091 569.794290068 648.139648438 398 648.139648438 c 0
 229.943489584 648.139648438 123 536.838678091 123 361.93359375 c 0
EndSplineSet
EndChar

StartChar: registered
Encoding: 108 174 117
Width: 795
Flags: W
HStem: -10.0664 93.377<285.409 515.633> 477.068 106.726<378.515 470.454> 477.068 30.7549<320.166 375.106> 648.14 90.7939<285.409 515.633>
VStem: 22.5 100.5<241.706 484.616> 259.366 117.739<140.398 296.546 373.425 507.823> 483.817 118.613<374.793 462.715> 679.117 93.3828<244.876 481.359>
LayerCount: 2
Fore
SplineSet
377.10546875 140.3984375 m 1xbf
 259.366210938 140.3984375 l 1
 263.068359375 507.823242188 l 1
 375.106445312 507.823242188 l 1
 377.10546875 140.3984375 l 1xbf
353.596679688 373.424804688 m 1
 353.596679688 373.424804688 368.69181718 360.858398438 416.017028809 360.858398438 c 0
 459.135652698 360.858398438 483.816833496 385.642747715 483.816833496 418.158508301 c 0
 483.816833496 454.563421641 459.506159068 477.068359375 406.87890625 477.068359375 c 0
 320.165510101 477.068359375 210.015625 432.817382812 210.015625 432.817382812 c 1
 186.37890625 540.427734375 l 1
 186.37890625 540.427734375 254.635684761 583.793945312 415.229492188 583.793945312 c 0xdf
 529.629806858 583.793945312 602.4296875 523.346725276 602.4296875 428.358398438 c 0
 602.4296875 354.888262989 556.694534463 319.678068989 527.70690918 304.815612793 c 0
 513.713954344 297.715425959 503.172851562 295.22253418 503.172851562 295.22253418 c 1
 608.016601562 222.098510742 l 1
 538.041015625 126.323242188 l 1
 325.358398438 296.546020508 l 1
 353.596679688 373.424804688 l 1
22.5 361.93359375 m 0
 22.5 592.322641811 168.138730772 738.93359375 397 738.93359375 c 0
 626.472695994 738.93359375 772.5 592.322641811 772.5 361.93359375 c 0
 772.5 134.599173678 626.472695994 -10.06640625 397 -10.06640625 c 0
 168.138730772 -10.06640625 22.5 134.599173678 22.5 361.93359375 c 0
123 361.93359375 m 0
 123 191.663587734 229.943489584 83.310546875 398 83.310546875 c 0
 569.794290068 83.310546875 679.1171875 191.663587734 679.1171875 361.93359375 c 0
 679.1171875 536.838678091 569.794290068 648.139648438 398 648.139648438 c 0
 229.943489584 648.139648438 123 536.838678091 123 361.93359375 c 0
EndSplineSet
EndChar

StartChar: degree
Encoding: 110 176 118
Width: 429
Flags: W
HStem: 360.113 116.803<166.292 262.972> 622.093 116.899<165.776 263.492>
VStem: 21.5 126.884<493.905 606.033> 281.184 126.916<493.905 606.033>
LayerCount: 2
Fore
SplineSet
148.383789062 550.416015625 m 0
 148.383789062 505.500061036 174.086629797 476.916015625 214.479492188 476.916015625 c 0
 255.243184112 476.916015625 281.18359375 505.500061036 281.18359375 550.416015625 c 0
 281.18359375 594.21898118 255.243184112 622.092773438 214.479492188 622.092773438 c 0
 174.086629797 622.092773438 148.383789062 594.21898118 148.383789062 550.416015625 c 0
21.5 550.512695312 m 0
 21.5 665.694553238 96.5475264601 738.9921875 214.479492188 738.9921875 c 0
 332.803058644 738.9921875 408.099609375 665.694553238 408.099609375 550.512695312 c 0
 408.099609375 434.1570121 332.803058644 360.11328125 214.479492188 360.11328125 c 0
 96.5475264601 360.11328125 21.5 434.1570121 21.5 550.512695312 c 0
EndSplineSet
EndChar

StartChar: AE
Encoding: 132 198 119
Width: 960
Flags: W
HStem: 0 156.48<664.018 941.539> 155.75 143.5<259.5 461.122> 285.5 157<645.878 889> 295.75 6.75<533 578> 568.08 162.928<181.5 472.984 661.104 933.729>
VStem: 537 124.104<302.5 439.25>
LayerCount: 2
Fore
SplineSet
259.5 299.25 m 1x4c
 578 302.5 l 1x1c
 574 145.5 l 1
 218 155.75 l 1
 259.5 299.25 l 1x4c
933.729492188 731.010742188 m 1
 939.61328125 569 l 1
 661.103515625 573 l 1
 664.017578125 156.48046875 l 1
 674.064453125 156.29296875 l 1
 945.159179688 157.930664062 l 1
 941.5390625 0 l 1
 468.4296875 0 l 1x8c
 473.151367188 575.083984375 l 1
 172.5 568.080078125 l 1
 181.5 731.0078125 l 1
 933.729492188 731.010742188 l 1
537 439.25 m 1
 893 442.5 l 1
 889 285.5 l 1x2c
 533 295.75 l 1x1c
 537 439.25 l 1
544.5 607.5 m 1
 163.569335938 -15 l 1
 -4.7265625 90.5 l 1
 419 673 l 1
 544.5 607.5 l 1
EndSplineSet
EndChar

StartChar: ae
Encoding: 164 230 120
Width: 880
Flags: W
HStem: -23.9004 133.051<642.186 774.319> -10.0664 117.75<196.654 318.541> 194.25 98.75<501.75 711> 233.684 103.25<196.964 318.136> 377.434 129.5<569.395 684.183> 501 20G<169.612 173>
VStem: 22.5 156.5<126.943 214.769> 336.5 123<126.126 190.687> 372.5 498.619<197.27 377.779>
LayerCount: 2
Fore
SplineSet
336.5 173.18359375 m 0x53
 336.5 208.190254643 306.069317719 233.68359375 258.25 233.68359375 c 0
 209.819317986 233.68359375 179 208.190254643 179 173.18359375 c 0
 179 133.720593682 209.819317986 107.68359375 258.25 107.68359375 c 0
 306.069317719 107.68359375 336.5 133.720593682 336.5 173.18359375 c 0x53
459.5 138.93359375 m 0
 459.5 90.0803561741 398.692326473 -10.06640625 238 -10.06640625 c 0
 106.305330717 -10.06640625 22.5 61.0999238612 22.5 172.93359375 c 0
 22.5 273.156548714 99.4992000499 336.93359375 220.5 336.93359375 c 0
 386.146127886 336.93359375 459.5 219.943551801 459.5 138.93359375 c 0
473.848632812 150.926757812 m 1
 339.770507812 151 l 1
 339.770507812 151 344.5 244.29296875 344.5 307.75 c 0
 344.5 387.766416139 152.5 400 152.5 400 c 1
 173 521 l 1x06
 173 521 471.169921875 513.875646888 471.169921875 297.001953125 c 0
 471.169921875 241.854141501 473.848632812 150.926757812 473.848632812 150.926757812 c 1
EndSplineSet
Refer: 9 101 N 1 0 0 1 350 0 2
EndChar

StartChar: cedilla
Encoding: 118 184 121
Width: 227
Flags: W
HStem: -248 77<12 100.124> -99.75 119.75<37 102.659>
VStem: 105.5 99<-161.143 -108.34>
LayerCount: 2
Fore
SplineSet
37 20 m 1
 125 17 l 1
 105.5 -48.5 l 1
 105.5 -48.5 204.5 -54.6650992685 204.5 -136 c 0
 204.5 -216.730463477 139.030456853 -242 12 -248 c 1
 6 -171 l 1
 76.5545454546 -170.498863637 105.5 -160.543477809 105.5 -134.25 c 0
 105.5 -111.012396694 83.9608171586 -101.123372503 20 -99.75 c 1
 13 -55.75 l 1
 37 20 l 1
EndSplineSet
EndChar

StartChar: paragraph
Encoding: 116 182 124
Width: 823
Flags: W
HStem: 580.992 158<430.1 512.5 674.261 709.052>
VStem: 25 405.1<375.734 576.855> 255.5 174.6<-173.994 2.06067> 272 158.1<64.9374 243.185> 512.5 173<-173.994 293.462> 512.5 161.761<109.101 576.557>
LayerCount: 2
Fore
SplineSet
798 714.984375 m 1xc0
 787 567.984375 l 1
 787 567.984375 716.164154844 575.9921875 674.260742188 576.556640625 c 1xc4
 685.5 -173.994140625 l 1
 512.5 -173.994140625 l 1x88
 512.5 580.9921875 l 1
 430.099609375 580.9921875 l 1x94
 430.099609375 -173.994140625 l 1
 255.5 -173.994140625 l 1xa0
 272 240.9921875 l 1x90
 127.310749907 253.871308694 25 324.077035731 25 485.9921875 c 0
 25 667.805875713 150.172347359 738.9921875 388 738.9921875 c 0
 647.184144631 738.9921875 798 714.984375 798 714.984375 c 1xc0
EndSplineSet
EndChar

StartChar: Eth
Encoding: 142 208 125
Width: 783
Flags: W
HStem: -10.0664 177.75<319.027 478.312> 272.5 157<180.409 451.5> 283.5 142<29 296.591> 558.742 50.5078<173.88 315.67> 558.742 180.25<323.635 477.992>
VStem: 133.94 181.729<171.347 609.25> 568.417 193<260.914 464.305>
LayerCount: 2
Fore
SplineSet
29 425.5 m 1xa6
 455 429.5 l 1
 451.5 272.5 l 1xc6
 25.5 283.5 l 1
 29 425.5 l 1xa6
EndSplineSet
Refer: 57 68 N 1 0 0 1 0 0 2
EndChar

StartChar: eth
Encoding: 174 240 126
Width: 585
Flags: W
HStem: -10.0664 149.925<226.606 348.925> 356.009 150.925<224.186 351.18> 512.466 21G<173.423 219.761>
VStem: 22.5 166.375<177.667 320.657> 386.125 176.375<177.83 480.094>
LayerCount: 2
Fore
SplineSet
135.901367188 611.920898438 m 1
 306.440429688 684.025390625 l 1
 460.33984375 774.794921875 l 1
 513.955078125 661.89453125 l 1
 344.1171875 599.879882812 l 1
 182.868164062 512.465820312 l 1
 135.901367188 611.920898438 l 1
188.875 250.608398438 m 0
 188.875 182.927716385 227.044338642 139.858398438 287.025390625 139.858398438 c 0
 347.58652027 139.858398438 386.125 182.927716385 386.125 250.608398438 c 0
 386.125 315.02012059 347.58652027 356.008789062 287.025390625 356.008789062 c 0
 227.044338642 356.008789062 188.875 315.02012059 188.875 250.608398438 c 0
22.5 249.93359375 m 0
 22.5 406.989257812 113.694345438 506.93359375 257 506.93359375 c 0
 337.073284334 506.93359375 360.40234375 483.557617188 360.40234375 483.557617188 c 1
 318.188660352 631.928820389 157.021484375 693.267578125 157.021484375 693.267578125 c 1
 320.020507812 782.510742188 l 1
 320.020507812 782.510742188 562.5 639.959487241 562.5 312 c 0
 562.5 76.5609773511 455.361458712 -10.06640625 287 -10.06640625 c 0
 125.360999438 -10.06640625 22.5 91.0439453125 22.5 249.93359375 c 0
EndSplineSet
EndChar

StartChar: multiply
Encoding: 149 215 127
Width: 450
Flags: W
LayerCount: 2
Fore
SplineSet
323.034179688 568.0859375 m 1
 429 466.36328125 l 1
 281.17578125 335.126953125 l 1
 134.036132812 158.670898438 l 1
 23.12109375 266.7578125 l 1
 190.068359375 419.594726562 l 1
 323.034179688 568.0859375 l 1
129.086914062 568.0859375 m 1
 264.552734375 419.594726562 l 1
 429 266.7578125 l 1
 318.084960938 158.670898438 l 1
 172.1953125 335.126953125 l 1
 23.12109375 466.36328125 l 1
 129.086914062 568.0859375 l 1
EndSplineSet
EndChar

StartChar: divide
Encoding: 181 247 128
Width: 450
Flags: W
HStem: 126.75 155<163.021 286.979> 312.75 116.5<32.5 418.5> 457.25 155<163.021 286.979>
VStem: 140 170<149.018 259.482 479.518 589.982>
LayerCount: 2
Fore
SplineSet
140 534.75 m 0
 140 582.111711774 173.055555556 612.25 225 612.25 c 0
 276.944444444 612.25 310 582.111711774 310 534.75 c 0
 310 487.388288226 276.944444444 457.25 225 457.25 c 0
 173.055555556 457.25 140 487.388288226 140 534.75 c 0
31.5 429.25 m 1
 422.5 433.25 l 1
 418.5 308.75 l 1
 32.5 312.75 l 1
 31.5 429.25 l 1
140 204.25 m 0
 140 251.611711774 173.055555556 281.75 225 281.75 c 0
 276.944444444 281.75 310 251.611711774 310 204.25 c 0
 310 156.888288226 276.944444444 126.75 225 126.75 c 0
 173.055555556 126.75 140 156.888288226 140 204.25 c 0
EndSplineSet
EndChar

StartChar: Oslash
Encoding: 150 216 129
Width: 785
Flags: W
HStem: -10.0664 184.601<306.335 471.49> 554.333 184.601<306.335 471.49>
VStem: 25 195.487<262.5 463.241> 564.513 195.487<269.203 456.417>
LayerCount: 2
Fore
SplineSet
715.94921875 723.18359375 m 1
 437.330078125 346.049804688 l 1
 190.37890625 -84.75 l 1
 71.55078125 -13.25 l 1
 354.029296875 381.950195312 l 1
 603.720703125 797.68359375 l 1
 715.94921875 723.18359375 l 1
EndSplineSet
Refer: 43 79 N 1 0 0 1 0 0 2
EndChar

StartChar: oslash
Encoding: 182 248 130
Width: 565
Flags: W
HStem: -10.0664 149.175<222.313 345.399> 357.759 149.175<218.973 345.399>
VStem: 22.5 161.875<177.292 321.129> 380.375 162.125<178.278 320.168>
LayerCount: 2
Fore
SplineSet
508.0390625 506.138671875 m 1
 315.294921875 242.315429688 l 1
 142.185546875 -44.7802734375 l 1
 64.4609375 3.599609375 l 1
 259.59765625 268.624023438 l 1
 434.40625 556.37890625 l 1
 508.0390625 506.138671875 l 1
EndSplineSet
Refer: 3 111 N 1 0 0 1 0 0 2
EndChar

StartChar: Thorn
Encoding: 156 222 131
Width: 714
Flags: W
HStem: 0 21G<132.708 329.037> 117.434 146.5<329.604 478.529> 462.492 155<327.963 477.727> 575.084 155.927<22.498 137.029>
VStem: 132.708 196.329<0 164.434 297.377 428.428> 513.917 183<297.649 428.112>
LayerCount: 2
Fore
SplineSet
279.196289062 297.376953125 m 1xec
 279.196289062 297.376953125 312.287882002 263.93359375 397.916992188 263.93359375 c 0
 473.946878685 263.93359375 513.916992188 300.642702793 513.916992188 359.93359375 c 0
 513.916992188 428.605557163 475.583984375 462.4921875 390.916992188 462.4921875 c 0
 323.815837131 462.4921875 274.26953125 428.427734375 274.26953125 428.427734375 c 1
 243 570.840820312 l 1
 243 570.840820312 312.858418726 617.4921875 424.416992188 617.4921875 c 0
 592.530467199 617.4921875 696.916992188 521.912134651 696.916992188 354.93359375 c 0
 696.916992188 210.893168132 596.583451704 117.43359375 434.416992188 117.43359375 c 0
 319.468239053 117.43359375 250.2578125 164.43359375 250.2578125 164.43359375 c 1
 279.196289062 297.376953125 l 1xec
323.607421875 731.010742188 m 1xdc
 329.037109375 0 l 1
 132.708007812 0 l 1
 137.029296875 575.083984375 l 1
 18.8779296875 573.080078125 l 1
 22.498046875 731.010742188 l 1
 323.607421875 731.010742188 l 1xdc
EndSplineSet
EndChar

StartChar: thorn
Encoding: 188 254 132
Width: 677
Flags: W
HStem: -10.0664 145<323.494 450.594> 361.934 145<323.107 451.558> 619.084 135.927<13.6201 108.151>
VStem: 108.151 166.578<240.434 619.084> 194.5 85.6592<72.4824 403.593> 490.25 164.25<176.912 321.56>
LayerCount: 2
Fore
SplineSet
284.75 249.93359375 m 0xe4
 284.75 179.655566406 324.513506307 134.93359375 387 134.93359375 c 0
 450.097858776 134.93359375 490.25 179.655566406 490.25 249.93359375 c 0
 490.25 318.378664625 450.097858776 361.93359375 387 361.93359375 c 0
 324.513506307 361.93359375 284.75 318.378664625 284.75 249.93359375 c 0xe4
194.5 240.43359375 m 0xec
 194.5 403.593411968 274.065950234 506.93359375 424 506.93359375 c 0
 564.861769291 506.93359375 654.5 406.989257812 654.5 249.93359375 c 0
 654.5 91.0439453125 564.861769291 -10.06640625 424 -10.06640625 c 0
 283.749561192 -10.06640625 194.5 72.4823670269 194.5 240.43359375 c 0xec
274.729492188 755.010742188 m 1xf4
 280.159179688 -174 l 1xec
 103.830078125 -174 l 1
 108.151367188 619.083984375 l 1
 10 617.080078125 l 1
 13.6201171875 755.010742188 l 1
 274.729492188 755.010742188 l 1xf4
EndSplineSet
EndChar

StartChar: kgreenlandic
Encoding: 246 312 133
Width: 615
Flags: W
HStem: 0 21G<111.33 287.659> 361.084 135.927<13.6201 115.651> 494 20G<439.585 481.035>
VStem: 111.33 176.329<0 361.084>
LayerCount: 2
Fore
SplineSet
458.5 514 m 1xb0
 578.5 407.5 l 1
 413.5 255 l 1
 600.5 97 l 1
 471 -17 l 1
 214.5 256 l 1
 458.5 514 l 1xb0
282.229492188 497.010742188 m 1xd0
 287.659179688 0 l 1
 111.330078125 0 l 1
 115.651367188 361.083984375 l 1
 10 359.080078125 l 1
 13.6201171875 497.010742188 l 1
 282.229492188 497.010742188 l 1xd0
EndSplineSet
EndChar

StartChar: Eng
Encoding: 264 330 134
Width: 830
Flags: W
HStem: 0 21G<128.83 325.159> 570.492 168.5<402.134 530.994> 573.08 157.931<18.6201 133.151>
VStem: 128.83 196.329<0 445.992> 583.622 197.25<69.1366 510.507>
LayerCount: 2
Back
SplineSet
242.872070312 445.9921875 m 1xb8
 269.833984375 629.037109375 354.872070312 738.9921875 530.872070312 738.9921875 c 0
 688.88671875 738.9921875 785.872070312 652.708007812 785.872070312 430.9921875 c 0
 785.872070312 211.653320312 768.03125 -15 768.03125 -15 c 1
 546.702148438 0 l 1
 546.702148438 0 566.872070312 216.249023438 566.872070312 393.9921875 c 0
 566.872070312 495.55078125 538.45703125 553.9921875 457.872070312 553.9921875 c 0
 375.891601562 553.9921875 326.822265625 510.404296875 300.872070312 398.9921875 c 1
 242.872070312 445.9921875 l 1xb8
334.729492188 731.010742188 m 1
 340.159179688 0 l 1
 123.830078125 0 l 1
 128.151367188 560.083984375 l 1
 10 558.080078125 l 1
 13.6201171875 731.010742188 l 1
 334.729492188 731.010742188 l 1
EndSplineSet
Fore
SplineSet
227.872070312 445.9921875 m 1xd8
 255.302168683 629.037109375 341.816310976 738.9921875 520.872070312 738.9921875 c 0
 679.484972365 738.9921875 780.872070312 652.708007812 780.872070312 430.9921875 c 0
 780.872070312 274.59375 766.301757812 29.9814453125 766.301757812 29.9814453125 c 1
 614.392578125 -194.518554688 l 1
 438.892578125 -102.518554688 l 1
 569.22265625 67.4814453125 l 1
 569.22265625 67.4814453125 583.622070312 268.177928633 583.622070312 396.4921875 c 0
 583.622070312 506.937158203 550.971019497 570.4921875 458.372070312 570.4921875 c 0
 368.29799532 570.4921875 314.384175722 522.264295615 285.872070312 398.9921875 c 1
 227.872070312 445.9921875 l 1xd8
319.729492188 731.010742188 m 1xb8
 325.159179688 0 l 1
 128.830078125 0 l 1
 133.151367188 575.083984375 l 1
 15 573.080078125 l 1
 18.6201171875 731.010742188 l 1
 319.729492188 731.010742188 l 1xb8
EndSplineSet
EndChar

StartChar: eng
Encoding: 265 331 135
Width: 648
Flags: W
HStem: 0 21G<108.83 285.159> 361.075 135.927<13.6201 113.151> 362.934 144<313.156 421.865>
VStem: 108.83 176.329<0 253.934> 446 172<16.0035 338.473>
LayerCount: 2
Back
SplineSet
188 253.93359375 m 5xb8
 210.000338808 411.989257812 279.388472577 506.93359375 423 506.93359375 c 4
 558.0703125 506.93359375 628 429.158131451 628 278.93359375 c 4
 628 134.376986611 610.159179688 -15 610.159179688 -15 c 5
 415.830078125 0 l 5
 415.830078125 0 436 138.277935542 436 251.93359375 c 4
 436 312.868913517 418.012695312 347.93359375 367 347.93359375 c 4
 307.390237894 347.93359375 282.693825662 311.094726562 266 216.93359375 c 5
 188 253.93359375 l 5xb8
EndSplineSet
Fore
SplineSet
446 251.93359375 m 0xb8
 446 322.390057231 425.40583956 362.93359375 367 362.93359375 c 0
 301.48828125 362.93359375 274.346679688 321.876535663 256 216.93359375 c 1
 183 253.93359375 l 1
 204.766292651 411.989257812 273.416254784 506.93359375 415.5 506.93359375 c 0
 548.923113567 506.93359375 618 429.158131451 618 278.93359375 c 0
 618 170.142989767 602.159179688 0 602.159179688 0 c 1
 481.5 -199 l 1
 320.5 -118 l 1
 427.830078125 18 l 1
 427.830078125 18 446 160.698425479 446 251.93359375 c 0xb8
279.729492188 497.001953125 m 1xd8
 285.159179688 0 l 1
 108.830078125 0 l 1
 113.151367188 361.075195312 l 1
 10 359.071289062 l 1
 13.6201171875 497.001953125 l 1
 279.729492188 497.001953125 l 1xd8
EndSplineSet
EndChar

StartChar: OE
Encoding: 272 338 136
Width: 1100
Flags: W
HStem: -10.0664 184.601<306.335 471.49> 0 156.293<804.064 1081.54> 285.5 157<785.878 1029> 295.75 143.5<677 916.122> 554.333 184.601<306.335 471.49> 573 158.011<801.104 1073.73>
VStem: 25 195.487<262.5 463.241> 564.513 195.487<269.203 456.417> 673 131.018<295.75 439.25>
LayerCount: 2
Fore
SplineSet
677 439.25 m 1x1280
 1033 442.5 l 1
 1029 285.5 l 1x2280
 673 295.75 l 1
 677 439.25 l 1x1280
1073.72949219 731.010742188 m 1x4680
 1079.61328125 569 l 1
 801.103515625 573 l 1
 804.017578125 156.48046875 l 1
 804.064453125 156.29296875 l 1
 1085.15917969 157.930664062 l 1
 1081.5390625 0 l 1
 608.4296875 0 l 1
 613.151367188 731.010742188 l 1
 1073.72949219 731.010742188 l 1x4680
EndSplineSet
Refer: 43 79 N 1 0 0 1 0 0 2
EndChar

StartChar: longs
Encoding: 317 383 138
Width: 401
Flags: W
HStem: 0 21G<103.335 278.637> 359.75 137.25<16.5 187>
VStem: 84.8691 173.533<495.01 616.185> 103.335 175.302<0 364.75 399.965 477.785> 105.994 81.0059<364.75 493>
LayerCount: 2
Fore
SplineSet
105.984375 412.096679688 m 2xd0
 105.990880113 413.106853306 105.994093078 414.107760843 105.994093078 415.099594475 c 0xc8
 105.994093078 495.588727376 84.869140625 516.320443879 84.869140625 580 c 0
 84.869140625 711.412976765 183.497466618 767.86158329 357.01953125 797.84375 c 1
 380.9765625 660.374023438 l 1
 291.792149191 643.19367139 258.40234375 613.785995951 258.40234375 558.5 c 0xe0
 258.40234375 516.574403487 273.871883933 477.785127456 274.637695312 399.96484375 c 2
 278.63671875 0 l 1
 103.334960938 0 l 1
 105.984375 412.096679688 l 2xd0
187 364.75 m 1
 12 359.75 l 1
 16.5 497 l 1
 190 493 l 1
 187 364.75 l 1
EndSplineSet
EndChar

StartChar: uni018F
Encoding: 318 399 139
Width: 761
Flags: W
HStem: -9.99805 176<296.049 454.947> 292.066 150.087<234.662 612.81> 567.38 187.298<184.663 356.82>
VStem: 25 710.81<199.424 395.367>
LayerCount: 2
Back
SplineSet
20 361.93359375 m 0
 20 592.358449127 162.722067273 738.9921875 387 738.9921875 c 0
 692.703602516 738.9921875 740.809570312 528.036293548 740.809570312 395.250976562 c 0
 740.809570312 330.260178936 729.916992188 282.840820312 729.916992188 282.840820312 c 5
 148 284 l 5
 137 441 l 1
 505.647460938 445.427734375 l 1
 505.647460938 445.427734375 494.816386769 543.9921875 381 543.9921875 c 0
 300.33283944 543.9921875 249 476.30370791 249 369.93359375 c 0
 249 231.45533579 353.417075805 194.391339376 594.1484375 183.364257812 c 1
 571.146484375 -25.68359375 l 1
 248.292348682 -22.428262906 20 98.1280331654 20 361.93359375 c 0
EndSplineSet
Fore
SplineSet
735.809570312 364.560546875 m 0
 735.809570312 135.663470331 595.615278074 -9.998046875 375.309570312 -9.998046875 c 0
 72.6300878277 -9.998046875 25 199.423583165 25 331.243164062 c 0
 25 395.366725137 35.892578125 442.153320312 35.892578125 442.153320312 c 1
 612.809570312 440.994140625 l 1
 623.809570312 296.494140625 l 1
 234.662109375 292.06640625 l 1
 234.662109375 292.06640625 234.742086174 286.725710554 236.15632993 279.000000341 c 0
 241.364161746 236.007079094 274.845580658 166.001953125 380.559570312 166.001953125 c 0
 472.074019508 166.001953125 530.309570312 237.607007094 530.309570312 356.560546875 c 0
 530.309570312 513.037999283 424.766301963 556.669517871 164.911132812 567.379882812 c 1
 184.663085938 754.677734375 l 1
 512.51722163 751.401407746 735.809570312 630.067564265 735.809570312 364.560546875 c 0
EndSplineSet
EndChar

StartChar: ordfeminine
Encoding: 104 170 140
Width: 483
Flags: W
HStem: 267 96.5<52.5 443.5> 402 110<154.87 259.692> 410 103<410.5 471.5> 638 110<154.87 258.151>
VStem: 15.5 124.5<527.206 621.741> 273 137.5<535.846 613.111> 281 127.5<594 741> 281 61<490.69 688.054>
LayerCount: 2
Fore
SplineSet
51.5 363.5 m 1x98
 447.5 367.5 l 1
 443.5 263 l 1
 52.5 267 l 1
 51.5 363.5 l 1x98
273 574 m 0xdc
 273 613.111111111 248.155172413 638 207.5 638 c 0
 167 638 140 613.111111111 140 574 c 0
 140 535.846153846 167 512 207.5 512 c 0
 248.155172413 512 273 535.846153846 273 574 c 0xdc
342 594 m 0xd9
 342 490.69035533 285 402 178 402 c 0
 78.5303030303 402 15.5 469 15.5 574 c 0
 15.5 680 78.5303030303 748 178 748 c 0
 278 748 342 688.053691276 342 594 c 0xd9
278 410 m 1xbc
 281 741 l 1
 408.5 741 l 1xba
 410.5 513 l 1
 473.5 515 l 1
 471.5 410 l 1
 278 410 l 1xbc
EndSplineSet
EndChar

StartChar: ordmasculine
Encoding: 120 186 141
Width: 399
Flags: W
HStem: 267 96.5<22.5 372.5> 403 114<148.797 249.944> 634 114<148.797 249.944>
VStem: 15.5 120<530.203 619.889> 263.5 120<529.77 620.318>
LayerCount: 2
Fore
SplineSet
21.5 363.5 m 1
 376.5 367.5 l 1
 372.5 263 l 1
 22.5 267 l 1
 21.5 363.5 l 1
135.5 576 m 0
 135.5 539.877551021 160.839285714 517 200 517 c 0
 239.254545455 517 263.5 539.877551021 263.5 576 c 0
 263.5 611.041666667 239.254545455 634 200 634 c 0
 160.839285714 634 135.5 611.041666667 135.5 576 c 0
15.5 577 m 0
 15.5 682 86.5322580645 748 199 748 c 0
 311.475935829 748 383.5 682 383.5 577 c 0
 383.5 471 311.475935829 403 199 403 c 0
 86.5322580645 403 15.5 471 15.5 577 c 0
EndSplineSet
EndChar

StartChar: germandbls
Encoding: 157 223 142
Width: 688
Flags: W
HStem: 0 21G<103.335 278.637> 359.75 137.25<16.5 187.5> 633.874 140.97<287.275 427.169>
VStem: 91.6191 170.533<496.12 608.64> 103.335 175.302<0 364.75 399.965 473.734> 106.002 81.4983<364.75 493> 460.009 171.991<484.182 599.424> 480.438 182.852<132.648 196.117>
LayerCount: 2
Fore
SplineSet
190 493 m 1xe4
 187.5 364.75 l 1
 12 359.75 l 1
 16.5 497 l 1
 190 493 l 1xe4
105.984375 412.096679688 m 2
 105.995908431 413.890619187 106.00165359 415.656015111 106.00165359 417.393895614 c 0xe4
 106.00165359 493.85246416 91.619140625 514.189677815 91.619140625 575.5 c 0
 91.619140625 695.752959228 189.565006955 774.84375 362.01953125 774.84375 c 0
 524.32874797 774.84375 632 699.824164463 632 531.93359375 c 0xf2
 632 452.268883776 606.982421875 391.450195312 606.982421875 391.450195312 c 1
 606.982421875 391.450195312 510.931640625 386.946740707 510.931640625 348 c 0
 510.931640625 333.085138148 520.19928948 322.68073762 566.374023438 301.440185547 c 0
 635.903541879 269.134764807 663.2890625 230.635442466 663.2890625 168.25 c 0
 663.2890625 -19.9769601507 365.5390625 -23.900390625 365.5390625 -23.900390625 c 1
 346.319335938 103.150390625 l 1
 346.319335938 103.150390625 480.4375 108.973320715 480.4375 161.5 c 0xe1
 480.4375 183.697407204 465.325907046 195.448374738 427.036132812 213.450195312 c 0
 351.855197769 250.56876663 325 282.574868594 325 339.25 c 0
 325 420.042580337 385.199356298 462.866658069 454.892578125 485.552734375 c 1
 454.892578125 485.552734375 460.008789062 503.784276053 460.008789062 533.666015625 c 0
 460.008789062 590.274212519 429.809905872 633.874023438 356.5 633.874023438 c 0
 287.33758552 633.874023438 262.15234375 595.620233204 262.15234375 550.25 c 0xf2
 262.15234375 510.506166696 273.900114562 473.734446233 274.637695312 399.96484375 c 2
 278.63671875 0 l 1
 103.334960938 0 l 1xe8
 105.984375 412.096679688 l 2
EndSplineSet
EndChar

StartChar: florin
Encoding: 319 402 144
Width: 433
Flags: W
HStem: 359.75 137.25<16.5 227.558> 480 20G<190 408.036>
VStem: 84.8691 173.533<495.717 616.185> 105.994 168.644<20 477.714>
LayerCount: 2
Fore
SplineSet
16.5 497 m 1x80
 190 493 l 1
 408.5 500 l 1x40
 405 349 l 1
 187 364.75 l 1
 12 359.75 l 1
 16.5 497 l 1x80
278.63671875 0 m 1
 157.977539062 -199 l 1
 -3.0224609375 -118 l 1
 102.307617188 20 l 1
 105.984375 412.096679688 l 2
 105.994026862 413.125973228 105.994140625 414.120894614 105.994140625 415.099609375 c 0x10
 105.994140625 494.065459228 84.869140625 515.800022262 84.869140625 580 c 0
 84.869140625 711.412976765 183.497466618 767.86158329 357.01953125 797.84375 c 1
 380.9765625 660.374023438 l 1
 291.792149191 643.193671391 258.40234375 613.78599595 258.40234375 558.5 c 0x20
 258.40234375 516.574403487 273.860324181 477.714106252 274.637695312 399.96484375 c 2x10
 278.63671875 0 l 1
EndSplineSet
EndChar

StartChar: circumflex
Encoding: 427 710 145
Width: 332
Flags: W
HStem: 522 226
VStem: 0 332
LayerCount: 2
Fore
SplineSet
164 748 m 1
 332 609.5 l 1
 251.5 522 l 1
 165 620 l 1
 76.5 527 l 1
 0 603.5 l 1
 164 748 l 1
EndSplineSet
EndChar

StartChar: caron
Encoding: 428 711 146
Width: 332
Flags: W
HStem: 521 226
VStem: 0 332
LayerCount: 2
Fore
SplineSet
168 521 m 1
 0 659.5 l 1
 80.5 747 l 1
 167 649 l 1
 255.5 742 l 1
 332 665.5 l 1
 168 521 l 1
EndSplineSet
EndChar

StartChar: tilde
Encoding: 434 732 147
Width: 384
Flags: W
HStem: 531.937 215.725 713.706 20G<287.767 325.754>
LayerCount: 2
Fore
SplineSet
246.071289062 666.629882812 m 1x80
 305.48046875 733.706054688 l 1x40
 381.16015625 659.045898438 l 1
 246.280273438 531.936523438 l 1
 144.58984375 612.967773438 l 1
 78.1806640625 545.890625 l 1
 3.5 621.551757812 l 1
 143.380859375 747.661132812 l 1
 246.071289062 666.629882812 l 1x80
EndSplineSet
EndChar

StartChar: zero.superior
Encoding: 660 8304 148
Width: 449
Flags: W
HStem: 342 122.25<173.691 276.097> 720.75 122.25<173.691 273.382>
VStem: 14.3125 126.312<503.191 683.627> 309.188 126.312<503.191 683.627>
LayerCount: 2
Fore
SplineSet
140.625 591 m 0
 140.625 514 173.1875 464.25 224.8125 464.25 c 0
 276.4375 464.25 309.1875 514 309.1875 591 c 0
 309.1875 670.8125 276.4375 720.75 224.8125 720.75 c 0
 173.1875 720.75 140.625 670.8125 140.625 591 c 0
14.3125 591 m 0
 14.3125 745 96.5625 843 224.8125 843 c 0
 353.875 843 435.5 745 435.5 591 c 0
 435.5 439 353.875 342 224.8125 342 c 0
 96.5625 342 14.3125 439 14.3125 591 c 0
EndSplineSet
EndChar

StartChar: one.superior
Encoding: 119 185 149
Width: 245
Flags: W
HStem: 730.25 106.75<12.25 92.75>
VStem: 89.75 132.75<350 731.25>
LayerCount: 2
Fore
SplineSet
219.3125 837 m 1
 222.5 350 l 1
 89.75 350 l 1
 92.75 731.25 l 1
 9.4375 730.25 l 1
 12.25 837 l 1
 219.3125 837 l 1
EndSplineSet
EndChar

StartChar: two.superior
Encoding: 112 178 150
Width: 396
Flags: W
HStem: 350 115.188<219.188 375.125> 726.625 116.375<82.297 211.398>
VStem: 229.75 137.625<592.333 709.658>
LayerCount: 2
Fore
SplineSet
219.1875 465.1875 m 1
 380.375 469.1875 l 1
 375.125 350 l 1
 22.4375 350 l 1
 15.625 441.1875 l 1
 15.625 441.1875 229.75 541.3125 229.75 653.5625 c 0
 229.75 702.9375 202.0625 726.625 154.875 726.625 c 0
 94.6875 726.625 58 685.5 58 685.5 c 1
 13.4375 792.8125 l 1
 13.4375 792.8125 76.25 843 182.3125 843 c 0
 301.875 843 367.375 781 367.375 683 c 0
 367.375 536.625 219.1875 465.1875 219.1875 465.1875 c 1
EndSplineSet
EndChar

StartChar: three.superior
Encoding: 113 179 151
Width: 387
Flags: W
HStem: 343 107.75<35.6517 222.157> 718.312 118.688<22.4375 192.562>
VStem: 234.312 136.438<462.829 540.374>
LayerCount: 2
Fore
SplineSet
254.6875 630 m 1
 256.9375 630 266.5 629 280.125 624.5625 c 0
 317.1875 613.5625 370.75 579.25 370.75 494.1875 c 0
 370.75 395.1875 295.5 343 178 343 c 0
 58.6875 343 7.625 372 7.625 372 c 1
 35.125 477.75 l 1
 35.125 477.75 86.3125 450.75 157.5 450.75 c 0
 211.6875 450.75 234.3125 470.375 234.3125 503.5 c 0
 234.3125 532.5 211.0625 551.75 164.75 551.75 c 0
 125.3125 551.75 104 544.4375 104 544.4375 c 1
 86.8125 613.25 l 1
 192.5625 718.3125 l 1
 16 714.875 l 1
 22.4375 837 l 1
 350.5625 837 l 1
 356.75 741.5 l 1
 254.6875 630 l 1
EndSplineSet
EndChar

StartChar: four.superior
Encoding: 661 8308 152
Width: 468
Flags: W
HStem: 465.75 105.562<159.562 447.188>
LayerCount: 2
Fore
SplineSet
374.9375 743.5625 m 1
 378.9375 350 l 1
 251 350 l 1
 255 743.5625 l 1
 374.9375 743.5625 l 1
207.625 854 m 1
 312.875 788.5625 l 1
 159.5625 571.3125 l 1
 450.625 573.75 l 1
 447.1875 461.3125 l 1
 34.375 465.75 l 1
 11.4375 541.3125 l 1
 207.625 854 l 1
EndSplineSet
EndChar

StartChar: five.superior
Encoding: 662 8309 153
Width: 391
Flags: W
HStem: 342.812 107.938<51.0591 227.565> 568.188 100.062<142.771 227.833> 724.625 112.375<154.125 344.688>
VStem: 241.625 133.438<466.569 554.006>
LayerCount: 2
Fore
SplineSet
344.6875 723.625 m 1
 154.125 724.625 l 1
 141.875 653.4375 l 1
 141.875 653.4375 161.5625 668.25 216.625 668.25 c 0
 330 668.25 375.0625 606.25 375.0625 512.875 c 0
 375.0625 394.625 299.0625 342.8125 180.0625 342.8125 c 0
 59.25 342.8125 7.625 379 7.625 379 c 1
 34.875 480.125 l 1
 34.875 480.125 88.1875 450.75 161.25 450.75 c 0
 215.4375 450.75 241.625 474.375 241.625 511.6875 c 0
 241.625 546.1875 215.375 568.1875 162.625 568.1875 c 0
 114.875 568.1875 86.4375 544.4375 86.4375 544.4375 c 1
 16.1875 603.5 l 1
 56.5625 837 l 1
 344.6875 837 l 1
 344.6875 723.625 l 1
EndSplineSet
EndChar

StartChar: six.superior
Encoding: 663 8310 154
Width: 411
Flags: W
HStem: 342 108.125<162.097 258.186> 579.188 94.625<160.704 258.954> 735.625 113.375<238.634 330.969>
VStem: 15.625 131.875<465.613 617.729> 272.688 123.062<464.648 564.912>
LayerCount: 2
Fore
SplineSet
330.0625 849 m 1
 344.75 735.625 l 1
 163.4375 721.1875 157.0625 653.1875 157.0625 653.1875 c 1
 157.0625 653.1875 180.75 673.8125 245.4375 673.8125 c 0
 337.875 673.8125 395.75 612.25 395.75 518.6875 c 0
 395.75 419.75 344.3125 342 210.1875 342 c 0
 93.6875 342 15.625 404.3125 15.625 553 c 0
 15.625 695 90.875 835 330.0625 849 c 1
147.5 515.25 m 0
 147.5 475.125 172.3125 450.125 210.1875 450.125 c 0
 248.6875 450.125 272.6875 475.125 272.6875 515.25 c 0
 272.6875 554.5625 248.6875 579.1875 210.1875 579.1875 c 0
 172.3125 579.1875 147.5 554.5625 147.5 515.25 c 0
EndSplineSet
EndChar

StartChar: seven.superior
Encoding: 664 8311 155
Width: 378
Flags: W
HStem: 721.25 115.75<130.688 238.375>
LayerCount: 2
Fore
SplineSet
7.4375 638.25 m 1
 27.8125 837 l 1
 350.4375 837 l 1
 382.9375 759.3125 l 1
 225.1875 338.8125 l 1
 93.1875 378.8125 l 1
 238.375 722.25 l 1
 130.6875 721.25 l 1
 119.5 627.5625 l 1
 7.4375 638.25 l 1
EndSplineSet
EndChar

StartChar: eight.superior
Encoding: 665 8312 156
Width: 406
Flags: W
HStem: 342 106.875<147.829 251.533> 738.5 104.5<159.173 251.535>
VStem: 15.625 122.062<460.418 543.941> 32.8125 121.25<666.568 731.329> 258.438 113.625<653.582 731.739> 259.125 131.75<457.968 530.404>
LayerCount: 2
Fore
SplineSet
199.75 448.875 m 0xe4
 236.5625 448.875 259.125 465.75 259.125 493.75 c 0xe4
 259.125 521.1875 238.875 535.625 177.875 556.75 c 0
 81.25 590.4375 32.8125 635.6875 32.8125 708 c 0
 32.8125 791 100.0625 843 205.9375 843 c 0
 307.8125 843 372.0625 796.8125 372.0625 712.8125 c 0
 372.0625 621 268.3125 587.0625 268.3125 587.0625 c 1
 197.3125 624.0625 l 1
 197.3125 624.0625 258.4375 653.875 258.4375 693.4375 c 0
 258.4375 721.625 238.4375 738.5 205.75 738.5 c 0
 173.875 738.5 154.0625 722.625 154.0625 697.4375 c 0xd8
 154.0625 674.625 170.5625 663.3125 222.375 649.25 c 0
 346.0625 615.875 390.875 573.375 390.875 491.6875 c 0
 390.875 398.4375 321.25 342 204.5625 342 c 0
 91.6875 342 15.625 397 15.625 481 c 0
 15.625 575.8125 114.375 606.75 114.375 606.75 c 1
 189.125 565.5625 l 1
 189.125 565.5625 137.6875 543.6875 137.6875 496.75 c 0
 137.6875 467.75 161.875 448.875 199.75 448.875 c 0xe4
EndSplineSet
EndChar

StartChar: nine.superior
Encoding: 666 8313 157
Width: 411
Flags: W
HStem: 336 113.375<80.4558 178.132> 511.375 94.4375<152.998 251.064> 734.875 108.125<153.425 249.631>
VStem: 15.625 123.062<620.095 720.352> 264.062 131.875<567.271 719.387>
LayerCount: 2
Fore
SplineSet
81.3125 336 m 1
 67.4375 449.375 l 1
 248.9375 463.8125 255.125 532 255.125 532 c 1
 255.125 532 231.4375 511.375 166.75 511.375 c 0
 74.3125 511.375 15.625 572.75 15.625 666.3125 c 0
 15.625 765.25 67.0625 843 201.375 843 c 0
 317.875 843 395.9375 780.6875 395.9375 632 c 0
 395.9375 490 320.6875 350 81.3125 336 c 1
264.0625 669.75 m 0
 264.0625 709.875 240.0625 734.875 202.1875 734.875 c 0
 163.5 734.875 138.6875 709.875 138.6875 669.75 c 0
 138.6875 630.4375 163.5 605.8125 202.1875 605.8125 c 0
 240.0625 605.8125 264.0625 630.4375 264.0625 669.75 c 0
EndSplineSet
EndChar

StartChar: zero.inferior
Encoding: 667 8320 158
Width: 449
Flags: W
HStem: -358 122.25<173.691 276.097> 20.75 122.25<173.691 273.382>
VStem: 14.3125 126.312<-196.809 -16.3732> 309.188 126.312<-196.809 -16.3732>
LayerCount: 2
Fore
SplineSet
140.625 -109 m 0
 140.625 -186 173.1875 -235.75 224.8125 -235.75 c 0
 276.4375 -235.75 309.1875 -186 309.1875 -109 c 0
 309.1875 -29.1875 276.4375 20.75 224.8125 20.75 c 0
 173.1875 20.75 140.625 -29.1875 140.625 -109 c 0
14.3125 -109 m 0
 14.3125 45 96.5625 143 224.8125 143 c 0
 353.875 143 435.5 45 435.5 -109 c 0
 435.5 -261 353.875 -358 224.8125 -358 c 0
 96.5625 -358 14.3125 -261 14.3125 -109 c 0
EndSplineSet
EndChar

StartChar: one.inferior
Encoding: 668 8321 159
Width: 245
Flags: W
HStem: 30.25 106.75<12.25 92.75>
VStem: 89.75 132.75<-350 31.25>
LayerCount: 2
Fore
SplineSet
219.3125 137 m 1
 222.5 -350 l 1
 89.75 -350 l 1
 92.75 31.25 l 1
 9.4375 30.25 l 1
 12.25 137 l 1
 219.3125 137 l 1
EndSplineSet
EndChar

StartChar: two.inferior
Encoding: 669 8322 160
Width: 396
Flags: W
HStem: -350 115.188<219.375 375.312> 26.625 116.375<82.2558 211.453>
VStem: 229.938 137.625<-107.667 9.65847>
LayerCount: 2
Fore
SplineSet
219.375 -234.8125 m 1
 380.5625 -230.8125 l 1
 375.3125 -350 l 1
 22.4375 -350 l 1
 15.625 -258.8125 l 1
 15.625 -258.8125 229.9375 -158.6875 229.9375 -46.4375 c 0
 229.9375 2.9375 202.0625 26.625 154.875 26.625 c 0
 94.6875 26.625 58 -13.6875 58 -13.6875 c 1
 13.4375 92 l 1
 13.4375 92 76.0625 143 182.3125 143 c 0
 301.875 143 367.5625 81 367.5625 -17 c 0
 367.5625 -163.375 219.375 -234.8125 219.375 -234.8125 c 1
EndSplineSet
EndChar

StartChar: three.inferior
Encoding: 670 8323 161
Width: 387
Flags: W
HStem: -357.188 107.938<35.6517 222.064> 18.125 118.875<22.4375 192.562>
VStem: 234.125 136.438<-237.198 -159.58>
LayerCount: 2
Fore
SplineSet
254.5 -69.8125 m 1
 256.75 -69.8125 266.3125 -70.8125 279.9375 -75.25 c 0
 317 -86.25 370.5625 -120.5625 370.5625 -205.8125 c 0
 370.5625 -305 295.5 -357.1875 178 -357.1875 c 0
 58.6875 -357.1875 7.625 -328 7.625 -328 c 1
 35.125 -222.25 l 1
 35.125 -222.25 86.3125 -249.25 157.5 -249.25 c 0
 211.5 -249.25 234.125 -229.625 234.125 -196.5 c 0
 234.125 -167.5 210.875 -148.25 164.5625 -148.25 c 0
 125.125 -148.25 103.8125 -155.5625 103.8125 -155.5625 c 1
 86.8125 -86.5625 l 1
 192.5625 18.125 l 1
 16 14.6875 l 1
 22.4375 137 l 1
 350.375 137 l 1
 356.5625 41.3125 l 1
 254.5 -69.8125 l 1
EndSplineSet
EndChar

StartChar: four.inferior
Encoding: 671 8324 162
Width: 468
Flags: W
HStem: -234.25 105.562<159.562 447.188>
LayerCount: 2
Fore
SplineSet
374.9375 44.75 m 1
 378.9375 -350 l 1
 251 -350 l 1
 255 44.75 l 1
 374.9375 44.75 l 1
207.625 155.1875 m 1
 312.875 89.75 l 1
 159.5625 -128.6875 l 1
 450.625 -126.25 l 1
 447.1875 -238.6875 l 1
 34.375 -234.25 l 1
 11.4375 -158.6875 l 1
 207.625 155.1875 l 1
EndSplineSet
EndChar

StartChar: five.inferior
Encoding: 672 8325 163
Width: 391
Flags: W
HStem: -357.188 107.938<51.0591 227.565> -131.812 100.062<142.771 227.833> 24.625 112.375<154.125 344.688>
VStem: 241.625 133.438<-233.431 -145.994>
LayerCount: 2
Fore
SplineSet
344.6875 23.625 m 1
 154.125 24.625 l 1
 141.875 -46.5625 l 1
 141.875 -46.5625 161.5625 -31.75 216.625 -31.75 c 0
 330 -31.75 375.0625 -93.75 375.0625 -187.125 c 0
 375.0625 -305.375 299.0625 -357.1875 180.0625 -357.1875 c 0
 59.25 -357.1875 7.625 -321 7.625 -321 c 1
 34.875 -219.875 l 1
 34.875 -219.875 88.1875 -249.25 161.25 -249.25 c 0
 215.4375 -249.25 241.625 -225.625 241.625 -188.3125 c 0
 241.625 -153.8125 215.375 -131.8125 162.625 -131.8125 c 0
 114.875 -131.8125 86.4375 -155.5625 86.4375 -155.5625 c 1
 16.1875 -96.5 l 1
 56.5625 137 l 1
 344.6875 137 l 1
 344.6875 23.625 l 1
EndSplineSet
EndChar

StartChar: six.inferior
Encoding: 673 8326 164
Width: 411
Flags: W
HStem: -358 108.125<162.068 258.245> -120.812 94.625<160.704 259.01> 35.625 113.375<238.753 331.157>
VStem: 15.625 131.875<-234.387 -82.2706> 272.875 123.062<-235.352 -135.088>
LayerCount: 2
Fore
SplineSet
330.25 149 m 1
 344.9375 35.625 l 1
 163.4375 21.1875 157.0625 -46.8125 157.0625 -46.8125 c 1
 157.0625 -46.8125 180.75 -26.1875 245.4375 -26.1875 c 0
 337.875 -26.1875 395.9375 -87.75 395.9375 -181.3125 c 0
 395.9375 -280.25 344.3125 -358 210.1875 -358 c 0
 93.5 -358 15.625 -295.6875 15.625 -147 c 0
 15.625 -5 90.875 135 330.25 149 c 1
147.5 -184.75 m 0
 147.5 -224.875 172.3125 -249.875 210.1875 -249.875 c 0
 248.6875 -249.875 272.875 -224.875 272.875 -184.75 c 0
 272.875 -145.4375 248.6875 -120.8125 210.1875 -120.8125 c 0
 172.3125 -120.8125 147.5 -145.4375 147.5 -184.75 c 0
EndSplineSet
EndChar

StartChar: seven.inferior
Encoding: 674 8327 165
Width: 378
Flags: W
HStem: 21.25 115.75<130.688 238.375>
LayerCount: 2
Fore
SplineSet
7.4375 -61.75 m 1
 27.8125 137 l 1
 350.4375 137 l 1
 382.9375 59.3125 l 1
 225.1875 -361.1875 l 1
 93.1875 -321.1875 l 1
 238.375 22.25 l 1
 130.6875 21.25 l 1
 119.5 -72.4375 l 1
 7.4375 -61.75 l 1
EndSplineSet
EndChar

StartChar: eight.inferior
Encoding: 675 8328 166
Width: 405
Flags: W
HStem: -358 106.875<147.743 251.349> 38.5 104.5<159.082 251.347>
VStem: 15.625 122.062<-239.482 -155.427> 32.8125 121.25<-33.4315 31.3289> 258.25 113.625<-48.5413 31.3397> 258.938 131.75<-242.032 -169.596>
LayerCount: 2
Fore
SplineSet
199.75 -251.125 m 0xe4
 236.375 -251.125 258.9375 -234.25 258.9375 -206.25 c 0xe4
 258.9375 -178.8125 238.875 -164.375 177.875 -143.25 c 0
 81.25 -109.5625 32.8125 -64.3125 32.8125 8 c 0
 32.8125 91 99.875 143 205.75 143 c 0
 307.625 143 371.875 96 371.875 12 c 0
 371.875 -79.625 267.9375 -112.75 267.9375 -112.75 c 1
 196.75 -76.75 l 1
 196.75 -76.75 258.25 -47.125 258.25 -6.5625 c 0
 258.25 21.625 238.25 38.5 205.5625 38.5 c 0
 173.875 38.5 154.0625 22.625 154.0625 -2.5625 c 0xd8
 154.0625 -25.375 170.5625 -36.6875 222.375 -50.75 c 0
 345.875 -84.125 390.6875 -126.625 390.6875 -208.3125 c 0
 390.6875 -301.5625 321.0625 -358 204.375 -358 c 0
 91.5 -358 15.625 -302 15.625 -219 c 0
 15.625 -124.1875 114 -93.25 114 -93.25 c 1
 188.5625 -134.25 l 1
 188.5625 -134.25 137.6875 -156.3125 137.6875 -203.25 c 0
 137.6875 -232.25 161.875 -251.125 199.75 -251.125 c 0xe4
EndSplineSet
EndChar

StartChar: nine.inferior
Encoding: 676 8329 167
Width: 411
Flags: W
HStem: -364 113.375<80.4558 178.132> -188.625 94.4375<152.998 251.064> 34.875 108.125<153.425 249.631>
VStem: 15.625 123.062<-79.9047 20.3519> 264.062 131.875<-132.729 19.3875>
LayerCount: 2
Fore
SplineSet
81.3125 -364 m 1
 67.4375 -250.625 l 1
 248.9375 -236.1875 255.125 -168 255.125 -168 c 1
 255.125 -168 231.4375 -188.625 166.75 -188.625 c 0
 74.3125 -188.625 15.625 -127.25 15.625 -33.6875 c 0
 15.625 65.25 67.0625 143 201.375 143 c 0
 317.875 143 395.9375 80.6875 395.9375 -68 c 0
 395.9375 -210 320.6875 -350 81.3125 -364 c 1
264.0625 -30.25 m 0
 264.0625 9.875 240.0625 34.875 202.1875 34.875 c 0
 163.5 34.875 138.6875 9.875 138.6875 -30.25 c 0
 138.6875 -69.5625 163.5 -94.1875 202.1875 -94.1875 c 0
 240.0625 -94.1875 264.0625 -69.5625 264.0625 -30.25 c 0
EndSplineSet
EndChar

StartChar: fraction
Encoding: 655 8260 168
Width: 238
Flags: W
LayerCount: 2
Fore
SplineSet
419.579101562 674.68359375 m 1
 180.208984375 344.549804688 l 1
 -25.9912109375 -23.25 l 1
 -142.3203125 50.75 l 1
 100.908203125 383.450195312 l 1
 309.849609375 747.68359375 l 1
 419.579101562 674.68359375 l 1
EndSplineSet
EndChar

StartChar: perthousand
Encoding: 646 8240 169
Width: 1159
Flags: W
HStem: -10 120.308<623.874 716.458 901.871 994.431> 247.975 120.404<623.409 716.928 901.406 994.901> 360.613 120.308<166.722 261.591> 618.588 120.404<166.247 262.07>
VStem: 22.0205 129.304<497.511 602.929> 277.284 129.336<497.511 602.929> 482.021 125.804<124.023 232.799> 731.284 156.04<137.414 221.543> 779.521 59.5996<64.4329 295.665> 1010.78 125.836<124.519 232.316>
LayerCount: 2
Fore
SplineSet
151.32421875 550.620117188 m 0xbe40
 151.32421875 508.026249684 175.703747108 480.920898438 214.015625 480.920898438 c 0
 252.679793079 480.920898438 277.284179688 508.026249684 277.284179688 550.620117188 c 0
 277.284179688 592.156178811 252.679793079 618.587890625 214.015625 618.587890625 c 0
 175.703747108 618.587890625 151.32421875 592.156178811 151.32421875 550.620117188 c 0xbe40
22.0205078125 550.762695312 m 0
 22.0205078125 665.792127446 96.6788952622 738.9921875 214 738.9921875 c 0
 331.712496362 738.9921875 406.620117188 665.792127446 406.620117188 550.762695312 c 0
 406.620117188 434.560077218 331.712496362 360.61328125 214 360.61328125 c 0
 96.6788952622 360.61328125 22.0205078125 434.560077218 22.0205078125 550.762695312 c 0
887.32421875 180.006835938 m 0xdf40
 887.32421875 137.413544179 911.217128648 110.307617188 948.765625 110.307617188 c 0
 986.665921949 110.307617188 1010.78417969 137.413544179 1010.78417969 180.006835938 c 0
 1010.78417969 221.54317393 986.665921949 247.974609375 948.765625 247.974609375 c 0
 911.217128648 247.974609375 887.32421875 221.54317393 887.32421875 180.006835938 c 0xdf40
779.520507812 181.399414062 m 0xdec0
 779.520507812 295.66460575 846.887484227 368.37890625 952.75 368.37890625 c 0
 1065.11522498 368.37890625 1136.62011719 295.178494281 1136.62011719 180.149414062 c 0
 1136.62011719 63.9465092653 1065.11522498 -10 952.75 -10 c 0
 846.887484227 -10 779.520507812 64.4326171875 779.520507812 181.399414062 c 0xdec0
607.82421875 180.006835938 m 0
 607.82421875 137.412968434 631.717645228 110.307617188 669.265625 110.307617188 c 0
 707.165903176 110.307617188 731.284179688 137.412968434 731.284179688 180.006835938 c 0xdf40
 731.284179688 221.542897561 707.165903176 247.974609375 669.265625 247.974609375 c 0
 631.717645228 247.974609375 607.82421875 221.542897561 607.82421875 180.006835938 c 0
482.020507812 180.149414062 m 0
 482.020507812 295.178846196 553.276131338 368.37890625 665.25 368.37890625 c 0
 771.504143314 368.37890625 839.120117188 295.664955328 839.120117188 181.399414062 c 0xdec0
 839.120117188 64.4329057752 771.504143314 -10 665.25 -10 c 0
 553.276131338 -10 482.020507812 63.946795968 482.020507812 180.149414062 c 0
EndSplineSet
Refer: 168 8260 N 1 0 0 1 304 0 2
EndChar

StartChar: uni2031
Encoding: 647 8241 170
Width: 1439
Flags: W
HStem: -10 120.308<624.249 716.833 899.619 991.107 1173.51 1267.91> 247.975 120.404<623.784 717.303 896.945 991.574 1173.04 1268.38> 360.613 120.308<166.722 261.591> 618.588 120.404<166.247 262.07>
VStem: 22.0205 129.304<497.511 602.929> 277.284 129.336<497.511 602.929> 482.021 126.554<124.023 232.799> 732.034 151.29<137.414 221.543> 769.521 69.5996<64.4329 295.665> 1005.78 153.29<137.414 221.543> 1059.52 59.5996<64.4326 295.665> 1282.53 134.086<124.96 232.772>
LayerCount: 2
Fore
SplineSet
151.32421875 550.620117188 m 0xbe10
 151.32421875 508.026249684 175.703747108 480.920898438 214.015625 480.920898438 c 0
 252.679793079 480.920898438 277.284179688 508.026249684 277.284179688 550.620117188 c 0
 277.284179688 592.156178811 252.679793079 618.587890625 214.015625 618.587890625 c 0
 175.703747108 618.587890625 151.32421875 592.156178811 151.32421875 550.620117188 c 0xbe10
22.0205078125 550.762695312 m 0
 22.0205078125 665.792127446 96.6788952622 738.9921875 214 738.9921875 c 0
 331.712496362 738.9921875 406.620117188 665.792127446 406.620117188 550.762695312 c 0
 406.620117188 434.560077218 331.712496362 360.61328125 214 360.61328125 c 0
 96.6788952622 360.61328125 22.0205078125 434.560077218 22.0205078125 550.762695312 c 0
1159.07421875 180.006835938 m 0xde50
 1159.07421875 137.413544179 1182.96712866 110.307617188 1220.515625 110.307617188 c 0
 1258.41592196 110.307617188 1282.53417969 137.413544179 1282.53417969 180.006835938 c 0
 1282.53417969 221.54317393 1258.41592196 247.974609375 1220.515625 247.974609375 c 0
 1182.96712866 247.974609375 1159.07421875 221.54317393 1159.07421875 180.006835938 c 0xde50
1059.52050781 181.399414062 m 0xde30
 1059.52050781 295.66460575 1126.88748423 368.37890625 1232.75 368.37890625 c 0
 1345.11522498 368.37890625 1416.62011719 295.66460575 1416.62011719 181.399414062 c 0
 1416.62011719 64.4326171875 1345.11522498 -10 1232.75 -10 c 0
 1126.88748423 -10 1059.52050781 64.4326171875 1059.52050781 181.399414062 c 0xde30
883.32421875 180.006835938 m 0xdf50
 883.32421875 137.413544179 906.925473826 110.307617188 944.015625 110.307617188 c 0
 981.763143893 110.307617188 1005.78417969 137.413544179 1005.78417969 180.006835938 c 0
 1005.78417969 221.54317393 981.763143893 247.974609375 944.015625 247.974609375 c 0
 906.925473826 247.974609375 883.32421875 221.54317393 883.32421875 180.006835938 c 0xdf50
769.520507812 181.399414062 m 0xdeb0
 769.520507812 295.66460575 837.373594989 368.37890625 944 368.37890625 c 0
 1051.01799547 368.37890625 1119.12011719 295.66460575 1119.12011719 181.399414062 c 0
 1119.12011719 64.4326171875 1051.01799547 -10 944 -10 c 0
 837.373594989 -10 769.520507812 64.4326171875 769.520507812 181.399414062 c 0xdeb0
608.57421875 180.006835938 m 0
 608.57421875 137.412968434 632.467645228 110.307617188 670.015625 110.307617188 c 0
 707.915903176 110.307617188 732.034179688 137.412968434 732.034179688 180.006835938 c 0xdf10
 732.034179688 221.542897561 707.915903176 247.974609375 670.015625 247.974609375 c 0
 632.467645228 247.974609375 608.57421875 221.542897561 608.57421875 180.006835938 c 0
482.020507812 180.149414062 m 0
 482.020507812 295.178846196 553.276131338 368.37890625 665.25 368.37890625 c 0
 771.504143314 368.37890625 839.120117188 295.664955328 839.120117188 181.399414062 c 0xde90
 839.120117188 64.4329057751 771.504143314 -10 665.25 -10 c 0
 553.276131338 -10 482.020507812 63.946795968 482.020507812 180.149414062 c 0
EndSplineSet
Refer: 168 8260 N 1 0 0 1 304 0 2
EndChar

StartChar: Lslash
Encoding: 255 321 171
Width: 620
Flags: W
HStem: 0 156.293<324.065 604.039> 495 20G<405.247 448.714> 575.084 155.927<16.1201 133.151>
VStem: 128.43 195.635<156.293 575.084>
LayerCount: 2
Fore
SplineSet
443 515 m 9
 477 396 l 17
 259 320.293945312 l 1
 49 207 l 9
 11 329 l 17
 233 403.75 l 1
 443 515 l 9
EndSplineSet
Refer: 44 76 N 1 0 0 1 0 0 2
EndChar

StartChar: lslash
Encoding: 256 322 172
Width: 402
Flags: W
HStem: 0 136.397<289.129 388.539> 619.075 135.927<18.6201 118.151>
VStem: 113.83 175.299<136.397 619.075>
LayerCount: 2
Fore
SplineSet
363 555 m 9
 397 436 l 17
 219 360.293945312 l 1
 49 257 l 9
 11 379 l 17
 193 443.75 l 1
 363 555 l 9
EndSplineSet
Refer: 8 108 N 1 0 0 1 0 0 2
EndChar

StartChar: quoteright
Encoding: 635 8217 173
Width: 229
Flags: W
HStem: 445 320
VStem: 6 214.5
LayerCount: 2
Fore
SplineSet
6 723 m 9
 174 765 l 1
 220.5 626 l 1
 122.5 445 l 1
 14.5 487 l 17
 74 598.5 l 1
 6 723 l 9
EndSplineSet
EndChar

StartChar: uni2120
Encoding: 702 8480 179
Width: 540
Flags: W
VStem: 9.25098 91.4072<651.529 691.711> 92.5488 93.1357<546.054 592.407>
LayerCount: 2
Fore
SplineSet
150.276367188 765.357421875 m 1x80
 150.276367188 765.357421875 9.2509765625 762.795898438 9.2509765625 671.666015625 c 0x80
 9.2509765625 636.758935396 23.9444479811 615.538570113 69.361328125 593.5625 c 0
 87.7128549131 584.767168543 92.548828125 577.694952443 92.548828125 568.400390625 c 0
 92.548828125 537.599855619 18.888671875 534.173828125 18.888671875 534.173828125 c 1
 29.77734375 462.049804688 l 1
 29.77734375 462.049804688 185.684570312 464.396484375 185.684570312 570.418945312 c 0x40
 185.684570312 603.788647641 173.640801437 625.74258383 140.114257812 641.760742188 c 0
 106.370143138 657.971904179 100.658203125 664.153722202 100.658203125 672.774414062 c 0
 100.658203125 695.460986394 162.6171875 700.337890625 162.6171875 700.337890625 c 1
 150.276367188 765.357421875 l 1x80
238.577148438 690.584960938 m 1
 192.25 688.131835938 l 1
 190.498046875 762.404296875 l 1
 331.591796875 766.404296875 l 1
 375 662.299804688 l 1
 429.099609375 766 l 1
 510.950195312 762.400390625 l 1
 534.549804688 472 l 1
 449.5 466.400390625 l 1
 437.900390625 633.900390625 l 1
 372.200195312 523 l 1
 311.299804688 630.299804688 l 1
 297.700195312 467.599609375 l 1
 221.049804688 473.599609375 l 1
 238.577148438 690.584960938 l 1
EndSplineSet
EndChar

StartChar: trademark
Encoding: 703 8482 180
Width: 608
Flags: W
HStem: 695.7 12.833<75.7109 156.392> 695.732 66.6719<6.69824 75.7109 156.392 226.242>
VStem: 73.9824 84.0312<470 707.7>
LayerCount: 2
Fore
SplineSet
156.391601562 707.700195312 m 1xa0
 158.013671875 470 l 1
 73.982421875 470 l 1
 75.7109375 708.533203125 l 1
 156.391601562 707.700195312 l 1xa0
116.841796875 695.700195312 m 1
 5.25 695.732421875 l 1
 6.6982421875 762.404296875 l 1
 226.2421875 762.404296875 l 1x60
 228.595703125 694.099609375 l 1
 116.841796875 695.700195312 l 1
305.77734375 690.584960938 m 1
 259.450195312 688.131835938 l 1
 257.698242188 762.404296875 l 1
 398.791992188 766.404296875 l 1
 442.200195312 662.299804688 l 1
 496.299804688 766 l 1
 578.150390625 762.400390625 l 1
 601.75 472 l 1
 516.700195312 466.400390625 l 1
 505.099609375 633.900390625 l 1
 439.400390625 523 l 1
 378.5 630.299804688 l 1
 364.900390625 467.599609375 l 1
 288.25 473.599609375 l 1
 305.77734375 690.584960938 l 1
EndSplineSet
EndChar

StartChar: uni2117
Encoding: 701 8471 181
Width: 795
Flags: W
HStem: -10.0664 93.377<285.409 515.633> 250.608 98.25<385.552 481.524> 474.631 109.162<386.808 481.248> 474.631 29.8174<310.554 383.207> 648.14 90.7939<285.409 515.633>
VStem: 22.5 100.5<241.706 484.616> 267.467 117.739<140.398 277.309 367.424 504.448> 496.38 115.95<364.176 458.25> 679.117 93.3828<244.876 481.359>
LayerCount: 2
Fore
SplineSet
385.206054688 140.3984375 m 1xdf80
 267.466796875 140.3984375 l 1
 271.168945312 504.448242188 l 1
 383.20703125 504.448242188 l 1
 385.206054688 140.3984375 l 1xdf80
360.572265625 367.423828125 m 1
 360.572265625 367.423828125 379.005782725 348.858398438 426.705078125 348.858398438 c 0
 472.371959255 348.858398438 496.379760742 372.575700304 496.379760742 410.8828125 c 0
 496.379760742 453.567714688 470.785503934 474.630859375 414.254882812 474.630859375 c 0
 310.554339979 474.630859375 218.228637695 431.692382812 218.228637695 431.692382812 c 1
 193.466918945 539.302734375 l 1
 193.466918945 539.302734375 262.361248209 583.79296875 424.455078125 583.79296875 c 0xef80
 540.360836355 583.79296875 612.330078125 519.755826446 612.330078125 407.8828125 c 0
 612.330078125 312.498081803 549.693282137 250.608398438 448.455078125 250.608398438 c 0
 382.762413391 250.608398438 343.208984375 277.30859375 343.208984375 277.30859375 c 1
 360.572265625 367.423828125 l 1
22.5 361.93359375 m 0
 22.5 592.322641811 168.138730772 738.93359375 397 738.93359375 c 0
 626.472695994 738.93359375 772.5 592.322641811 772.5 361.93359375 c 0
 772.5 134.599173678 626.472695994 -10.06640625 397 -10.06640625 c 0
 168.138730772 -10.06640625 22.5 134.599173678 22.5 361.93359375 c 0
123 361.93359375 m 0
 123 191.663587734 229.943489584 83.310546875 398 83.310546875 c 0
 569.794290068 83.310546875 679.1171875 191.663587734 679.1171875 361.93359375 c 0
 679.1171875 536.838678091 569.794290068 648.139648438 398 648.139648438 c 0
 229.943489584 648.139648438 123 536.838678091 123 361.93359375 c 0
EndSplineSet
EndChar

StartChar: lira
Encoding: 679 8356 182
Width: 576
Flags: W
HStem: 0 156.293<241.564 551.539> 219.25 106.5<243.89 425.5> 227.25 97.5<16.5 364.354> 359.25 106.5<259.864 435.5> 367.25 97.5<26.5 386.216>
LayerCount: 2
Back
SplineSet
14 326 m 1
 430 327 l 1
 428 218 l 1
 12 226 l 1
 14 326 l 1
24 466 m 1
 440 467 l 1
 438 358 l 1
 22 366 l 1
 24 466 l 1
EndSplineSet
Fore
SplineSet
16.5 324.75 m 1xa0
 208 319.716796875 l 1
 427.5 325.75 l 1
 425.5 219.25 l 1xc0
 190 228.327148438 l 1
 14.5 227.25 l 1
 16.5 324.75 l 1xa0
26.5 464.75 m 1x88
 225 460.25 l 1
 437.5 465.75 l 1
 435.5 359.25 l 1x90
 215 368.038085938 l 1
 24.5 367.25 l 1
 26.5 464.75 l 1x88
241.564453125 156.29296875 m 1
 555.159179688 157.930664062 l 1
 551.5390625 0 l 1
 30.9296875 0 l 1
 52.313777198 452.125433501 145.105838696 628.005046291 436.930664062 747.6640625 c 1
 518.798828125 607.104492188 l 1
 343.310270476 536.649617725 258.954667237 403.637487136 241.564453125 156.29296875 c 1
EndSplineSet
EndChar

StartChar: Euro
Encoding: 684 8364 183
Width: 541
Flags: W
HStem: 246 100<17 251.631> 378 109<367.316 457.978>
LayerCount: 2
Fore
SplineSet
17 346 m 1
 238 339.5078125 l 1
 451.83984375 347 l 1
 431.7734375 238 l 1
 232 252.213867188 l 1
 15 246 l 1
 17 346 l 1
20 486 m 1
 248 472.45703125 l 1
 478.043945312 487 l 1
 457.977539062 378 l 1
 240 387.963867188 l 1
 18 386 l 1
 20 486 l 1
485.5 -33.06640625 m 1
 223.027596441 -11.8298471102 56 120.543550932 56 361.93359375 c 0
 56 598.46956446 226.916481108 728.46176596 495.5 748.9921875 c 1
 517 573.9921875 l 1
 358.110138291 549.342608641 257 491.526142671 257 361.93359375 c 0
 257 228.099785156 342.597509766 169.319135918 510 142.93359375 c 1
 485.5 -33.06640625 l 1
EndSplineSet
EndChar

StartChar: uni20B5
Encoding: 691 8373 184
Width: 461
Flags: W
HStem: 0 21G<230.82 357.82> 91.9014 108.099<245.32 341.32> 534 85.457<243.32 339.32> 719 20G<226.82 353.82>
VStem: 25 183.22<283.91 434.322>
LayerCount: 2
Fore
SplineSet
357.8203125 0 m 1
 230.8203125 0 l 1
 245.3203125 200 l 1
 341.3203125 200 l 1
 357.8203125 0 l 1
226.8203125 739 m 1
 353.8203125 739 l 1
 339.3203125 534 l 1
 243.3203125 534 l 1
 226.8203125 739 l 1
25 357.576171875 m 0
 25 517.614257812 129.507712912 619.45703125 293.735351562 619.45703125 c 0
 406.329101562 619.45703125 454.184570312 569.0703125 454.184570312 569.0703125 c 1
 407.612304688 443.858398438 l 1
 407.612304688 443.858398438 371.535247342 473.0390625 315.436523438 473.0390625 c 0
 249.914190223 473.0390625 208.219726562 430.52111572 208.219726562 363.708007812 c 0
 208.219726562 287.978878503 246.158698302 239.787109375 320.35546875 239.787109375 c 0
 398.644132131 239.787109375 438.297851562 271.900390625 438.297851562 271.900390625 c 1
 471.774414062 132.869140625 l 1
 471.774414062 132.869140625 428.375976562 91.9013671875 293.735351562 91.9013671875 c 0
 129.507712912 91.9013671875 25 195.21875 25 357.576171875 c 0
EndSplineSet
EndChar

StartChar: uni20B2
Encoding: 688 8370 185
Width: 542
Flags: W
HStem: 0 21G<230.82 357.82> 91.9014 108.099<245.32 341.32> 253.989 112.445<469.916 530.564> 534 85.457<243.32 339.32> 719 20G<226.82 353.82>
VStem: 25 183.22<278.406 434.322> 339.688 190.877<253.989 366.435> 341.32 128.596<148.651 200 244.849 253.989>
LayerCount: 2
Fore
SplineSet
226.8203125 739 m 1xfc
 353.8203125 739 l 1
 339.3203125 534 l 1
 243.3203125 534 l 1
 226.8203125 739 l 1xfc
357.8203125 0 m 1
 230.8203125 0 l 1
 245.3203125 200 l 1
 341.3203125 200 l 1xfd
 357.8203125 0 l 1
25 357.576171875 m 0
 25 517.614257812 129.507712912 619.45703125 293.735351562 619.45703125 c 0
 406.329101562 619.45703125 454.184570312 568.3203125 454.184570312 568.3203125 c 1
 407.612304688 443.108398438 l 1
 407.612304688 443.108398438 371.535247342 473.0390625 315.436523438 473.0390625 c 0
 249.914190223 473.0390625 208.219726562 430.521115719 208.219726562 363.708007812 c 0
 208.219726562 287.978878503 241.083753096 239.787109375 305.35546875 239.787109375 c 0
 327.742991835 239.787109375 338.556640625 244.848632812 338.556640625 244.848632812 c 1
 339.6875 366.434570312 l 1
 530.564453125 366.434570312 l 1xfe
 532.12109375 253.02734375 l 1
 469.916015625 253.989257812 l 1
 471.774414062 132.619140625 l 1
 471.774414062 132.619140625 423.375976562 91.9013671875 293.735351562 91.9013671875 c 0
 129.507712912 91.9013671875 25 195.21875 25 357.576171875 c 0
EndSplineSet
EndChar

StartChar: uni20AD
Encoding: 685 8365 186
Width: 704
Flags: W
HStem: 0 21G<131.33 327.659> 303.25 121.25<29 233.515> 313.436 101.532<120.985 455.678> 575.084 155.927<18.6201 135.651>
VStem: 131.33 196.329<0 313.436 414.968 575.084>
LayerCount: 2
Fore
SplineSet
29 424.5 m 1xd8
 323.5 414.967562554 l 1
 662.5 425.5 l 1
 660.5 295.25 l 1
 327.5 313.435705604 l 1xb8
 27 303.25 l 1
 29 424.5 l 1xd8
322.229492188 731.010742188 m 1
 327.659179688 0 l 1
 131.330078125 0 l 1
 135.651367188 575.083984375 l 1
 15 573.080078125 l 1
 18.6201171875 731.010742188 l 1
 322.229492188 731.010742188 l 1
493 745.0078125 m 1
 664.5 646.0078125 l 1
 441 364 l 1
 689.5 83 l 1
 510.5 -27 l 1
 254 364 l 1
 493 745.0078125 l 1
EndSplineSet
EndChar

StartChar: uni20AE
Encoding: 686 8366 187
Width: 550
Flags: W
HStem: 0 21G<171.83 368.159> 481.25 20G<410.724 469.841> 573 30<176.151 364.104> 573.08 157.931<18.6201 176.151 364.104 523.729>
VStem: 171.83 196.329<0 261.585 336.162 603>
LayerCount: 2
Fore
SplineSet
53.8798828125 201.46484375 m 1xc8
 269.221679688 261.584960938 l 1
 478.26953125 340.10546875 l 1
 512.74609375 222.615234375 l 1
 292.53515625 175.018554688 l 1
 83.9306640625 98.306640625 l 1
 53.8798828125 201.46484375 l 1xc8
39.58203125 362.609375 m 1
 254.923828125 422.73046875 l 1
 463.971679688 501.25 l 1
 498.448242188 383.759765625 l 1
 278.237304688 336.162109375 l 1
 69.6328125 259.450195312 l 1
 39.58203125 362.609375 l 1
364.103515625 603 m 1xe8
 368.159179688 0 l 1
 171.830078125 0 l 1
 176.151367188 605.083984375 l 1
 364.103515625 603 l 1xe8
272.103515625 573 m 1
 15 573.080078125 l 1
 18.6201171875 731.010742188 l 1
 523.729492188 731.010742188 l 1xd8
 529.61328125 569 l 1
 272.103515625 573 l 1
EndSplineSet
EndChar

StartChar: uni20B1
Encoding: 687 8369 188
Width: 722
Flags: W
HStem: 0 21G<100.271 291.503> 174.934 158.5<291.259 412.578> 287.25 97.5<14.5 214.906> 297.25 91.9668<476.5 652.017> 379.217 39.3213<178 238.886> 389.217 39.3213<575 674.859> 417.25 97.5<16.5 236.05> 427.25 92.5<486.5 669.604> 560.492 178.5<15.5615 403.611> 560.492 56.2578<125.544 288.17>
VStem: 100.271 191.232<0 199.434 288.827 355.877 379.217 418.538 509.75 616.75> 484.5 147.917<427.25 524.75>
LayerCount: 2
Fore
SplineSet
476.5 394.75 m 1x9030
 568 389.216796875 l 1
 702.5 395.75 l 1
 700.5 289.25 l 1
 550 298.827148438 l 1
 474.5 297.25 l 1
 476.5 394.75 l 1x9030
486.5 524.75 m 1
 585 519.75 l 1x8130
 709.5 525.75 l 1
 707.5 419.25 l 1
 575 428.538085938 l 1x8430
 484.5 427.25 l 1x8130
 486.5 524.75 l 1
14.5 384.75 m 1xa030
 178 379.216796875 l 1x8830
 243 385.75 l 1
 241 279.25 l 1
 160 288.827148438 l 1
 12.5 287.25 l 1
 14.5 384.75 l 1xa030
16.5 514.75 m 1x8230
 195 509.75 l 1
 258.5 515.75 l 1
 256.5 409.25 l 1
 185 418.538085938 l 1x8830
 14.5 417.25 l 1
 16.5 514.75 l 1x8230
291.502929688 0 m 1
 100.270507812 0 l 1
 106.440429688 616.75 l 1
 288.169921875 616.75 l 1x8070
 291.502929688 0 l 1
216.696289062 355.876953125 m 1
 216.696289062 355.876953125 253.150162128 333.43359375 335.916992188 333.43359375 c 0
 413.001808966 333.43359375 452.416992188 375.822358142 452.416992188 442.43359375 c 0
 452.416992188 514.580760753 407.719110662 560.4921875 310.166992188 560.4921875 c 0
 125.544384608 560.4921875 16.76953125 543.927734375 16.76953125 543.927734375 c 1
 3 719.840820312 l 1
 3 719.840820312 90.4119005796 738.9921875 319.416992188 738.9921875 c 0
 510.694449563 738.9921875 632.416992188 621.525490298 632.416992188 436.93359375 c 0
 632.416992188 276.821289062 526.250112409 174.93359375 359.416992188 174.93359375 c 0xc0b0
 252.270507812 174.93359375 187.7578125 199.43359375 187.7578125 199.43359375 c 1
 216.696289062 355.876953125 l 1
EndSplineSet
EndChar

StartChar: uni20B3
Encoding: 689 8371 189
Width: 768
Flags: W
HStem: 111.962 106.5<103.25 756> 119.962 97.5<12 662.75> 251.962 106.5<133.25 716> 259.962 97.5<52 632.75> 546.569 174.431<88.8193 228.008> 711 20G<84.4395 478.242>
LayerCount: 2
Fore
SplineSet
228.0078125 551.612304688 m 1x04
 88.8193359376 546.569335938 l 1
 84.439453125 721 l 1x08
 471.548828125 731 l 1
 711.450195312 14.1611328125 l 1
 521.926757812 -15 l 1
 374.818359375 501.8671875 l 1
 221.069335938 -15 l 1
 33.2734375 18.25 l 1
 228.0078125 551.612304688 l 1x04
52 357.461914062 m 1x10
 718 358.461914062 l 1
 716 251.961914062 l 1x20
 50 259.961914062 l 1
 52 357.461914062 l 1x10
12 217.461914062 m 1x40
 758 218.461914062 l 1
 756 111.961914062 l 1x80
 10 119.961914062 l 1
 12 217.461914062 l 1x40
EndSplineSet
EndChar

StartChar: uni20B4
Encoding: 690 8372 190
Width: 598
Flags: W
HStem: 229.25 106.5<329.535 551> 237.25 97.5<17 453.391> 369.25 106.5<348.875 581> 377.25 97.5<27 193.552 273 492.909> 718.393 20G<158.751 162.146>
VStem: 73 211.465<199.693 298.824> 295.567 214.769<474.874 545.292>
LayerCount: 2
Fore
SplineSet
162.145507812 738.392578125 m 1x0e
 162.145507812 738.392578125 510.3359375 732.036129506 510.3359375 505.912109375 c 0
 510.3359375 420.92238999 479.718261719 369.831787109 353.684570312 310.155273438 c 0
 296.870675342 284.373813777 284.46484375 266.54269067 284.46484375 241 c 0
 284.46484375 158.374416595 481.115234375 149.182617188 481.115234375 149.182617188 c 1
 457.893554688 -19.8779296875 l 1
 457.893554688 -19.8779296875 73 -14.1180651654 73 246.044921875 c 0
 73 331.106288741 104.45571448 385.920380303 193.551757812 427.900390625 c 0
 278.994628906 468.139892578 295.567382812 486.32504796 295.567382812 511.93359375 c 0
 295.567382812 571.736459565 136.044921875 584.592773438 136.044921875 584.592773438 c 1
 162.145507812 738.392578125 l 1x0e
17 334.75 m 1x4e
 266 329.216796875 l 1
 553 335.75 l 1
 551 229.25 l 1x8e
 248 238.827148438 l 1
 15 237.25 l 1
 17 334.75 l 1x4e
27 474.75 m 1x1e
 283 469.75 l 1
 583 475.75 l 1
 581 369.25 l 1x2e
 273 378.538085938 l 1
 25 377.25 l 1
 27 474.75 l 1x1e
EndSplineSet
EndChar

StartChar: uni20B8
Encoding: 692 8376 191
Width: 590
Flags: W
HStem: 0 21G<191.83 388.159> 393 30<196.151 384.104> 393.08 132.931<18.6201 196.151 384.104 563.729> 588.08 142.931<28.6201 553.729>
VStem: 191.83 196.329<0 423>
LayerCount: 2
Fore
SplineSet
287.103515625 393 m 1xd8
 15 393.080078125 l 1
 18.6201171875 526.010742188 l 1
 563.729492188 526.010742188 l 1xb8
 569.61328125 389 l 1
 287.103515625 393 l 1xd8
384.103515625 423 m 1xd8
 388.159179688 0 l 1
 191.830078125 0 l 1
 196.151367188 425.083984375 l 1
 384.103515625 423 l 1xd8
25 588.080078125 m 1
 28.6201171875 731.010742188 l 1
 553.729492188 731.010742188 l 1
 559.61328125 584 l 1
 25 588.080078125 l 1
EndSplineSet
EndChar

StartChar: uni20B9
Encoding: 693 8377 192
Width: 646
Flags: W
HStem: 411.934 109<464.704 629> 419.934 100<115 566.65> 577.992 161<36.1611 299.084>
VStem: 354.917 189<363.633 592.053>
LayerCount: 2
Fore
SplineSet
115 519.93359375 m 1x70
 421 514.93359375 l 1
 631 520.93359375 l 1
 629 411.93359375 l 1xb0
 411 421.221679688 l 1
 113 419.93359375 l 1
 115 519.93359375 l 1x70
126.696289062 379.376953125 m 1
 126.696289062 379.376953125 160.856967811 364.93359375 238.416992188 364.93359375 c 0
 315.500546517 364.93359375 354.916992188 403.044100675 354.916992188 462.93359375 c 0
 354.916992188 533.247802687 305.346263212 577.9921875 203.916992188 577.9921875 c 0
 88.6619141699 577.9921875 24.26953125 552.427734375 24.26953125 552.427734375 c 1
 3 710.840820312 l 1
 3 710.840820312 56.0574308119 738.9921875 226.916992188 738.9921875 c 0
 420.63974852 738.9921875 543.916992188 650.858398438 543.916992188 480.93359375 c 0
 543.916992188 324.2219355 424.659269628 269.228510569 379.873405878 249.963815786 c 0
 367.664836003 243.818716788 359.740234375 241.040039062 359.740234375 241.040039062 c 1
 539.770507812 120.5 l 1
 425.770507812 -37 l 1
 88.2578125 238.43359375 l 1
 126.696289062 379.376953125 l 1
EndSplineSet
EndChar

StartChar: uni20BA
Encoding: 694 8378 193
Width: 643
Flags: W
HStem: -9.99805 178.377<242.466 409.001> 711.01 20G<115.621 301.803>
VStem: 110.348 195.635<172.793 381.585 456.162 731.01>
LayerCount: 2
Fore
SplineSet
15.5478515625 321.46484375 m 1
 230.889648438 381.584960938 l 1
 439.9375 460.10546875 l 1
 474.6640625 342.615234375 l 1
 254.453125 295.018554688 l 1
 45.8486328125 218.306640625 l 1
 15.5478515625 321.46484375 l 1
1.25 482.609375 m 1
 216.591796875 542.73046875 l 1
 425.639648438 621.25 l 1
 460.366210938 503.759765625 l 1
 240.155273438 456.162109375 l 1
 31.55078125 379.450195312 l 1
 1.25 482.609375 l 1
305.982421875 172.79296875 m 1
 305.982421875 172.79296875 318.203798378 168.37890625 341.380859375 168.37890625 c 0
 398.599214618 168.37890625 441.414997034 192.153399205 456.91796875 288.5 c 1
 626.91796875 256 l 1
 602.830228139 105.546875 535.128123824 -9.998046875 299.91796875 -9.998046875 c 0
 185.013088407 -9.998046875 110.34765625 0 110.34765625 0 c 1
 115.76953125 731.009765625 l 1
 301.647460938 731.009765625 l 1
 305.982421875 172.79296875 l 1
EndSplineSet
EndChar

StartChar: breve
Encoding: 430 728 194
Width: 332
Flags: W
HStem: 571 117.5<104.763 234.329>
VStem: 0 332
LayerCount: 2
Fore
SplineSet
168 571 m 0
 65.0410031871 571 0 650 0 650 c 1
 63 748 l 1
 63 748 106.282819864 688.5 167 688.5 c 0
 226.162790698 688.5 273 742 273 742 c 1
 332 656 l 1
 332 656 282.50887574 571 168 571 c 0
EndSplineSet
EndChar

StartChar: dotaccent
Encoding: 431 729 195
Width: 240
Flags: W
HStem: 574.008 165<61.2048 178.795>
VStem: 37.5 165<597.713 715.303>
LayerCount: 2
Fore
SplineSet
37.5 656.5078125 m 0
 37.5 706.924804688 69.5830078125 739.0078125 120 739.0078125 c 0
 170.416992188 739.0078125 202.5 706.924804688 202.5 656.5078125 c 0
 202.5 606.090820312 170.416992188 574.0078125 120 574.0078125 c 0
 69.5830078125 574.0078125 37.5 606.090820312 37.5 656.5078125 c 0
EndSplineSet
EndChar

StartChar: ogonek
Encoding: 433 731 196
Width: 207
Flags: W
HStem: -248 78.5<128.253 195.535>
VStem: 22.5 99<-160.712 -53.4902>
LayerCount: 2
Fore
SplineSet
190 18 m 1
 190 18 121.5 -65.7008797666 121.5 -124 c 0
 121.5 -158.962419497 144.627272727 -168.879545455 201 -169.5 c 1
 195 -248 l 1
 81.1675126901 -242 22.5 -216.730463477 22.5 -136 c 0
 22.5 -47.52 102 22 102 22 c 1
 190 18 l 1
EndSplineSet
EndChar

StartChar: ring
Encoding: 432 730 197
Width: 307
Flags: W
HStem: 483.113 84.3027<121.38 187.681> 654.593 84.3994<121.17 189.552>
VStem: 22.5 93.3838<570.903 650.315> 193.684 91.416<571.569 650.755>
LayerCount: 2
Fore
SplineSet
115.883789062 611.916015625 m 0
 115.883789062 584.722002302 130.892619646 567.416015625 154.479492188 567.416015625 c 0
 178.437597923 567.416015625 193.68359375 584.722002302 193.68359375 611.916015625 c 0
 193.68359375 637.99655567 178.437597923 654.592773438 154.479492188 654.592773438 c 0
 130.892619646 654.592773438 115.883789062 637.99655567 115.883789062 611.916015625 c 0
22.5 612.012695312 m 0
 22.5 689.611237513 73.8253212548 738.9921875 154.479492188 738.9921875 c 0
 234.303006092 738.9921875 285.099609375 686.68963163 285.099609375 604.5 c 0
 285.099609375 530.318917759 234.303006092 483.11328125 154.479492188 483.11328125 c 0
 73.8253212547 483.11328125 22.5 533.240502327 22.5 612.012695312 c 0
EndSplineSet
EndChar

StartChar: hungarumlaut
Encoding: 435 733 198
Width: 420
Flags: W
HStem: 509.248 235.246
LayerCount: 2
Fore
SplineSet
308.0078125 744.494140625 m 1
 412.631835938 667.544921875 l 1
 268.493164062 509.248046875 l 1
 201.208984375 558.034179688 l 1
 308.0078125 744.494140625 l 1
118.0078125 744.494140625 m 1
 222.631835938 667.544921875 l 1
 78.4931640625 509.248046875 l 1
 11.208984375 558.034179688 l 1
 118.0078125 744.494140625 l 1
EndSplineSet
EndChar

StartChar: partialdiff
Encoding: 714 8706 199
Width: 615
Flags: W
HStem: -10.0664 158.675<230.863 357.3> 357.259 139.675<236.85 366.106>
VStem: 25 173.125<183.171 318.229> 396.875 193.125<188.167 451.398>
LayerCount: 2
Fore
SplineSet
198.125 249.358398438 m 0
 198.125 187.788838918 236.119029574 148.608398438 292.025390625 148.608398438 c 0
 357.546284343 148.608398438 396.875 191.677716385 396.875 259.358398438 c 0
 396.875 319.186760763 360.767059601 357.258789062 304.025390625 357.258789062 c 0
 239.308207181 357.258789062 198.125 315.297907199 198.125 249.358398438 c 0
25 239.93359375 m 0
 25 403.100373145 118.139103661 496.93359375 264.5 496.93359375 c 0
 370.19379986 496.93359375 417.65234375 440.557617188 417.65234375 440.557617188 c 1
 396.578551794 523.931578509 338.365887697 575.547316551 174.771484375 604.267578125 c 1
 212.770507812 753.510742188 l 1
 473.271840083 732.027172961 590 570.795761438 590 332 c 0
 590 103.182430662 468.048189849 -10.06640625 279 -10.06640625 c 0
 127.476298564 -10.06640625 25 87.155085637 25 239.93359375 c 0
EndSplineSet
EndChar

StartChar: emptyset
Encoding: 715 8709 200
Width: 795
Flags: W
HStem: -10.0664 100.877<283.004 518.138> 640.64 98.2939<286.076 524.103>
VStem: 20 108<243.344 482.978> 674.117 100.883<243.344 482.978>
LayerCount: 2
Fore
SplineSet
710.94921875 726.93359375 m 1
 442.330078125 339.799804688 l 1
 185.37890625 -81 l 1
 84.05078125 -17 l 1
 366.529296875 378.200195312 l 1
 616.220703125 793.93359375 l 1
 710.94921875 726.93359375 l 1
20 361.93359375 m 0
 20 592.322641811 166.610951939 738.93359375 397 738.93359375 c 0
 628.000476926 738.93359375 775 592.322641811 775 361.93359375 c 0
 775 134.599173678 628.000476926 -10.06640625 397 -10.06640625 c 0
 166.610951939 -10.06640625 20 134.599173678 20 361.93359375 c 0
128 361.93359375 m 0
 128 196.246930926 232.9990625 90.810546875 398 90.810546875 c 0
 566.738726451 90.810546875 674.1171875 196.246930926 674.1171875 361.93359375 c 0
 674.1171875 532.255308483 566.738726451 640.639648438 398 640.639648438 c 0
 232.9990625 640.639648438 128 532.255308483 128 361.93359375 c 0
EndSplineSet
EndChar

StartChar: Delta
Encoding: 716 8710 201
Width: 670
Flags: W
HStem: 0 163.317<219.086 447.606> 546.569 174.431<50.8193 190.008> 711 20G<46.4395 440.832>
LayerCount: 2
Fore
SplineSet
190.0078125 551.612304688 m 1xa0
 50.8193359375 546.569335938 l 1
 46.439453125 721 l 1xc0
 433.548828125 731 l 1
 657.5 116 l 1
 640.5 0 l 1
 29.5 0 l 1
 12.5 112 l 1
 190.0078125 551.612304688 l 1xa0
447.606445312 164.631835938 m 1
 336.818359375 501.8671875 l 1
 219.0859375 163.317382812 l 1
 447.606445312 164.631835938 l 1
EndSplineSet
EndChar

StartChar: notequal
Encoding: 726 8800 202
Width: 450
Flags: W
HStem: 174.5 126.25<175.394 414.5> 185.25 126.75<28.25 270.606> 353.5 136.25<137.192 421.5> 363.25 122.25<28.75 309.808>
LayerCount: 2
Fore
SplineSet
259.026367188 596.234375 m 1x00
 365.624023438 560.822265625 l 1
 260.5859375 315.734375 l 1
 189.977539062 78.6787109375 l 1
 84.2880859375 115.173828125 l 1
 185.828125 342.890625 l 1
 259.026367188 596.234375 l 1x00
EndSplineSet
Refer: 19 61 N 1 0 0 1 0 0 2
EndChar

StartChar: approxequal
Encoding: 725 8776 203
Width: 450
Flags: W
LayerCount: 2
Fore
SplineSet
282.491210938 276.168945312 m 1
 384.650390625 339.280273438 l 1
 446.330078125 244 l 1
 284.950195312 126.959960938 l 1
 167.509765625 217.791015625 l 1
 75.3505859375 153.4296875 l 1
 3.669921875 249.959960938 l 1
 165.05078125 367 l 1
 282.491210938 276.168945312 l 1
282.491210938 491.168945312 m 1
 384.650390625 554.280273438 l 1
 446.330078125 459 l 1
 284.950195312 341.959960938 l 1
 167.509765625 432.791015625 l 1
 75.3505859375 368.4296875 l 1
 3.669921875 464.959960938 l 1
 165.05078125 582 l 1
 282.491210938 491.168945312 l 1
EndSplineSet
EndChar

StartChar: product
Encoding: 717 8719 204
Width: 853
Flags: W
HStem: 565.084 165.927<18.6201 123.151 310.838 542.979 731.073 835.369>
VStem: 118.83 196.329<-173.994 565.084> 538.83 196.329<-173.994 563.628>
LayerCount: 2
Fore
SplineSet
118.830078125 -173.994140625 m 1
 123.151367188 565.083984375 l 1
 15 563.080078125 l 1
 18.6201171875 731.010742188 l 1
 835.369140625 731.010742188 l 1
 838.989257812 563.080078125 l 1
 731.073242188 565.080078125 l 1
 735.159179688 -173.994140625 l 1
 538.830078125 -173.994140625 l 1
 542.979492188 563.627929688 l 1
 310.837890625 565.083984375 l 1
 315.159179688 -173.994140625 l 1
 118.830078125 -173.994140625 l 1
EndSplineSet
EndChar

StartChar: summation
Encoding: 718 8721 205
Width: 670
Flags: W
HStem: -173.994 156.48<261.018 649.039> 573.08 157.931<18.6201 138.151 338.104 641.229>
LayerCount: 2
Fore
SplineSet
641.229492188 731.010742188 m 1
 647.11328125 569 l 1
 338.103515625 573 l 1
 489 301 l 1
 261.017578125 -17.513671875 l 1
 276.064453125 -17.701171875 l 1
 652.659179688 -16.0634765625 l 1
 649.0390625 -173.994140625 l 1
 63.4296875 -173.994140625 l 1
 54.87109375 -17.994140625 l 1
 283.5 302 l 1
 138.151367188 575.083984375 l 1
 15 573.080078125 l 1
 18.6201171875 731.010742188 l 1
 641.229492188 731.010742188 l 1
EndSplineSet
EndChar

StartChar: integral
Encoding: 724 8747 206
Width: 523
Flags: W
LayerCount: 2
Fore
SplineSet
363.51953125 797.84375 m 1
 502.7265625 693.124023438 l 1
 346.137695312 534.96484375 l 1
 298.63671875 10 l 1
 156.477539062 -204 l 1
 -5.5224609375 -118 l 1
 122.307617188 30 l 1
 175.984375 592.096679688 l 1
 363.51953125 797.84375 l 1
EndSplineSet
EndChar

StartChar: angleleft
Encoding: 729 9001 268
Width: 382
Flags: W
LayerCount: 2
Fore
SplineSet
194.63671875 300.836914062 m 1
 376 -151.494140625 l 1
 216 -198.994140625 l 1
 6 301.005859375 l 1
 216 791.001953125 l 1
 376 743.501953125 l 1
 194.63671875 300.836914062 l 1
EndSplineSet
EndChar

StartChar: angleright
Encoding: 730 9002 269
Width: 382
Flags: W
LayerCount: 2
Fore
SplineSet
187.36328125 291.170898438 m 1
 6 743.501953125 l 1
 166 791.001953125 l 1
 376 291.001953125 l 1
 166 -198.994140625 l 1
 6 -151.494140625 l 1
 187.36328125 291.170898438 l 1
EndSplineSet
EndChar

StartChar: dcroat
Encoding: 207 273 271
Width: 679
Flags: W
HStem: -10.0664 145<225.442 347.24> 0 135.927<571.849 665.88> 361.934 145<226.406 353.506> 544 100<292 599.38> 735.002 20G<401.875 569.256>
VStem: 22.5 164.25<175.307 319.955> 392.25 179.599<178.489 317.212> 397.271 85.2295<123.97 418.267> 402 167.17<278.934 755.002>
LayerCount: 2
Fore
SplineSet
292 644 m 1x3c
 493 639 l 1
 648 645 l 1
 646 536 l 1
 483 545.288085938 l 1
 290 544 l 1
 292 644 l 1x3c
EndSplineSet
Refer: 5 100 S 1 0 0 1 0 0 2
EndChar

StartChar: Hbar
Encoding: 228 294 272
Width: 830
Flags: W
HStem: 0 21G<128.83 325.159 543.83 740.159> 182.5 157<374.273 604> 193.5 142<247 472.727> 400.434 104<133.308 818> 408.5 95<31 713.692> 575.084 155.927<18.6201 133.151 433.62 548.151>
VStem: 128.83 196.329<0 193.5 335.5 575.084> 243 82.1592<193.5 335.5> 543.83 196.329<0 182.5 339.5 575.084>
LayerCount: 2
Fore
SplineSet
319.729492188 731.010742188 m 1x8680
 325.159179688 0 l 1
 128.830078125 0 l 1
 133.151367188 575.083984375 l 1
 15 573.080078125 l 1
 18.6201171875 731.010742188 l 1
 319.729492188 731.010742188 l 1x8680
734.729492188 731.010742188 m 1
 740.159179688 0 l 1
 543.830078125 0 l 1
 548.151367188 575.083984375 l 1
 430 573.080078125 l 1
 433.620117188 731.010742188 l 1
 734.729492188 731.010742188 l 1
247 335.5 m 1xa580
 608 339.5 l 1
 604 182.5 l 1xc580
 243 193.5 l 1
 247 335.5 l 1xa580
31 503.5 m 1x8c80
 820 504.43359375 l 1
 818 400.43359375 l 1x9480
 29 408.5 l 1
 31 503.5 l 1x8c80
EndSplineSet
EndChar

StartChar: hbar
Encoding: 229 295 273
Width: 650
Flags: W
HStem: 0 21G<111.33 287.659> 362.934 144<315.385 424.365> 551.5 104<244.856 403.5> 559.5 95<14.5 343.295> 735.002 20G<115.537 282.373>
VStem: 111.33 176.329<0 253.934 560.788 755.002> 448.5 172<-1.22201 338.473>
LayerCount: 2
Fore
SplineSet
185.5 253.93359375 m 1xce
 207.266367387 411.989257812 275.916354433 506.93359375 418 506.93359375 c 0
 551.423095703 506.93359375 620.5 429.158149369 620.5 278.93359375 c 0
 620.5 134.37697824 602.659179688 -15 602.659179688 -15 c 1
 428.330078125 0 l 1
 428.330078125 0 448.5 138.278031735 448.5 251.93359375 c 0
 448.5 322.389966388 427.905761719 362.93359375 369.5 362.93359375 c 0
 303.988235061 362.93359375 274.346785262 321.876464844 258.5 216.93359375 c 1
 185.5 253.93359375 l 1xce
14.5 654.5 m 1xde
 203 649.5 l 1
 405.5 655.5 l 1
 403.5 551.5 l 1xee
 193 560.788085938 l 1
 12.5 559.5 l 1
 14.5 654.5 l 1xde
282.229492188 755.001953125 m 1
 287.659179688 0 l 1
 111.330078125 0 l 1
 115.651367188 755.001953125 l 1
 282.229492188 755.001953125 l 1
EndSplineSet
EndChar

StartChar: Tbar
Encoding: 292 358 275
Width: 590
Flags: W
HStem: 0 21G<191.83 388.159> 244 139<373.092 512> 254 127<80 415.947> 573 30<196.151 384.104> 573.08 157.931<16.1201 196.151 384.104 566.229>
VStem: 191.83 196.329<0 603>
LayerCount: 2
Fore
SplineSet
80 381 m 1xa4
 295 377 l 1
 516 383 l 1
 512 244 l 1xc4
 288 255.288085938 l 1
 76 254 l 1
 80 381 l 1xa4
EndSplineSet
Refer: 61 84 N 1 0 0 1 0 0 2
EndChar

StartChar: tbar
Encoding: 293 359 276
Width: 438
Flags: W
HStem: 196.962 106.5<246.758 399.75> 204.962 97.5<15.75 341.69> 359.75 137.25<12.25 244.365> 480 20G<185.75 413.29>
VStem: 107.58 162.549<181.993 478.999>
LayerCount: 2
Fore
SplineSet
15.75 302.461914062 m 1x48
 206.75 297.461914062 l 1
 401.75 303.461914062 l 1
 399.75 196.961914062 l 1x88
 196.75 206.25 l 1
 13.75 204.961914062 l 1
 15.75 302.461914062 l 1x48
EndSplineSet
Refer: 7 116 N 1 0 0 1 0 0 2
EndChar

StartChar: .notdef
Encoding: 738 -1 362
Width: 795
Flags: W
HStem: -10.0664 93.377<285.409 515.633> 141.077 123.9<326.019 423.981> 295.47 113.453<332.449 416.953> 506.214 88.0925<317.455 399.294> 648.14 90.7939<285.409 515.633>
VStem: 22.5 100.5<241.706 484.616> 313.05 123.9<154.046 252.008> 422.513 112.837<415.801 482.917> 679.117 93.3828<244.876 481.359>
LayerCount: 2
Fore
SplineSet
301.650390625 506.214172363 m 1xfd80
 318.819335938 594.306640625 l 1
 467.310688743 574.524979031 535.349609375 530.359347308 535.349609375 445.283203125 c 0
 535.349609375 383.034673072 489.641746148 354.882298688 452.651184082 343.696533203 c 0
 438.549325851 339.327682509 423.833557129 337.502075195 423.833557129 337.502075195 c 1
 416.962463379 290.139648438 l 1
 416.962463379 290.139648438 404.677944236 295.470031738 376.200195312 295.470031738 c 0
 347.586284931 295.470031738 332.437744141 288.939453125 332.437744141 288.939453125 c 1
 325.105895996 411.189025879 l 1
 325.105895996 411.189025879 338.099271392 408.923278809 363.974609375 408.923278809 c 0
 398.068219866 408.923278809 422.512695312 420.160099921 422.512695312 450.077148438 c 0
 422.512695312 482.205700693 391.758230724 495.329953039 301.650390625 506.214172363 c 1xfd80
313.049926758 203.027038575 m 0xfe80
 313.049926758 240.885661104 337.141377471 264.977111816 375 264.977111816 c 0
 412.858622529 264.977111816 436.950073242 240.885661104 436.950073242 203.027038575 c 0
 436.950073242 165.168527943 412.858622529 141.077148438 375 141.077148438 c 0
 337.141377471 141.077148438 313.049926758 165.168527943 313.049926758 203.027038575 c 0xfe80
22.5 361.93359375 m 0
 22.5 592.322641811 168.138730772 738.93359375 397 738.93359375 c 0
 626.472695994 738.93359375 772.5 592.322641811 772.5 361.93359375 c 0
 772.5 134.599173678 626.472695994 -10.06640625 397 -10.06640625 c 0
 168.138730772 -10.06640625 22.5 134.599173678 22.5 361.93359375 c 0
123 361.93359375 m 0
 123 191.663587734 229.943489584 83.310546875 398 83.310546875 c 0
 569.794290068 83.310546875 679.1171875 191.663587734 679.1171875 361.93359375 c 0
 679.1171875 536.838678091 569.794290068 648.139648438 398 648.139648438 c 0
 229.943489584 648.139648438 123 536.838678091 123 361.93359375 c 0
EndSplineSet
EndChar

StartChar: uni0326
Encoding: 452 806 363
Width: 0
Flags: W
HStem: -206.337 211.029
VStem: 0 183.296
LayerCount: 2
Fore
SplineSet
65.28125 4.6923828125 m 25
 183.295898438 -62.537109375 l 25
 70.28125 -206.336914062 l 25
 0 -165.5 l 25
 65.28125 4.6923828125 l 25
EndSplineSet
EndChar

StartChar: dcaron
Encoding: 205 271 403
Width: 679
Flags: W
HStem: -10.0664 145<225.442 347.24> 0 135.927<571.849 665.88> 361.934 145<226.406 353.506> 735.002 20G<401.875 569.256>
VStem: 22.5 164.25<175.307 319.955> 392.25 179.599<178.489 317.212> 397.271 85.2295<123.97 418.267> 402 167.17<278.934 755.002>
LayerCount: 2
Fore
SplineSet
794.5 731.7421875 m 1x38
 726.5 476.75 l 25
 635 484 l 1
 625 751 l 25
 794.5 731.7421875 l 1x38
EndSplineSet
Refer: 5 100 N 1 0 0 1 0 0 2
EndChar

StartChar: Lcaron
Encoding: 251 317 404
Width: 620
Flags: W
HStem: 0 156.293<324.065 604.039> 575.084 155.927<16.1201 133.151>
VStem: 128.43 195.635<156.293 575.084>
LayerCount: 2
Fore
SplineSet
629.5 729.7421875 m 1
 557.75 476.75 l 1
 465 484 l 1
 458.75 751 l 1
 629.5 729.7421875 l 1
EndSplineSet
Refer: 44 76 N 1 0 0 1 0 0 2
EndChar

StartChar: lcaron
Encoding: 252 318 405
Width: 402
Flags: W
HStem: 0 136.397<289.129 388.539> 619.075 135.927<18.6201 118.151>
VStem: 113.83 175.299<136.397 619.075>
LayerCount: 2
Fore
SplineSet
523.5 729.7421875 m 1
 451.75 476.75 l 25
 359 484 l 1
 352.75 751 l 25
 523.5 729.7421875 l 1
EndSplineSet
Refer: 8 108 N 1 0 0 1 0 0 2
EndChar

StartChar: tcaron
Encoding: 291 357 409
Width: 438
Flags: W
HStem: 359.75 137.25<12.25 244.365> 480 20G<185.75 413.29>
VStem: 107.58 162.549<181.993 478.999>
LayerCount: 2
Fore
SplineSet
487 730.4921875 m 1x20
 422.25 551 l 25
 335.75 549 l 1
 338.75 751 l 25
 487 730.4921875 l 1x20
EndSplineSet
Refer: 7 116 N 1 0 0 1 0 0 2
EndChar

StartChar: uni030F
Encoding: 448 783 435
Width: 0
Flags: W
HStem: 509.248 235.246
LayerCount: 2
Fore
SplineSet
107.124023438 744.494140625 m 1
 213.922851562 558.034179688 l 1
 146.638671875 509.248046875 l 1
 2.5 667.544921875 l 1
 107.124023438 744.494140625 l 1
297.124023438 744.494140625 m 1
 403.922851562 558.034179688 l 1
 336.638671875 509.248046875 l 1
 192.5 667.544921875 l 1
 297.124023438 744.494140625 l 1
EndSplineSet
EndChar

StartChar: uni031B
Encoding: 450 795 463
Width: 0
Flags: W
VStem: 65.75 141.5<523.428 677.516>
LayerCount: 2
Fore
SplineSet
18.75 717 m 1
 162.25 750 l 1
 162.25 750 207.25 696.444114829 207.25 611 c 0
 207.25 466.752305665 68.75 409 68.75 409 c 1
 7.25 483 l 1
 7.25 483 65.75 521 65.75 597.989257812 c 0
 65.75 661 18.75 717 18.75 717 c 1
EndSplineSet
EndChar

StartChar: Uhorn
Encoding: 322 431 464
Width: 847
Flags: W
HStem: -10 167<358.657 499.342> 575.084 155.927<18.6201 140.151 419.12 534.651>
VStem: 128.517 188.643<199.89 572.874> 543.33 186.812<202.967 571.626>
LayerCount: 2
Fore
SplineSet
644.5 792.5 m 1
 761.5 860.93359375 l 1
 761.5 860.93359375 824.5 822.364091325 824.5 755 c 0
 824.5 673.111607143 763.5 647.459821428 683.5 644.5 c 1
 626.5 731.0078125 l 1
 669.5 731.0078125 689.5 735.181527531 689.5 754 c 0
 689.5 777.932432433 644.5 792.5 644.5 792.5 c 1
EndSplineSet
Refer: 53 85 N 1 0 0 1 0 0 2
EndChar

StartChar: uhorn
Encoding: 323 432 465
Width: 687
Flags: W
HStem: -9.93164 144<162.953 317.661> 0 135.927<537.849 634.38> 477.002 20G<48.5908 222.17 367.81 535.318>
VStem: 30 172<159.952 499.297> 368 167.17<213.068 497.002> 529.5 135<503.761 576.144>
LayerCount: 2
Fore
SplineSet
483 589.502929688 m 1x34
 599 654.936523438 l 1
 599 654.936523438 664.5 607.056385968 664.5 530.25 c 0
 664.5 444.921944288 600.092198582 415.66763583 511 413.002929688 c 1
 456.5 497.010742188 l 1
 506.325396825 497.010742188 529.5 505.106583773 529.5 535.252929688 c 0
 529.5 575.937373235 483 589.502929688 483 589.502929688 c 1x34
EndSplineSet
Refer: 27 117 N 1 0 0 1 0 0 2
EndChar

StartChar: uni01B7
Encoding: 324 439 466
Width: 644
Flags: W
HStem: -183.994 166.25<110.57 348.864> 551.008 180<34.5 343.598>
VStem: 402.417 215.5<32.8078 164.386>
LayerCount: 2
Fore
SplineSet
390 350.5 m 1
 390 350.5 408.835011254 348.922578443 436.092040075 340.675264002 c 0
 508.874835027 322.53402054 617.916992188 258.668494915 617.916992188 91.556640625 c 0
 617.916992188 -88.9720936853 484.333786063 -183.994140625 274.416992188 -183.994140625 c 0
 85.7072104287 -183.994140625 5.5 -126.842773438 5.5 -126.842773438 c 1
 55.75 30.322265625 l 1
 55.75 30.322265625 120.911877988 -17.744140625 241.416992188 -17.744140625 c 0
 354.857606261 -17.744140625 402.416992188 27.1920211413 402.416992188 97.806640625 c 0
 402.416992188 166.779394425 357.841287051 211.2421875 255.916992188 211.2421875 c 0
 182.210722658 211.2421875 149.0078125 196.93359375 149.0078125 196.93359375 c 1
 126.5 312 l 1
 343.59765625 557.0078125 l 1
 25.5 551.0078125 l 1
 34.5 731.0078125 l 1
 566.516601562 731.0078125 l 1
 594.016601562 592.0078125 l 1
 390 350.5 l 1
EndSplineSet
EndChar

StartChar: uni0292
Encoding: 426 658 467
Width: 498
Flags: W
HStem: -183.994 142.75<68.2381 271.606> 352 145.011<34 248.848>
VStem: 299.667 174.75<-14.1428 84.8437>
LayerCount: 2
Back
SplineSet
20 338 m 5
 30 497 l 5
 399.016601562 497 l 5
 431.016601562 369 l 5
 257.168945312 164 l 5
 441.016601562 170 l 5
 431.016601562 0 l 5
 41 0 l 5
 12 128 l 5
 193.84765625 344 l 5
 20 338 l 5
EndSplineSet
Fore
SplineSet
304.25 219.75 m 1
 304.25 219.75 319.21863055 218.451345745 338.558100094 212 c 0
 398.167553438 198.393352088 474.416992188 147.00895939 474.416992188 34.8122558594 c 0
 474.416992188 -114.836293829 371.944867547 -183.994140625 210.916992188 -183.994140625 c 0
 71.3290030521 -183.994140625 12 -147.342773438 12 -147.342773438 c 1
 42.25 -6.427734375 l 1
 42.25 -6.427734375 87.3900240385 -41.244140625 197.25 -41.244140625 c 0
 263.053313771 -41.244140625 299.666992188 -11.7811279129 299.666992188 34.556640625 c 0
 299.666992188 81.3362188173 264.057751465 111.4921875 194.416992188 111.4921875 c 0
 141.886343659 111.4921875 110.2578125 101.18359375 110.2578125 101.18359375 c 1
 87.5 205.75 l 1
 248.84765625 357.25 l 1
 25 352 l 1
 34 497.010742188 l 1
 425.266601562 497 l 1
 455.516601562 382.25 l 1
 304.25 219.75 l 1
EndSplineSet
EndChar

StartChar: infinity
Encoding: 723 8734 470
Width: 579
Flags: W
HStem: 221 105.59<360.967 440.836> 221 96.5879<138.592 240.936> 409.634 105.051<139.938 220.922> 417.315 97.3691<342.099 438.863>
VStem: 22.5 109.569<324.52 403.071> 446.665 110.619<333.27 410.337>
LayerCount: 2
Fore
SplineSet
446.665039062 370.404296875 m 0xac
 446.665039062 398.812000831 426.893956253 417.315429688 396.541992188 417.315429688 c 0
 347.655649391 417.315429688 324.979492188 376.619140625 324.979492188 376.619140625 c 1
 276.788085938 440.7109375 l 1
 276.788085938 440.7109375 318.250976562 514.684570312 414.331054688 514.684570312 c 0
 500.184126878 514.684570312 557.284179688 455.794921875 557.284179688 367.248046875 c 0
 557.284179688 276.083984375 498.53732419 221 401.311523438 221 c 0x9c
 316.737236619 221 271.463357019 257.99609375 237.903320312 354.533203125 c 0
 224.197913039 394.329158747 209.244303605 409.633789062 182.170898438 409.633789062 c 0
 151.273994714 409.633789062 132.069335938 391.870610025 132.069335938 363.291015625 c 0
 132.069335938 334.871303683 150.959150363 317.587890625 182.021484375 317.587890625 c 0
 234.383552719 317.587890625 266.307617188 374.928710938 266.307617188 374.928710938 c 1
 309.377929688 303.771484375 l 1
 309.377929688 303.771484375 269.056640625 221 162.53515625 221 c 0x6c
 76.7195370522 221 22.5 280.737304688 22.5 367.000976562 c 0
 22.5 457.278320312 81.8719515312 514.684570312 175.237304688 514.684570312 c 0
 260.876837755 514.684570312 310.338435964 463.3125 340.504882812 388.341796875 c 0
 359.418826372 340.944904722 374.362309299 326.58984375 400.116210938 326.58984375 c 0
 428.982479947 326.58984375 446.665039062 343.233294998 446.665039062 370.404296875 c 0xac
EndSplineSet
EndChar

StartChar: radical
Encoding: 722 8730 471
Width: 659
Flags: W
HStem: 0 21G<235.507 430.733> 491 20G<10 249.534>
LayerCount: 2
Fore
SplineSet
424.607421875 0 m 1
 242.174804688 0 l 1
 120.151367188 366 l 1
 17.0458984375 358 l 1
 10 497 l 1
 243.546875 511 l 1
 335.405273438 204.1328125 l 1
 488 783 l 1
 654 749 l 1
 424.607421875 0 l 1
EndSplineSet
EndChar

StartChar: lessequal
Encoding: 727 8804 472
Width: 450
Flags: W
HStem: 71.25 141.5<169.182 425> 82.25 128.5<26 278.818>
LayerCount: 2
Fore
SplineSet
279.37109375 441.5 m 1x00
 430.349609375 376 l 1
 372.849609375 242 l 1
 19.650390625 432 l 1
 372.849609375 651 l 1
 430.349609375 517 l 1
 279.37109375 441.5 l 1x00
26 210.75 m 1x40
 427 212.75 l 1
 425 71.25 l 1x80
 23 82.25 l 1
 26 210.75 l 1x40
EndSplineSet
EndChar

StartChar: greaterequal
Encoding: 728 8805 473
Width: 450
Flags: W
HStem: 71.25 141.5<169.182 425> 82.25 128.5<26 278.818>
LayerCount: 2
Fore
SplineSet
170.62890625 451.5 m 1x00
 19.650390625 517 l 1
 77.150390625 651 l 1
 430.349609375 461 l 1
 77.150390625 242 l 1
 19.650390625 376 l 1
 170.62890625 451.5 l 1x00
26 210.75 m 1x40
 427 212.75 l 1
 425 71.25 l 1x80
 23 82.25 l 1
 26 210.75 l 1x40
EndSplineSet
EndChar

StartChar: three.ss01.superior
Encoding: 739 -1 507
Width: 390
Flags: W
HStem: 342 108.375<37.3228 229.258> 551.375 94.25<99.447 218.942> 733.5 109.5<56.454 217.98>
VStem: 226.125 136.438<656.4 723.404> 242.125 133.438<464.166 538.596>
LayerCount: 2
Fore
SplineSet
35.125 477.9375 m 1xe8
 35.125 477.9375 87.375 450.375 159.625 450.375 c 0
 215.5625 450.375 242.125 470.625 242.125 503 c 0xe8
 242.125 532.9375 217.5625 551.375 161.4375 551.375 c 0
 112.25 551.375 99.4375 547.375 99.4375 547.375 c 1
 99.4375 648.4375 l 1
 99.4375 648.4375 111.4375 645.625 151.625 645.625 c 0
 204.125 645.625 226.125 662.875 226.125 688.4375 c 0
 226.125 716.625 203.875 733.5 153.4375 733.5 c 0
 87.5 733.5 43.9375 705.3125 43.9375 705.3125 c 1
 16.4375 813.8125 l 1
 16.4375 813.8125 64.5 843 175.8125 843 c 0
 292.125 843 362.5625 793 362.5625 712 c 0xf0
 362.5625 628.25 284.875 605.0625 284.875 605.0625 c 1
 284.875 605.0625 375.5625 584.4375 375.5625 480.1875 c 0
 375.5625 395.1875 299.5 342 180 342 c 0
 58.875 342 7.625 372 7.625 372 c 1
 35.125 477.9375 l 1xe8
EndSplineSet
EndChar

StartChar: five.ss02.superior
Encoding: 740 -1 508
Width: 392
Flags: W
HStem: 343 107.75<51.3119 228.159> 568.375 99.875<142.347 228.489> 723.625 159.375<260 348.812> 724.625 112.375<154.688 254.812>
VStem: 242.375 133.438<466.619 554.102> 260 88.8125<837 881.188>
LayerCount: 2
Fore
SplineSet
348.8125 723.625 m 1xe4
 154.6875 724.625 l 1
 142.25 653.625 l 1
 142.25 653.625 162.125 668.25 217.1875 668.25 c 0
 330.5625 668.25 375.8125 606.0625 375.8125 512.875 c 0
 375.8125 394.625 299.625 343 180.4375 343 c 0
 59.4375 343 7.625 379 7.625 379 c 1
 35.25 480.125 l 1
 35.25 480.125 88.5625 450.75 161.8125 450.75 c 0
 216.1875 450.75 242.375 474.5625 242.375 511.875 c 0
 242.375 546.5625 216.125 568.375 163.375 568.375 c 0
 115.625 568.375 87 544.4375 87 544.4375 c 1
 16.5625 603.6875 l 1
 57.3125 837 l 1
 254.8125 837 l 1xd8
 260 881.1875 l 1
 348.8125 883 l 1
 348.8125 723.625 l 1xe4
EndSplineSet
EndChar

StartChar: three.ss01.inferior
Encoding: 741 -1 509
Width: 390
Flags: W
HStem: -358 108.375<37.2565 229.135> -148.625 94.25<98.8222 218.693> 33.5 109.5<56.7556 217.96>
VStem: 226.125 136.438<-44.7741 23.3398> 242.125 133.438<-235.432 -161.373>
LayerCount: 2
Fore
SplineSet
35.125 -222.0625 m 1xe8
 35.125 -222.0625 86.75 -249.625 159 -249.625 c 0
 214.75 -249.625 242.125 -229.375 242.125 -197 c 0xe8
 242.125 -167.0625 217.125 -148.625 161 -148.625 c 0
 112 -148.625 98.8125 -152.625 98.8125 -152.625 c 1
 98.8125 -51.375 l 1
 98.8125 -51.375 111 -54.375 151.8125 -54.375 c 0
 204.9375 -54.375 226.125 -37.125 226.125 -11.5625 c 0
 226.125 16.625 203.6875 33.5 153.4375 33.5 c 0
 86.875 33.5 43.3125 4.5 43.3125 4.5 c 1
 16.4375 113 l 1
 16.4375 113 64.5 143 175.8125 143 c 0
 292.125 143 362.5625 92 362.5625 12 c 0xf0
 362.5625 -71.75 285.0625 -94.125 285.0625 -94.125 c 1
 285.0625 -94.125 375.5625 -114.75 375.5625 -219 c 0
 375.5625 -304 299.5 -358 180 -358 c 0
 58.875 -358 7.625 -328 7.625 -328 c 1
 35.125 -222.0625 l 1xe8
EndSplineSet
EndChar

StartChar: five.ss02.inferior
Encoding: 742 -1 510
Width: 392
Flags: W
HStem: -357 107.75<50.5699 228.123> -131.625 99.875<142.316 228.517> 23.625 158.375<260 348.812> 24.625 112.375<154.688 254.812>
VStem: 242.375 133.438<-233.381 -145.898> 260 88.8125<137 182>
LayerCount: 2
Fore
SplineSet
348.8125 23.625 m 1xe4
 154.6875 24.625 l 1
 142.25 -46.375 l 1
 142.25 -46.375 162.125 -31.75 217.1875 -31.75 c 0
 330.5625 -31.75 375.8125 -93.9375 375.8125 -187.125 c 0
 375.8125 -305.375 299.625 -357 180.4375 -357 c 0
 59.4375 -357 7.625 -321.1875 7.625 -321.1875 c 1
 35.25 -220.6875 l 1
 35.25 -220.6875 88.375 -249.25 161.625 -249.25 c 0
 216 -249.25 242.375 -225.4375 242.375 -188.125 c 0
 242.375 -153.4375 216.3125 -131.625 163.375 -131.625 c 0
 115.4375 -131.625 87 -155.5625 87 -155.5625 c 1
 16.5625 -96.3125 l 1
 57.3125 137 l 1
 254.8125 137 l 1xd8
 260 182 l 1
 348.8125 183 l 1
 348.8125 23.625 l 1xe4
EndSplineSet
EndChar

StartChar: guilsinglleft
Encoding: 651 8249 511
Width: 377
Flags: W
HStem: 491 20G<245.796 290.977>
LayerCount: 2
Fore
SplineSet
203.220703125 260 m 1
 371.69921875 103.5 l 1
 266.69921875 2 l 1
 -4 252 l 1
 266.69921875 511 l 1
 371.69921875 424.5 l 1
 203.220703125 260 l 1
EndSplineSet
EndChar

StartChar: guilsinglright
Encoding: 652 8250 512
Width: 377
Flags: W
HStem: 491 20G<90.0603 132.406>
LayerCount: 2
Fore
SplineSet
174.228515625 253 m 1
 5.75 409.5 l 1
 110.75 511 l 1
 381.44921875 261 l 1
 110.75 2 l 1
 5.75 88.5 l 1
 174.228515625 253 l 1
EndSplineSet
EndChar

StartChar: dagger
Encoding: 640 8224 513
Width: 520
Flags: W
HStem: 403.434 155<18.75 222.732> 407.845 142.524<49.7684 366.987>
VStem: 164 188.329<-170 46.1373 687.225 788.992> 185.116 146.554<265.863 620.943>
LayerCount: 2
Fore
SplineSet
18.75 558.43359375 m 1x80
 253.75 550.369140625 l 1
 504.75 562.43359375 l 1
 501.25 392.43359375 l 1
 255.25 407.844726562 l 1x40
 15.25 403.43359375 l 1
 18.75 558.43359375 l 1x80
346.899414062 788.9921875 m 1
 331.669921875 478 l 1x10
 352.329101562 -170 l 1
 164 -170 l 1x20
 185.116210938 482 l 1x10
 170.169921875 788.9921875 l 1
 346.899414062 788.9921875 l 1
EndSplineSet
EndChar

StartChar: daggerdbl
Encoding: 641 8225 514
Width: 520
Flags: W
HStem: 112.434 155<13.75 222.072> 116.845 142.524<45.4284 369.258> 413.434 155<13.75 222.072> 417.845 142.524<45.4284 369.258>
VStem: 185.5 145.898<136.583 590.36> 331.398 178.352<135.991 239 402.434 572.434>
LayerCount: 2
Fore
SplineSet
13.75 267.43359375 m 1x84
 253.75 259.369140625 l 1
 509.75 271.43359375 l 1
 506.25 101.43359375 l 1
 255.25 116.844726562 l 1x44
 10.25 112.43359375 l 1
 13.75 267.43359375 l 1x84
13.75 568.43359375 m 1x24
 253.75 560.369140625 l 1
 509.75 572.43359375 l 1
 506.25 402.43359375 l 1
 255.25 417.844726562 l 1x14
 10.25 413.43359375 l 1
 13.75 568.43359375 l 1x24
346.899414062 788.9921875 m 1
 329.669921875 488 l 1
 331.3984375 239 l 1
 352.329101562 -170 l 1
 164 -170 l 1
 185.5 239 l 1x08
 187.116210938 492 l 1
 170.169921875 788.9921875 l 1
 346.899414062 788.9921875 l 1
EndSplineSet
EndChar

StartChar: uni20A6
Encoding: 680 8358 515
Width: 831
Flags: W
HStem: -10 21G<516.934 706.539> 0 21G<130.21 316.539> 227.25 97.5<27 223.128> 237.25 91.9668<578 757.712> 319.217 39.3213<193 248> 329.217 39.3213<679 780.743> 357.25 97.5<29 249.265> 367.25 97.5<588 775.389> 711.011 20G<527.799 701.258>
VStem: 130.21 186.329<0 228.827 319.217 358.538> 524.151 182.388<347.389 367.25 459.75 731.011>
LayerCount: 2
Fore
SplineSet
578 334.75 m 1x10e0
 672 329.216796875 l 1
 809 335.75 l 1
 807 229.25 l 1
 654 238.827148438 l 1
 576 237.25 l 1
 578 334.75 l 1x10e0
588 464.75 m 1x01e0
 689 459.75 l 1
 816 465.75 l 1
 814 359.25 l 1
 679 368.538085938 l 1x04e0
 586 367.25 l 1
 588 464.75 l 1x01e0
27 324.75 m 1x20e0
 193 319.216796875 l 1x08e0
 248 325.75 l 1
 246 219.25 l 1
 175 228.827148438 l 1
 25 227.25 l 1
 27 324.75 l 1x20e0
29 454.75 m 1x02e0
 210 449.75 l 1
 271 455.75 l 1
 269 349.25 l 1
 200 358.538085938 l 1x08e0
 27 357.25 l 1
 29 454.75 l 1x02e0
701.109375 731.010742188 m 1
 706.5390625 0 l 1x40e0
 527.709960938 -10 l 1x80e0
 313.92578125 386.79296875 l 1
 316.5390625 0 l 1
 130.209960938 0 l 1x40e0
 134.53125 576.583984375 l 1
 19.3798828125 570.580078125 l 1
 15 731.010742188 l 1
 333.609375 741.010742188 l 1
 524.151367188 347.388671875 l 1
 528 731.010742188 l 1
 701.109375 731.010742188 l 1
EndSplineSet
EndChar

